<?xml version="1.0" encoding="UTF-8"?>
<svg version="1.1" xmlns="http://www.w3.org/2000/svg" width="8744" height="1297">
<path d="M0 0 C1.10855347 0.97936523 1.10855347 0.97936523 2.23950195 1.97851562 C15.37774157 13.67745731 28.31836976 25.98299906 39 40 C39.81726562 41.0003125 40.63453125 42.000625 41.4765625 43.03125 C54.35435938 58.82308683 65.21158903 76.15689386 75 94 C75.50885742 94.92200195 76.01771484 95.84400391 76.54199219 96.79394531 C105.1097198 148.94524381 121.43642414 207.30633018 128.25 266.1875 C128.33335602 266.90567902 128.41671204 267.62385803 128.50259399 268.36380005 C130.40311422 284.9820636 131.21059428 301.52631688 131.1875 318.25 C131.18689575 319.07048828 131.1862915 319.89097656 131.18566895 320.73632812 C131.05428774 387.13190088 115.19445852 451.15101625 95 514 C94.75743469 514.75821045 94.51486938 515.5164209 94.26495361 516.29760742 C82.10644502 554.2923074 67.90209728 591.41906574 52 628 C51.71274048 628.66197388 51.42548096 629.32394775 51.1295166 630.00598145 C42.58174397 649.68313551 33.33409396 669.00061518 23.86260986 688.2454834 C23.07672507 689.84394404 22.29381615 691.44386689 21.51123047 693.04394531 C3.40221078 730.06120587 -17.60820022 765.77754325 -40.27880859 800.16821289 C-45.25642338 807.75995661 -49.99930947 815.47789906 -54.6875 823.25 C-55.04863892 823.84868896 -55.40977783 824.44737793 -55.78186035 825.06420898 C-56.14034058 825.65854736 -56.4988208 826.25288574 -56.86816406 826.86523438 C-62.30213123 835.87280533 -67.85158569 844.79649972 -73.51220703 853.66308594 C-75.08764428 856.13766508 -76.65196176 858.61903655 -78.21484375 861.1015625 C-84.64456964 871.29221211 -91.22272963 881.37073863 -97.9375 891.375 C-105.64097597 902.85398632 -113.03147739 914.50443555 -120.30224609 926.26318359 C-122.90663398 930.4615138 -125.54515781 934.63798888 -128.1875 938.8125 C-128.67355713 939.58118408 -129.15961426 940.34986816 -129.66040039 941.1418457 C-131.58557391 944.18592349 -133.51206103 947.22916905 -135.43847656 950.27246094 C-141.48749409 959.83064482 -147.50969821 969.40488796 -153.5 979 C-159.48578339 988.58787459 -165.50364578 998.15474523 -171.54833984 1007.70556641 C-174.0347353 1011.63545953 -176.51717296 1015.56785183 -179 1019.5 C-181.96298136 1024.19258693 -184.92658804 1028.88476804 -187.89453125 1033.57421875 C-193.456717 1042.36606074 -198.99050463 1051.17503136 -204.5 1060 C-208.05809108 1065.6992592 -211.61639626 1071.39827491 -215.19921875 1077.08203125 C-215.69671631 1077.87367676 -216.19421387 1078.66532227 -216.70678711 1079.48095703 C-217.68777428 1081.02562768 -218.68198625 1082.56198461 -219.68969727 1084.08935547 C-222.79405226 1088.83562841 -225.25560435 1093.53843509 -227.37207031 1098.8059082 C-233.10375056 1109.12775971 -233.10375056 1109.12775971 -238.55258179 1110.76874065 C-241.74786813 1111.05558703 -244.85221924 1111.07006079 -248.06005859 1111.00366211 C-249.99651035 1111.01687018 -251.932962 1111.03010752 -253.86940849 1111.04406565 C-256.02553492 1111.0519882 -258.18080616 1111.03958455 -260.33687592 1111.02289963 C-265.27233317 1110.98936652 -270.20555372 1111.0389782 -275.14068604 1111.0954895 C-286.03330051 1111.21225778 -296.92574864 1111.26145235 -307.81887341 1111.30328512 C-313.45195551 1111.32580093 -319.08501454 1111.35320295 -324.71807861 1111.37979126 C-336.84579303 1111.43598797 -348.97352919 1111.48528669 -361.10128021 1111.5328331 C-368.64192638 1111.56240199 -376.18256597 1111.59347071 -383.72320557 1111.62466431 C-418.81540879 1111.76906842 -453.90766088 1111.89367661 -489 1112 C-490.11918194 1112.00339701 -491.23836388 1112.00679401 -492.39146042 1112.01029396 C-519.65006782 1112.09257484 -546.90861388 1112.15336878 -574.16733515 1112.17865521 C-580.09506827 1112.18454535 -586.02277893 1112.19536452 -591.95050049 1112.20828247 C-626.00764922 1112.27975149 -660.00096522 1112.28361492 -694 1110 C-695.16559448 1109.92429779 -696.33118896 1109.84859558 -697.53210449 1109.77059937 C-703.92563686 1109.34656084 -710.3068477 1108.8352353 -716.6875 1108.25 C-718.07415863 1108.12594788 -718.07415863 1108.12594788 -719.48883057 1107.99938965 C-815.37972279 1099.36339705 -911.38525918 1080.18562542 -1145 965 C-1145.51030762 964.57460937 -1146.02061523 964.14921875 -1146.54638672 963.7109375 C-1162.23596915 950.60898975 -1177.87719698 936.66769699 -1191.171875 921.10546875 C-1193.3102087 918.64272972 -1195.53084599 916.26512657 -1197.75 913.875 C-1202.99523219 908.11552936 -1207.79497195 902.07387164 -1212.53613281 895.89648438 C-1214.01786728 893.9768524 -1215.51879597 892.07358806 -1217.0234375 890.171875 C-1242.39361027 857.87752844 -1263.05561027 821.64747696 -1277 783 C-1277.46696289 781.73639648 -1277.46696289 781.73639648 -1277.94335938 780.44726562 C-1289.28347254 749.57024107 -1296.05478733 715.62849023 -1296.203125 682.68359375 C-1296.21013931 681.6371167 -1296.21715363 680.59063965 -1296.22438049 679.51245117 C-1296.24178899 676.15408985 -1296.24823272 672.79590479 -1296.25 669.4375 C-1296.25067474 668.29072784 -1296.25134949 667.14395569 -1296.25204468 665.96243286 C-1296.23656694 649.4314856 -1295.86854251 633.31850865 -1293 617 C-1292.74259033 615.44563232 -1292.74259033 615.44563232 -1292.47998047 613.85986328 C-1283.36125654 559.4164365 -1262.27920327 507.80966967 -1230 463 C-1229.2889209 462.0107251 -1229.2889209 462.0107251 -1228.56347656 461.00146484 C-1213.34827989 439.96749723 -1195.71563296 419.9265922 -1176 403 C-1174.97993992 402.10476888 -1173.96045192 401.20888566 -1172.94140625 400.3125 C-1109.5933668 344.89445156 -1030.7867332 317.9654857 -948 309.6875 C-947.18985443 309.60609772 -946.37970886 309.52469543 -945.54501343 309.44082642 C-927.13941271 307.62262721 -908.74315766 306.78715147 -890.25 306.8125 C-889.41782959 306.81310425 -888.58565918 306.8137085 -887.72827148 306.81433105 C-803.02132132 306.97903678 -711.84561326 325.5257981 -648 385 C-646.60855334 386.21338219 -645.21291361 387.42197803 -643.8125 388.625 C-638.02150946 393.68339535 -632.83934743 399.12927191 -627.828125 404.953125 C-625.27201879 407.81509007 -622.53432577 410.47688705 -619.80078125 413.16796875 C-617.68853476 415.31687027 -615.80733925 417.59021434 -614 420 C-614.58697831 414.70180624 -615.45832034 409.66909515 -616.7421875 404.484375 C-617.08888058 403.06333489 -617.43513732 401.64218828 -617.78100586 400.22094727 C-617.96017548 399.49013947 -618.13934509 398.75933167 -618.32394409 398.00637817 C-621.55944153 384.75816564 -624.53395986 371.5800002 -626 358 C-626.0913623 357.22188965 -626.18272461 356.4437793 -626.27685547 355.64208984 C-632.96122826 292.59927982 -615.14745718 230.31136923 -588 174 C-587.19260757 172.29171429 -586.38530955 170.58338395 -585.578125 168.875 C-570.15697208 136.70060214 -549.67819485 106.27984236 -528 78 C-527.51772949 77.36755371 -527.03545898 76.73510742 -526.53857422 76.08349609 C-517.62866309 64.43585133 -508.10443153 53.31624219 -498.23046875 42.4765625 C-496.98364219 41.09217014 -495.74383015 39.70107129 -494.53149414 38.28637695 C-489.62704088 32.57704627 -484.39510728 27.24610455 -479.0625 21.9375 C-478.20720703 21.07833984 -477.35191406 20.21917969 -476.47070312 19.33398438 C-471.47709646 14.34799572 -466.39255834 9.55156191 -461 5 C-460.39051514 4.48381104 -459.78103027 3.96762207 -459.15307617 3.43579102 C-449.16026265 -4.94977748 -438.80337148 -12.69241783 -428 -20 C-427.30261719 -20.47179687 -426.60523438 -20.94359375 -425.88671875 -21.4296875 C-415.25418439 -28.5706475 -404.31703836 -35.00808761 -393 -41 C-391.76950928 -41.65718018 -391.76950928 -41.65718018 -390.51416016 -42.32763672 C-296.69485551 -92.07676962 -183.01095338 -95.99031978 0 0 Z " fill="#FF5353" transform="translate(1296,107)"/>
<path d="M0 0 C0 73.59 0 147.18 0 223 C43.65474361 226.82764913 43.65474361 226.82764913 62.375 208.375 C67.00282176 202.83122797 67.00282176 202.83122797 71.47753906 197.16503906 C74.53893609 193.21241154 78.13778577 190.14361164 82 187 C83.88429437 185.21152748 85.68407277 183.35968451 87.5 181.5 C91.15711176 177.79322143 94.88964571 174.24694509 98.8515625 170.8671875 C101.03224111 168.97197955 103.15416918 167.02017436 105.27148438 165.0546875 C110.42702831 160.27159731 115.69373471 155.70753727 121.17578125 151.296875 C123.66249094 149.2744887 126.10326284 147.20795255 128.53271484 145.11743164 C136.08499512 138.63164172 143.93737845 132.58324333 151.88867188 126.59667969 C153.86776079 125.10000514 155.83402197 123.58818367 157.796875 122.0703125 C239.13602248 59.53275246 337.15651576 23.09653743 483.51904297 28.26489258 C516.76764487 32.81670269 549.91528814 41.91532626 580 57 C580.78971191 57.39010254 581.57942383 57.78020508 582.39306641 58.18212891 C600.16989301 67.01893781 616.39439498 77.76039229 632 90 C633.52560547 91.18529297 633.52560547 91.18529297 635.08203125 92.39453125 C642.75631506 98.62045743 649.74744745 105.54033528 656.75 112.5 C657.24009552 112.98473785 657.73019104 113.46947571 658.23513794 113.96890259 C675.54738025 131.13750193 689.79768951 150.94402835 702 172 C702.62551758 173.06371826 702.62551758 173.06371826 703.26367188 174.14892578 C737.33053756 232.27784051 752.09823618 300.21786443 756.06699944 366.89783287 C756.11068228 367.63070718 756.15436513 368.36358148 756.1993717 369.1186641 C757.07789909 384.17541492 757.28291335 399.19579786 757.24453239 414.27834049 C757.23747031 417.97552914 757.24244114 421.67270876 757.24568737 425.36990011 C757.24977777 431.80858316 757.24664714 438.24722874 757.23841095 444.68590736 C757.22619917 454.25955779 757.22575228 463.83318525 757.22749493 473.40684204 C757.23010588 489.5214653 757.22350458 505.63607201 757.21146011 521.75069046 C757.19958345 537.68202421 757.19191967 553.61335104 757.18975449 569.54468918 C757.18961701 570.53913537 757.18947953 571.53358155 757.18933788 572.55816247 C757.18866112 577.60945016 757.18805839 582.66073786 757.18748413 587.71202557 C757.18329499 623.39298266 757.16985307 659.07393077 757.15087891 694.75488281 C757.13247919 729.39583285 757.11832712 764.03678042 757.10986328 798.67773438 C757.1094687 800.28236584 757.1094687 800.28236584 757.10906615 801.9194141 C757.10642888 812.66335156 757.10387728 823.40728903 757.10138843 834.15122652 C757.09631743 856.03346552 757.09067493 877.91570435 757.08468628 899.79794312 C757.0844117 900.80382179 757.08413712 901.80970047 757.08385422 902.84606032 C757.07541623 933.64709996 757.0645584 964.44813808 757.05130005 995.24917603 C757.05073738 996.55963954 757.05073738 996.55963954 757.05016333 997.89657706 C757.03494066 1033.2643854 757.01714745 1068.63219255 757 1104 C809.47 1104 861.94 1104 916 1104 C916 1142.61 916 1181.22 916 1221 C710.41 1221 504.82 1221 293 1221 C293 1182.39 293 1143.78 293 1104 C345.47 1104 397.94 1104 452 1104 C451.95040145 1055.53156176 451.95040145 1055.53156176 451.89883423 1007.06312561 C451.89749943 1005.83737574 451.89749943 1005.83737574 451.89613767 1004.58686324 C451.86612864 977.06180683 451.83341385 949.53675432 451.79867554 922.01170349 C451.7969751 920.66353259 451.7969751 920.66353259 451.79524031 919.28812591 C451.77058505 899.75207678 451.745492 880.21602824 451.71994839 860.67998025 C451.70742326 851.09858395 451.69499481 841.51718751 451.68261719 831.93579102 C451.68138386 830.98236067 451.68015054 830.02893032 451.67887984 829.04660815 C451.63899738 798.1801992 451.60549039 767.31378737 451.57531309 736.44736754 C451.54425092 704.71049137 451.50670985 672.97362924 451.46109388 641.2367705 C451.45464411 636.74731891 451.44826789 632.25786721 451.44193649 627.76841545 C451.44068819 626.88488472 451.43943988 626.00135399 451.43815375 625.0910496 C451.41830204 610.90673606 451.40521775 596.72242408 451.39470672 582.53810088 C451.38397655 568.25500951 451.36601556 553.97194138 451.34083296 539.68886805 C451.32611334 531.21800761 451.31677838 522.74718271 451.31543317 514.27630936 C451.31398191 508.59794795 451.30522254 502.91962634 451.29084408 497.24128308 C451.28288328 494.01855107 451.2789147 490.79591039 451.28172119 487.57316751 C451.29668169 467.00050098 450.5563143 446.40444013 447.25 426.0625 C447.08081055 425.00369629 446.91162109 423.94489258 446.73730469 422.85400391 C438.82344318 375.19512747 421.58653758 330.43135548 388 295 C387.30898193 294.26015869 387.30898193 294.26015869 386.60400391 293.50537109 C374.69675086 280.82588218 361.14218218 270.57050775 346 262 C345.33226563 261.61634277 344.66453125 261.23268555 343.9765625 260.83740234 C317.03664109 245.50134149 287.51894469 237.44739964 257 233 C256.22333984 232.88672363 255.44667969 232.77344727 254.64648438 232.65673828 C222.90602474 228.24679295 190.28321444 229.06946078 159 236 C157.63875 236.30115723 157.63875 236.30115723 156.25 236.60839844 C107.20926542 247.78376246 62.03326528 273.15933692 22 303 C21.2589502 303.55026855 20.51790039 304.10053711 19.75439453 304.66748047 C12.84686247 309.79353456 12.84686247 309.79353456 6 315 C5.15190256 315.42482422 4.30380512 315.84964844 3.43000776 316.28734612 C-0.60044679 320.7866026 0.31533208 325.92346503 0.36914349 331.75182724 C0.36373853 333.09526044 0.35614112 334.43868629 0.34654471 335.78209609 C0.32644078 339.49372632 0.33765558 343.20471655 0.35372983 346.91634237 C0.36570946 350.94657549 0.34878114 354.97670091 0.33544332 359.00691533 C0.31606307 366.07684069 0.31531004 373.14658018 0.32659721 380.21652031 C0.34329724 390.7292874 0.33146495 401.24188544 0.31368351 411.75464382 C0.2845885 429.43701712 0.27878617 447.11932701 0.28615379 464.80171967 C0.29337534 482.31529384 0.29030857 499.82881615 0.27343178 517.34238434 C0.27238913 518.4303916 0.27134648 519.51839887 0.27027224 520.63937605 C0.26492365 526.16457562 0.25939059 531.68977499 0.25378648 537.21497431 C0.21440102 576.37329764 0.19818811 615.53159981 0.19555664 654.68994141 C0.19294692 692.7371541 0.17986961 730.78433961 0.15258789 768.83154297 C0.15133325 770.59000465 0.15133325 770.59000465 0.15005327 772.38399081 C0.14164214 784.15654141 0.13301785 795.92909185 0.12423737 807.70164219 C0.10635457 831.68474061 0.08989474 855.66783993 0.07429504 879.65093994 C0.07321649 881.30507941 0.07321649 881.30507941 0.07211614 882.99263583 C0.05014691 916.80073269 0.03421024 950.60882864 0.0242157 984.41693115 C0.02392954 985.37698086 0.02364338 986.33703057 0.02334855 987.3261727 C0.0118477 1026.21744766 0.00672586 1065.10872399 0 1104 C51.81 1104 103.62 1104 157 1104 C157 1142.61 157 1181.22 157 1221 C-47.93 1221 -252.86 1221 -464 1221 C-464 1182.39 -464 1143.78 -464 1104 C-411.53 1104 -359.06 1104 -305 1104 C-304.91634035 1046.26747884 -304.91634035 1046.26747884 -304.84466553 988.53494263 C-304.84358205 987.56195683 -304.84249858 986.58897104 -304.84138228 985.58650083 C-304.80512974 952.83809562 -304.78533146 920.08970205 -304.77789307 887.34127808 C-304.77764612 886.27266785 -304.77739917 885.20405763 -304.77714474 884.10306528 C-304.7718673 860.88014696 -304.76925816 837.65722905 -304.76939832 814.43431015 C-304.7694508 803.04605048 -304.76891356 791.65779088 -304.76806641 780.26953125 C-304.76799214 779.13625324 -304.76791787 778.00297522 -304.76784136 776.83535545 C-304.76515704 740.09230479 -304.72351955 703.34942355 -304.6617147 666.60642877 C-304.59841581 628.85306095 -304.57434938 591.09986702 -304.59975622 553.3464497 C-304.60332515 548.01593855 -304.60644487 542.68542721 -304.60929108 537.35491562 C-304.60986515 536.30577863 -304.61043923 535.25664165 -304.6110307 534.17571263 C-304.61912164 517.2769066 -304.58576763 500.37842343 -304.53697294 483.47969647 C-304.48881827 466.49704278 -304.48418808 449.5148212 -304.52415326 432.53214224 C-304.54658047 422.43796546 -304.53546881 412.34511453 -304.4765914 402.25107766 C-304.44055716 395.50981238 -304.44798505 388.76950248 -304.49083779 382.02827937 C-304.51401901 378.18545126 -304.51822198 374.34518987 -304.46944699 370.50254394 C-303.39487067 354.97327799 -303.39487067 354.97327799 -308.55499697 341.10644889 C-311.36873871 338.42041573 -314.53048754 336.74628713 -318 335 C-320.11244636 333.49196645 -322.10418524 331.88252532 -324.125 330.25 C-325.2109173 329.41884249 -326.29787461 328.58903829 -327.38671875 327.76171875 C-331.59121964 324.55553606 -335.7647422 321.30983012 -339.9375 318.0625 C-340.70916504 317.46211914 -341.48083008 316.86173828 -342.27587891 316.24316406 C-347.41946718 312.23813331 -352.54974488 308.2165657 -357.67163086 304.18383789 C-362.43352129 300.43752622 -367.21522981 296.71702785 -372 293 C-377.90507595 288.41266751 -383.79692783 283.80942832 -389.671875 279.18359375 C-394.43374656 275.4374425 -399.21534584 271.71699161 -404 268 C-412.24682324 261.59265239 -420.46318111 255.14755352 -428.66796875 248.68652344 C-436.53318704 242.49426825 -444.42198104 236.33332254 -452.32714844 230.19213867 C-457.45559514 226.20631338 -462.56872578 222.2017276 -467.671875 218.18359375 C-471.66278106 215.04395893 -475.66654071 211.92122251 -479.67626953 208.80566406 C-481.21433139 207.61050694 -482.75177583 206.41455477 -484.28857422 205.21777344 C-487.93573854 202.37768469 -491.58852614 199.5458394 -495.2578125 196.734375 C-496.54691467 195.73963474 -497.83597931 194.74484584 -499.125 193.75 C-499.723125 193.29625 -500.32125 192.8425 -500.9375 192.375 C-502.32895232 191.29645801 -503.67059025 190.15414994 -505 189 C-505 188.34 -505 187.68 -505 187 C-479.60053595 177.43585481 -454.16509199 167.96988319 -428.7196579 158.52893066 C-407.79844182 150.76629678 -386.88906447 142.97382489 -366 135.125 C-345.66773354 127.48593008 -325.31165783 119.91348848 -304.94018555 112.37963867 C-289.7235951 106.75192597 -274.51454341 101.10439217 -259.3125 95.4375 C-257.74597183 94.85356979 -257.74597183 94.85356979 -256.14779663 94.25784302 C-250.88568024 92.29624853 -245.62370985 90.33426276 -240.36181641 88.37207031 C-230.65310368 84.7517963 -220.94329875 81.1344535 -211.23348999 77.51712036 C-209.07985615 76.71479495 -206.92623065 75.91244718 -204.77261353 75.1100769 C-189.47795624 69.41177659 -174.1817091 63.71776387 -158.88427734 58.0269165 C-144.25470728 52.58440865 -129.62691849 47.13712986 -115 41.6875 C-113.9392627 41.29230164 -112.87852539 40.89710327 -111.78564453 40.4899292 C-101.96764626 36.83200633 -92.14974691 33.17381803 -82.33203125 29.51513672 C-81.22960083 29.10430847 -80.12717041 28.69348022 -78.99133301 28.27020264 C-76.77281757 27.44344611 -74.55431167 26.616664 -72.33581543 25.78985596 C-66.92673542 23.77407147 -61.51738663 21.75901437 -56.10742188 19.74560547 C-54.0299378 18.9723579 -51.9524637 18.19908354 -49.875 17.42578125 C-48.868927 17.05128845 -47.862854 16.67679565 -46.82629395 16.29095459 C-41.12634969 14.16806708 -35.42932596 12.03761008 -29.73547363 9.8984375 C-26.42147636 8.65373205 -23.10621368 7.41242056 -19.79077148 6.17156982 C-18.28049859 5.60519737 -16.77087838 5.03708101 -15.26196289 4.46710205 C-13.22832646 3.69897663 -11.19259098 2.93670156 -9.15625 2.17578125 C-8.03025391 1.75208252 -6.90425781 1.32838379 -5.74414062 0.8918457 C-3 0 -3 0 0 0 Z " fill="#222222" transform="translate(4748,0)"/>
<path d="M0 0 C72.40067895 -1.53445452 144.65517676 18.53951911 200.28808594 66.06640625 C201.02542969 66.69160156 201.76277344 67.31679687 202.52246094 67.9609375 C215.79356298 79.56171119 228.62761565 92.09310884 239.03320312 106.35400391 C240.35986792 108.16435933 241.71606908 109.94977577 243.07714844 111.734375 C248.98803669 119.54747793 254.29190906 127.57978442 259.15234375 136.08447266 C260.32616889 138.13286313 261.52192498 140.16752729 262.71777344 142.203125 C284.55712281 179.89457934 296.60843378 223.01027088 302.53808594 265.94140625 C302.76467896 267.54761841 302.76467896 267.54761841 302.99584961 269.1862793 C303.50330708 273.13975363 303.90551718 277.09935226 304.28808594 281.06640625 C304.37144707 281.92097117 304.4548082 282.77553609 304.54069543 283.65599692 C306.93095666 309.54576279 306.57391136 335.51426373 306.54802505 361.48743842 C306.54146064 368.5255348 306.54686527 375.56361086 306.55266176 382.60170614 C306.56311818 395.5902956 306.5650332 408.57887205 306.56248093 421.56746483 C306.55904227 440.1397406 306.5724905 458.71198431 306.58925539 477.28425139 C306.59593196 484.7612058 306.60207255 492.23816068 306.60820961 499.71511555 C306.6092356 500.96064979 306.6092356 500.96064979 306.61028232 502.23134633 C306.62641627 521.94028022 306.63728081 541.64921608 306.64648438 561.3581543 C306.64689041 562.21912535 306.64729644 563.0800964 306.64771478 563.96715748 C306.6571444 584.05840658 306.66401027 604.14965455 306.66644287 624.24090576 C306.66654943 625.10558328 306.666656 625.9702608 306.66676579 626.86114067 C306.667299 631.22189521 306.66781375 635.58264975 306.66832717 639.94340429 C306.66842938 640.80535804 306.66853158 641.66731178 306.66863689 642.55538533 C306.66884245 644.29515057 306.669045 646.03491581 306.66924456 647.77468105 C306.67263195 676.5755853 306.68959516 705.37645707 306.7213461 734.17734442 C306.7258184 738.2510909 306.7301084 742.32483756 306.734272 746.39858437 C306.73509246 747.20012881 306.73591292 748.00167326 306.73675824 748.82750694 C306.74945174 761.66897349 306.74753782 774.51039749 306.73963756 787.35186621 C306.73192085 800.27141322 306.73844966 813.19088996 306.75927661 826.11042305 C306.77012144 833.09511753 306.77473873 840.07967229 306.76080513 847.06436539 C306.74863609 853.47640048 306.75529207 859.88814859 306.77599712 866.30015925 C306.7802521 868.60120579 306.77798028 870.90227735 306.76795594 873.20330598 C306.62370529 908.95221324 312.57582949 944.5023607 335.28808594 973.06640625 C335.98417969 973.9584375 336.68027344 974.85046875 337.39746094 975.76953125 C353.64538984 995.19374701 378.62315026 1005.14734009 403.28808594 1008.06640625 C408.41382259 1008.38070882 413.52916367 1008.45653254 418.66308594 1008.44140625 C419.71039886 1008.44059052 419.71039886 1008.44059052 420.77886963 1008.4397583 C463.30824681 1008.28831335 500.15604126 990.39713466 529.85058594 960.62890625 C531.52377774 958.93471011 533.19164312 957.23560682 534.85498047 955.53173828 C536.65124306 953.69508274 538.46708314 951.87850439 540.28808594 950.06640625 C542.09773651 1009.44975473 521.33029116 1067.90434373 484.28808594 1114.06640625 C483.11439453 1115.54947266 483.11439453 1115.54947266 481.91699219 1117.0625 C469.92909401 1131.74346734 456.3412122 1145.67014704 440.984375 1156.82763672 C439.17926086 1158.14587926 437.40125049 1159.49599494 435.62402344 1160.8515625 C427.19597998 1167.23149606 418.52231201 1172.92494586 409.28808594 1178.06640625 C408.4634082 1178.52660156 407.63873047 1178.98679687 406.7890625 1179.4609375 C371.45698262 1198.97402788 334.21826841 1210.09571019 294.28808594 1215.06640625 C293.45446533 1215.17243164 292.62084473 1215.27845703 291.76196289 1215.38769531 C282.12657774 1216.4405779 272.40630046 1216.31027138 262.72558594 1216.31640625 C261.76889008 1216.31708099 260.81219421 1216.31775574 259.82650757 1216.31845093 C244.45466771 1216.30126384 229.46898109 1215.69130799 214.28808594 1213.06640625 C213.2890625 1212.8947998 212.29003906 1212.72319336 211.26074219 1212.54638672 C153.23066806 1202.20631459 97.7481288 1172.0727425 61.28808594 1125.06640625 C60.28184516 1123.80056686 59.27531485 1122.5349576 58.26855469 1121.26953125 C39.39440382 1097.32729509 24.93456023 1070.61180627 14.28808594 1042.06640625 C9.07822064 1041.76701076 3.87347135 1041.55083918 -1.34301758 1041.40722656 C-3.11180904 1041.34731666 -4.88001718 1041.26574397 -6.64672852 1041.16113281 C-17.54913337 1040.24457869 -17.54913337 1040.24457869 -27.15087891 1044.50976562 C-30.0499243 1047.43407607 -32.36097731 1050.69371018 -34.71191406 1054.06640625 C-35.92667967 1055.49590161 -37.15974807 1056.91026524 -38.41894531 1058.30078125 C-38.96115723 1058.92533203 -39.50336914 1059.54988281 -40.06201172 1060.19335938 C-43.09743244 1063.63931199 -46.24773919 1066.97702132 -49.39941406 1070.31640625 C-50.09421875 1071.05294434 -50.78902344 1071.78948242 -51.50488281 1072.54833984 C-66.93788696 1088.85015971 -66.93788696 1088.85015971 -75.46582031 1096.1015625 C-77.92905267 1098.25635533 -80.31151821 1100.48451935 -82.6965332 1102.72509766 C-89.15945635 1108.79352957 -95.77049088 1114.54524716 -102.71191406 1120.06640625 C-103.84045949 1120.98582502 -104.96800945 1121.90646661 -106.09472656 1122.828125 C-125.39400928 1138.54864659 -145.88800219 1152.43824852 -167.48876953 1164.79394531 C-168.98531407 1165.65052231 -170.4790916 1166.51194979 -171.97021484 1167.37792969 C-221.41881353 1196.01983009 -278.54269126 1212.50795402 -335.71191406 1214.06640625 C-336.43411133 1214.08832031 -337.15630859 1214.11023437 -337.90039062 1214.1328125 C-400.01530796 1215.76813283 -465.3320932 1196.90105291 -513.71191406 1157.06640625 C-515.18337891 1155.89851563 -515.18337891 1155.89851563 -516.68457031 1154.70703125 C-531.96259492 1142.26828555 -546.21264235 1128.08742548 -557.71191406 1112.06640625 C-558.47246094 1111.02742188 -559.23300781 1109.9884375 -560.01660156 1108.91796875 C-598.0566144 1055.60930024 -610.5085366 989.48090165 -600.44604492 925.24243164 C-590.53537491 866.62304255 -560.40152449 817.94434573 -519.09707642 776.27734375 C-517.69307494 774.8604675 -516.29264548 773.44005445 -514.89233398 772.01953125 C-508.81015046 765.93023918 -502.43861277 760.42782212 -495.71191406 755.06640625 C-493.87582264 753.5071482 -492.04186442 751.94536692 -490.21191406 750.37890625 C-477.40711777 739.69993865 -463.72093938 730.09151806 -449.71191406 721.06640625 C-449.00131836 720.60556641 -448.29072266 720.14472656 -447.55859375 719.66992188 C-435.19953371 711.67256899 -422.57707429 704.21826991 -409.71191406 697.06640625 C-408.79345703 696.5549707 -407.875 696.04353516 -406.92871094 695.51660156 C-384.4540546 683.05225346 -361.56177407 671.51877593 -338.08691406 661.06640625 C-337.10241272 660.62655899 -337.10241272 660.62655899 -336.09802246 660.17782593 C-304.76875247 646.22471373 -272.83311718 633.65415868 -240.95861816 621.01675415 C-229.06443669 616.30086043 -217.17527804 611.57232289 -205.28613281 606.84375 C-204.06424885 606.35786093 -202.84236488 605.87197186 -201.58345413 605.37135887 C-174.51640652 594.60648176 -147.48552157 583.75228521 -120.46191406 572.87890625 C-118.23301602 571.98215727 -116.00411386 571.08541854 -113.77520752 570.18869019 C-112.6781675 569.74732947 -111.58112747 569.30596876 -110.45084381 568.85123348 C-104.98451266 566.65204771 -99.51814562 564.45295118 -94.05175781 562.25390625 C-92.98798164 561.82593309 -91.92420547 561.39795994 -90.82819366 560.9570179 C-67.9051987 551.73530982 -44.96736988 542.5508241 -22.02441406 533.37890625 C-21.15217697 533.03019596 -20.27993988 532.68148567 -19.38127136 532.3222084 C-9.15875436 528.23543364 1.06429202 524.14998558 11.28808594 520.06640625 C11.31165262 503.86086137 11.32917999 487.65532222 11.33989811 471.44976425 C11.34501135 463.92190725 11.35195674 456.39406102 11.36352539 448.86621094 C11.37362683 442.28984133 11.37997529 435.71347952 11.38217443 429.13710237 C11.38345589 425.66870037 11.38637236 422.20032067 11.39381599 418.73192596 C11.46368518 383.81673089 11.46368518 383.81673089 9.03808594 349.00390625 C8.90950195 347.77260986 8.78091797 346.54131348 8.6484375 345.27270508 C3.24418122 296.50646873 -11.76297416 247.82458355 -46.71191406 212.06640625 C-47.57171875 211.14472656 -48.43152344 210.22304687 -49.31738281 209.2734375 C-60.71166521 197.34057751 -74.11954089 188.61330203 -88.71191406 181.06640625 C-89.31438965 180.75219727 -89.91686523 180.43798828 -90.53759766 180.11425781 C-150.73993975 149.16249126 -231.4089542 152.99066628 -295.71191406 169.06640625 C-296.04191406 256.51640625 -296.37191406 343.96640625 -296.71191406 434.06640625 C-402.31191406 434.06640625 -507.91191406 434.06640625 -616.71191406 434.06640625 C-613.10061751 423.83439934 -609.59191868 413.96111389 -605.14941406 404.12890625 C-604.63620605 402.98703857 -604.12299805 401.8451709 -603.59423828 400.66870117 C-580.86785231 350.56813216 -551.08123401 303.93840384 -515.30957031 262.1328125 C-512.98538665 259.40869639 -510.75267822 256.61970632 -508.52441406 253.81640625 C-502.65692114 246.61016271 -496.17925434 239.96944485 -489.77294922 233.24511719 C-487.81202883 231.17223711 -485.87302504 229.08153658 -483.94238281 226.98046875 C-475.60442416 217.92339579 -466.89043769 209.40129552 -457.84814453 201.04980469 C-455.70685007 199.06170455 -453.58385547 197.05581159 -451.46582031 195.04296875 C-444.97490521 188.8818162 -438.4688307 182.86748572 -431.46191406 177.2890625 C-428.86582993 175.190807 -426.34594923 173.02909281 -423.83105469 170.83544922 C-416.1416782 164.13845867 -408.15327783 157.91038976 -400.00097656 151.7890625 C-397.65809628 150.02590516 -395.325089 148.25027116 -392.99316406 146.47265625 C-372.93290121 131.23096769 -352.24958848 117.13732315 -330.71191406 104.06640625 C-329.78523926 103.50324707 -328.85856445 102.94008789 -327.90380859 102.35986328 C-282.73202116 75.02263208 -235.40984022 52.76061983 -185.71191406 35.06640625 C-184.53064941 34.64375488 -183.34938477 34.22110352 -182.13232422 33.78564453 C-123.79229016 13.09315037 -61.8737782 1.51509432 0 0 Z M3.62792969 616.94140625 C2.14512517 617.59136393 0.66229494 618.24126296 -0.82055664 618.89111328 C-1.62296783 619.24353088 -2.42537903 619.59594849 -3.25210571 619.95904541 C-19.92384538 627.27838511 -36.64460135 634.48000151 -53.38687134 641.63635254 C-84.00567075 654.72592461 -114.5790967 667.88467194 -144.71191406 682.06640625 C-146.47293457 682.89156738 -146.47293457 682.89156738 -148.26953125 683.73339844 C-163.92935568 691.08266671 -179.24946255 698.84298531 -194.18701172 707.59082031 C-196.56572537 708.98097167 -198.95480772 710.35092616 -201.34863281 711.71484375 C-211.16061453 717.33954665 -220.52654213 723.4704558 -229.71191406 730.06640625 C-230.72366699 730.78981201 -230.72366699 730.78981201 -231.75585938 731.52783203 C-240.69257639 737.95573646 -249.09100662 744.72228306 -256.98876953 752.39453125 C-258.1977848 753.56757411 -259.41356745 754.73366312 -260.63427734 755.89453125 C-295.36042525 788.94945704 -313.0895464 831.3079582 -314.71191406 879.06640625 C-314.75316406 880.11570312 -314.79441406 881.165 -314.83691406 882.24609375 C-315.58387633 918.94061519 -303.80842057 953.95494566 -278.47705078 980.75073242 C-270.66440286 988.77226928 -262.29876814 995.30282838 -252.71191406 1001.06640625 C-251.99583984 1001.49791992 -251.27976562 1001.92943359 -250.54199219 1002.37402344 C-226.97885741 1016.26943405 -198.91011148 1024.12025061 -171.51660156 1024.26953125 C-170.2243718 1024.2801207 -170.2243718 1024.2801207 -168.90603638 1024.29092407 C-142.66353395 1024.52283838 -142.66353395 1024.52283838 -116.71191406 1021.06640625 C-115.71981934 1020.87304688 -114.72772461 1020.6796875 -113.70556641 1020.48046875 C-68.45983031 1011.53485868 -29.92379487 990.39180242 5.28808594 961.06640625 C6.31621714 960.47744473 7.34434834 959.88848322 8.40363503 959.28167439 C10.66721334 957.36514242 11.2390166 956.30729723 11.8385551 953.3640455 C12.04864195 949.72420628 12.05802521 946.1272552 12.00961304 942.48149109 C12.01222968 941.06648703 12.01748352 939.6514858 12.02514803 938.23650008 C12.0385727 934.34808638 12.01455503 930.46066313 11.98447967 926.57237566 C11.95858756 922.37951394 11.96733579 918.18670883 11.97189331 913.99378967 C11.97504064 906.72930842 11.9562034 899.46515032 11.92246628 892.20075035 C11.87371995 881.6976831 11.85807925 871.19477223 11.85053833 860.69160412 C11.83740402 843.65132912 11.79746752 826.61122638 11.74072266 809.57104492 C11.68565509 793.01734276 11.64318132 776.46368737 11.61767578 759.90991211 C11.61609944 758.88967324 11.6145231 757.86943437 11.61289899 756.81827917 C11.60506881 751.70008027 11.59748655 746.58188103 11.59002757 741.46368158 C11.52781933 698.99780381 11.42213347 656.53211392 11.28808594 614.06640625 C8.76304108 614.06640625 5.94361446 615.91972738 3.62792969 616.94140625 Z " fill="#222222" transform="translate(3743.7119140625,23.93359375)"/>
<path d="M0 0 C2.14299312 1.93940878 4.32719638 3.81438674 6.53125 5.68359375 C9.81094074 8.544322 12.65157622 11.60727222 15.45703125 14.9296875 C16.77062072 16.45540943 18.12604952 17.94567973 19.51171875 19.40625 C79.16040712 82.3633485 98.52526982 174.29756229 98.48178101 258.25747681 C98.48420342 260.6728903 98.48706703 263.08830337 98.49033034 265.50371587 C98.49643151 270.72915812 98.49954438 275.95459304 98.49995613 281.18003845 C98.50060494 288.95114212 98.50702451 296.72223371 98.51470293 304.49333324 C98.52674391 316.77526335 98.53542419 329.05719291 98.54174107 341.3391272 C98.55180647 360.84403748 98.57107676 380.34893048 98.59328346 399.85383034 C98.6018114 407.37205805 98.61007872 414.89028606 98.61838722 422.40851402 C98.61977474 423.66124291 98.61977474 423.66124291 98.62119028 424.93927945 C98.64315488 444.7949671 98.66295808 464.65065666 98.68164062 484.50634766 C98.68287014 485.8085896 98.68287014 485.8085896 98.6841245 487.13713945 C98.70320398 507.38654989 98.72016855 527.63596022 98.73248291 547.88537598 C98.73301258 548.75608897 98.73354225 549.62680197 98.73408796 550.52390021 C98.73833976 557.54266348 98.74251594 564.56142681 98.74667276 571.58019014 C98.76389615 600.56246415 98.79113876 629.54471438 98.82983314 658.52696796 C98.83529414 662.62538384 98.84062722 666.72379988 98.84587479 670.82221603 C98.84742636 672.03194345 98.84742636 672.03194345 98.84900927 673.26610981 C98.86528418 686.20484266 98.87085991 699.14355875 98.87217245 712.08230086 C98.87368197 725.100817 98.8859115 738.1192879 98.90892886 751.13778408 C98.92223937 758.85598953 98.92736846 766.57409594 98.9203825 774.29231026 C98.91607127 780.07794424 98.92753743 785.86346612 98.94477279 791.6490721 C98.94931034 793.9726412 98.94893076 796.29622691 98.94282441 798.61979242 C98.86255779 832.18735666 103.04671795 868.73365363 124.34375 896.12109375 C124.74287598 896.64606445 125.14200195 897.17103516 125.55322266 897.71191406 C139.36975478 915.72246796 157.60887086 926.08743645 179.34375 932.12109375 C180.45621094 932.44078125 181.56867188 932.76046875 182.71484375 933.08984375 C219.44908616 941.7805298 259.56228809 932.08487523 291.34375 913.12109375 C302.95700958 905.90432133 312.73299753 896.7947644 322.34375 887.12109375 C325.67708333 883.78776042 329.01041667 880.45442708 332.34375 877.12109375 C334.10500628 942.80942973 309.5485977 1005.49244999 265.3984375 1053.84375 C263.63809202 1055.79485535 261.95190677 1057.78122919 260.28125 1059.80859375 C257.62917454 1062.92442011 254.70016122 1065.54892323 251.58203125 1068.19140625 C249.10160188 1070.3298567 246.73168455 1072.56744378 244.34375 1074.80859375 C201.49196194 1113.71660461 143.33874753 1135.9883645 86.34375 1142.12109375 C85.56241699 1142.21535645 84.78108398 1142.30961914 83.97607422 1142.40673828 C74.46362514 1143.44065993 64.90085764 1143.36486659 55.34375 1143.37109375 C53.94663788 1143.37210587 53.94663788 1143.37210587 52.52130127 1143.37313843 C-18.89538783 1143.29122626 -82.87756564 1117.43041996 -133.65625 1067.12109375 C-140.95169106 1059.6514332 -147.37013015 1051.44296244 -153.65625 1043.12109375 C-154.12933594 1042.49912109 -154.60242187 1041.87714844 -155.08984375 1041.23632812 C-171.61251772 1019.3180384 -183.64322082 994.58076274 -193.65625 969.12109375 C-198.8845074 968.84699168 -204.10850244 968.6486247 -209.34228516 968.5168457 C-211.11776628 968.46187575 -212.89275737 968.38706246 -214.66650391 968.29125977 C-225.29795435 967.52245001 -225.29795435 967.52245001 -234.86816406 971.33740234 C-237.4174886 974.13354478 -239.54212418 976.98689634 -241.65625 980.12109375 C-242.8640509 981.54686 -244.09251276 982.95557238 -245.34765625 984.33984375 C-246.17547607 985.29117187 -246.17547607 985.29117187 -247.02001953 986.26171875 C-255.0383095 995.37352066 -263.53031722 1004.08676935 -272.09375 1012.68359375 C-272.73111084 1013.32554688 -273.36847168 1013.9675 -274.02514648 1014.62890625 C-277.81637212 1018.40780511 -281.72829188 1021.99033906 -285.77905273 1025.48901367 C-288.39876826 1027.76665684 -290.9285743 1030.13000002 -293.46875 1032.49609375 C-299.0129027 1037.61114602 -304.76604204 1042.40736913 -310.65625 1047.12109375 C-311.78708957 1048.0434975 -312.91726515 1048.96671571 -314.046875 1049.890625 C-335.38834747 1067.26843389 -358.16429991 1082.45016915 -382.23535156 1095.77929688 C-383.75371844 1096.62086044 -385.2691777 1097.46771493 -386.78027344 1098.32226562 C-457.66113427 1138.39895029 -547.55460579 1152.89503973 -626.546875 1131.58203125 C-669.18376076 1119.58312624 -707.65269167 1098.83812698 -739.65625 1068.12109375 C-740.49953857 1067.31865234 -740.49953857 1067.31865234 -741.35986328 1066.5 C-749.42310851 1058.79062063 -756.73749642 1050.80616059 -763.38134766 1041.84033203 C-764.6189598 1040.17138053 -765.87678819 1038.51931822 -767.13671875 1036.8671875 C-789.13486095 1007.55234789 -802.93011886 972.19966896 -808.65625 936.12109375 C-808.82181396 935.09822266 -808.82181396 935.09822266 -808.99072266 934.0546875 C-817.00579163 882.45531432 -808.38844353 828.92496921 -785.65625 782.12109375 C-785.30868652 781.40002441 -784.96112305 780.67895508 -784.60302734 779.93603516 C-776.16669994 762.65097326 -765.23287381 746.51426856 -752.97314453 731.71435547 C-751.68409913 730.15478738 -750.41815566 728.57844329 -749.15234375 727 C-742.45937238 718.80406744 -735.04928236 711.3034493 -727.59375 703.80859375 C-726.83356064 703.04050385 -726.83356064 703.04050385 -726.05801392 702.25689697 C-719.2598292 695.4041641 -712.20966881 689.14864682 -704.65625 683.12109375 C-703.55452979 682.18618699 -702.45819949 681.24482966 -701.37109375 680.29296875 C-678.18628382 660.07555362 -651.33897688 643.29643087 -624.65625 628.12109375 C-623.91213867 627.6945752 -623.16802734 627.26805664 -622.40136719 626.82861328 C-583.3145802 604.47436536 -542.35686011 585.91997566 -500.71875 568.91015625 C-499.78101305 568.52670485 -498.8432761 568.14325344 -497.87712288 567.7481823 C-476.40558697 558.97318265 -454.85511682 550.39876685 -433.2953186 541.84347534 C-421.53010518 537.17460697 -409.76870897 532.49613646 -398.0078125 527.81640625 C-396.79970476 527.33572882 -395.59159702 526.85505138 -394.34687996 526.35980797 C-367.02899544 515.48868571 -339.745547 504.53232524 -312.46875 493.55859375 C-311.3501786 493.10860519 -310.23160721 492.65861664 -309.07913971 492.19499207 C-303.53785232 489.96579111 -297.99660177 487.73649857 -292.45535278 485.50720215 C-291.38514011 485.07665024 -290.31492744 484.64609833 -289.21228409 484.20249939 C-287.08135858 483.34520069 -284.95044567 482.48787069 -282.81954575 481.63050842 C-254.11645346 470.08228919 -225.38781938 458.5982389 -196.65625 447.12109375 C-196.63268331 430.91554887 -196.61515595 414.71000972 -196.60443783 398.50445175 C-196.59932458 390.97659475 -196.5923792 383.44874852 -196.58081055 375.92089844 C-196.5707091 369.34452883 -196.56436065 362.76816702 -196.56216151 356.19178987 C-196.56088005 352.72338787 -196.55796358 349.25500817 -196.55051994 345.78661346 C-196.48112965 310.87144473 -196.48112965 310.87144473 -198.90625 276.05859375 C-199.09803833 274.21599976 -199.09803833 274.21599976 -199.29370117 272.33618164 C-201.52302711 252.17402862 -205.38273601 232.41884861 -211.65625 213.12109375 C-211.93807129 212.24179199 -212.21989258 211.36249023 -212.51025391 210.45654297 C-221.27744958 183.54497989 -234.86508383 159.40128583 -254.65625 139.12109375 C-255.48125 138.22261719 -256.30625 137.32414063 -257.15625 136.3984375 C-292.73256103 98.7070714 -347.14758468 87.01953348 -396.95141602 85.2980957 C-429.01291548 84.38786874 -461.14242011 88.01348114 -492.6184082 93.90185547 C-493.47909912 94.06186035 -494.33979004 94.22186523 -495.2265625 94.38671875 C-495.96664551 94.52883789 -496.70672852 94.67095703 -497.46923828 94.81738281 C-499.65625 95.12109375 -499.65625 95.12109375 -504.65625 95.12109375 C-504.65625 182.90109375 -504.65625 270.68109375 -504.65625 361.12109375 C-610.25625 361.12109375 -715.85625 361.12109375 -824.65625 361.12109375 C-821.04495345 350.88908684 -817.53625462 341.01580139 -813.09375 331.18359375 C-812.58054199 330.04172607 -812.06733398 328.8998584 -811.53857422 327.72338867 C-802.06463459 306.83798406 -791.53513989 286.737037 -779.65625 267.12109375 C-779.2015332 266.36650879 -778.74681641 265.61192383 -778.27832031 264.83447266 C-764.53334034 242.1145807 -749.05005468 220.28995102 -732.09619141 199.86083984 C-730.0767868 197.42098274 -728.08754039 194.95689811 -726.09375 192.49609375 C-716.91936581 181.32002574 -707.39106457 170.55564026 -697.46484375 160.04296875 C-695.61424475 158.07645751 -693.77436216 156.10043788 -691.9375 154.12109375 C-684.12870983 145.70677041 -676.37230391 137.39270258 -667.65625 129.90234375 C-665.57287922 128.04684165 -663.61343793 126.10886274 -661.65625 124.12109375 C-657.82020621 120.24070264 -653.79448895 116.67385838 -649.65625 113.12109375 C-648.57479164 112.17661555 -647.49413062 111.23122396 -646.4140625 110.28515625 C-632.86674963 98.44019069 -619.06322337 86.91069799 -604.65625 76.12109375 C-603.98464844 75.61674805 -603.31304687 75.11240234 -602.62109375 74.59277344 C-568.51830466 49.04618501 -532.79027043 26.43992396 -495.1640625 6.4609375 C-493.03604264 5.32400477 -490.92085098 4.16892103 -488.8125 2.99609375 C-419.08666532 -35.38509965 -338.81670578 -60.00770281 0 0 Z M-205.84765625 544.65234375 C-207.64989332 545.43914827 -209.45213991 546.22593099 -211.25439453 547.01269531 C-212.22266174 547.43619263 -213.19092896 547.85968994 -214.1885376 548.29602051 C-232.31963481 556.22451811 -250.48847315 564.06126181 -268.68643188 571.83496094 C-372.88107103 614.22191723 -372.88107103 614.22191723 -463.97265625 678.625 C-466.25909973 680.75169197 -468.58612084 682.79181936 -470.96875 684.80859375 C-474.93840444 688.27390684 -478.31676687 692.05130616 -481.65625 696.12109375 C-482.47996094 697.10722656 -483.30367187 698.09335937 -484.15234375 699.109375 C-514.17245744 735.69064147 -526.57223194 782.93658413 -522.140625 829.84130859 C-518.45688357 862.72637536 -504.14397848 893.98667369 -478.53125 915.62109375 C-450.32796751 937.86206896 -415.65467554 951.01140697 -379.5390625 951.359375 C-378.69257141 951.36916885 -377.84608032 951.37896271 -376.97393799 951.38905334 C-357.50201215 951.56776731 -338.78622395 951.16224228 -319.65625 947.12109375 C-318.15602295 946.81558594 -318.15602295 946.81558594 -316.62548828 946.50390625 C-274.29585799 937.65707496 -236.95608162 916.47118996 -203.98828125 889.05859375 C-201.65625 887.12109375 -201.65625 887.12109375 -199.04895049 885.36458325 C-196.44360682 883.33905424 -196.44360682 883.33905424 -196.03525752 880.43138576 C-196.03810542 878.87529184 -196.03810542 878.87529184 -196.04101086 877.28776169 C-196.03105561 876.08847621 -196.02110037 874.88919073 -196.01084346 873.65356326 C-196.02540766 872.33451031 -196.03997187 871.01545736 -196.05497742 869.65643311 C-196.05279754 868.24229426 -196.04842057 866.82815736 -196.04203159 865.41403127 C-196.03083175 861.52347263 -196.0508773 857.63359998 -196.07592189 853.74312878 C-196.09748006 849.54956753 -196.09020976 845.35604612 -196.08641052 841.16244507 C-196.08378659 833.89525917 -196.09949663 826.62829742 -196.12759972 819.36116791 C-196.16820568 808.85411029 -196.18125395 798.34716126 -196.18753967 787.84003368 C-196.19848743 770.79368494 -196.23177465 753.74745571 -196.27905273 736.70117188 C-196.32493589 720.14063109 -196.36033389 703.58012275 -196.3815918 687.01953125 C-196.38290541 685.99902966 -196.38421903 684.97852806 -196.38557246 683.92710218 C-196.39209756 678.80763255 -196.39841612 673.68816269 -196.40463197 668.56869268 C-196.45647995 626.08607691 -196.54455831 583.60359149 -196.65625 541.12109375 C-199.57335996 541.12109375 -203.14681054 543.46707969 -205.84765625 544.65234375 Z " fill="#222222" transform="translate(7505.65625,97.87890625)"/>
<path d="M0 0 C1.07121094 0.67417969 2.14242187 1.34835938 3.24609375 2.04296875 C9.5723707 6.15811978 15.6593174 10.6094369 21.75 15.0625 C22.542854 15.6404834 23.33570801 16.2184668 24.15258789 16.81396484 C29.33262191 20.63756864 34.21093421 24.6992672 39 29 C45.15051005 25.70770835 50.9837474 22.12693349 56.73828125 18.1875 C57.55967087 17.63018188 58.38106049 17.07286377 59.2273407 16.49865723 C60.99818294 15.29704639 62.76799461 14.09391562 64.53686523 12.8894043 C69.34758174 9.61469808 74.16740809 6.35347938 78.98828125 3.09375 C79.98425323 2.42025513 80.98022522 1.74676025 82.00637817 1.05285645 C92.28132774 -5.88388314 102.63511542 -12.69869298 113 -19.5 C130.38616906 -30.90975919 147.65645383 -42.48272389 164.86132812 -54.1640625 C166.17717644 -55.055774 166.17717644 -55.055774 167.51960754 -55.96549988 C169.16575799 -57.08122617 170.81058801 -58.19890384 172.4539032 -59.31880188 C173.17447403 -59.80696884 173.89504486 -60.2951358 174.63745117 -60.7980957 C175.26640793 -61.22580765 175.89536469 -61.65351959 176.54338074 -62.0941925 C178 -63 178 -63 179 -63 C179 83.52 179 230.04 179 381 C176.29209279 378.29209279 174.4371771 376.40179867 172.44140625 373.33984375 C171.97992187 372.63851318 171.5184375 371.93718262 171.04296875 371.21459961 C170.55441406 370.46315674 170.06585937 369.71171387 169.5625 368.9375 C168.49187279 367.3118493 167.42022421 365.68687089 166.34765625 364.0625 C165.79609863 363.22589844 165.24454102 362.38929688 164.67626953 361.52734375 C156.48119909 349.17147874 147.97115556 337.02477332 139.38037109 324.94189453 C138.09114884 323.12822742 136.805056 321.31238244 135.51953125 319.49609375 C113.11838253 287.91280039 89.5491969 257.06291034 64.38574219 227.62402344 C62.94270908 225.93285779 61.50625183 224.23625381 60.0703125 222.5390625 C53.76107739 215.10325168 47.27096541 207.87889751 40.61157227 200.75512695 C39.45990413 199.5008712 38.32403363 198.23203549 37.19897461 196.95385742 C30.46354879 189.32048134 23.29555474 182.14376631 16.08862305 174.95825195 C13.93487478 172.80988134 11.78654774 170.65619306 9.63867188 168.50195312 C8.24771646 167.11165832 6.85645097 165.72167364 5.46484375 164.33203125 C4.519188 163.38333916 4.519188 163.38333916 3.5544281 162.41548157 C-0.80339394 158.08014122 -5.34431452 154.01159141 -10 150 C-11.1565484 148.97837149 -12.311749 147.95521249 -13.46484375 146.9296875 C-22.64712932 138.82689832 -32.18786212 131.32193622 -42 124 C-43.27087372 123.04172022 -44.5417084 122.08338867 -45.8125 121.125 C-60.4695432 110.14526799 -75.83894426 100.60030635 -92 92 C-92.64195312 91.65372559 -93.28390625 91.30745117 -93.9453125 90.95068359 C-120.02687962 76.96185144 -147.77452879 68.20851354 -177 64 C-177.69834961 63.8954248 -178.39669922 63.79084961 -179.11621094 63.68310547 C-186.62131819 62.69410147 -194.19277075 62.75627695 -201.75 62.75 C-202.84698212 62.74898788 -202.84698212 62.74898788 -203.96612549 62.74795532 C-245.22670033 62.80822345 -285.86788272 75.66600634 -315.90234375 104.8125 C-341.46524735 130.57467787 -353.08193733 166.87135395 -353.375 202.625 C-353.04261132 242.99511557 -335.42862725 275.7835727 -307.19140625 303.78515625 C-254.97364106 353.02714649 -180.56472476 378.17576158 -115.16650391 404.47436523 C-73.28550246 421.31702704 -31.61825969 438.50048455 8.88769531 458.46728516 C11.73026352 459.86716304 14.57885585 461.25377341 17.4296875 462.63671875 C50.93380856 478.99692772 82.73371299 498.9085951 112 522 C113.01707031 522.80179688 114.03414063 523.60359375 115.08203125 524.4296875 C121.45980717 529.55745583 127.49322422 535.02474168 133.47949219 540.59716797 C134.98640572 541.98745781 136.50925246 543.35763283 138.0390625 544.72265625 C145.15978907 551.09709577 151.69446632 557.82104158 158 565 C158.44166504 565.49693359 158.88333008 565.99386719 159.33837891 566.50585938 C172.80883 581.71237079 183.94716572 598.37854504 194 616 C194.38526855 616.6712793 194.77053711 617.34255859 195.16748047 618.03417969 C218.14708452 658.41753095 230.00190918 707.50634222 230.203125 753.81640625 C230.21013931 754.90321686 230.21715363 755.99002747 230.22438049 757.10977173 C230.24177472 760.59405718 230.2482319 764.07817273 230.25 767.5625 C230.25101212 769.34752426 230.25101212 769.34752426 230.25204468 771.16860962 C230.23658198 788.30922213 229.8968181 805.06672961 227 822 C226.83371094 823.03302246 226.66742187 824.06604492 226.49609375 825.13037109 C217.63093731 879.34736948 195.97992006 931.03077664 163 975 C162.57557617 975.57314941 162.15115234 976.14629883 161.71386719 976.73681641 C155.2112522 985.50242251 148.2147316 993.81619767 141 1002 C140.16210938 1002.95132812 139.32421875 1003.90265625 138.4609375 1004.8828125 C127.36896035 1017.21104716 115.80641731 1029.8092684 102.6171875 1039.91796875 C100.25169789 1041.7997687 98.02738573 1043.75990097 95.78515625 1045.78515625 C91.22300265 1049.86408669 86.47088122 1053.59888756 81.5625 1057.25 C80.25671997 1058.22259766 80.25671997 1058.22259766 78.92456055 1059.21484375 C38.78001934 1088.88515354 -5.89859185 1111.64232275 -53 1128 C-54.64742188 1128.57379395 -54.64742188 1128.57379395 -56.328125 1129.15917969 C-92.06527097 1141.45955299 -128.97758406 1149.47573105 -166.4375 1154.25 C-167.61860352 1154.40122314 -168.79970703 1154.55244629 -170.01660156 1154.70825195 C-174.00688977 1155.18690275 -178.00022569 1155.61053941 -182 1156 C-183.33150589 1156.1308046 -183.33150589 1156.1308046 -184.68991089 1156.26425171 C-202.6316861 1157.9697679 -220.50802239 1158.36487188 -238.51366425 1158.31805801 C-240.72397434 1158.31240674 -242.93427671 1158.30959263 -245.14459229 1158.30697632 C-268.20158396 1158.2673514 -291.07849798 1157.67247923 -314 1155 C-314.75941895 1154.91278687 -315.51883789 1154.82557373 -316.30126953 1154.73571777 C-389.93015719 1146.22213871 -462.15961535 1127.49752067 -578 1070 C-579.46439925 1069.12035334 -580.92921183 1068.24139422 -582.39453125 1067.36328125 C-597.54902971 1058.18928669 -611.70380276 1047.69244835 -625 1036 C-625.82628906 1035.28457031 -626.65257813 1034.56914063 -627.50390625 1033.83203125 C-634.96293887 1027.36041976 -634.96293887 1027.36041976 -635.24839699 1024.58433712 C-635.24763755 1023.55833278 -635.24687811 1022.53232845 -635.24609566 1021.47523308 C-635.25007775 1020.29386328 -635.25405985 1019.11249347 -635.25816262 1017.89532459 C-635.25233693 1016.58600975 -635.24651125 1015.27669491 -635.24050903 1013.92770386 C-635.24138046 1012.53179443 -635.24313028 1011.13588531 -635.24568737 1009.73997796 C-635.2501773 1005.89072319 -635.24213476 1002.0415789 -635.23213124 998.19233823 C-635.22352263 994.04645866 -635.22641506 989.9005857 -635.22793579 985.75469971 C-635.22898629 978.56722402 -635.22269252 971.37978454 -635.21146011 964.19231796 C-635.19523033 953.80035549 -635.1899997 943.4084106 -635.18748413 933.01643683 C-635.18310306 916.15759509 -635.16978279 899.29877266 -635.15087891 882.43994141 C-635.13253076 866.05973406 -635.11836905 849.67953195 -635.10986328 833.29931641 C-635.10933783 832.29023735 -635.10881239 831.28115829 -635.10827102 830.24150108 C-635.10566101 825.1794263 -635.10313358 820.11735148 -635.10064721 815.05527663 C-635.07990188 773.03683765 -635.04466515 731.01841993 -635 689 C-632.25106999 691.62254585 -630.68182376 694.19008147 -628.91796875 697.57421875 C-628.32298584 698.70448486 -627.72800293 699.83475098 -627.11499023 700.99926758 C-626.80133514 701.59994049 -626.48768005 702.2006134 -626.16452026 702.81948853 C-619.36417233 715.82139693 -612.19781813 728.57458713 -604.68115234 741.17773438 C-603.08515934 743.85703719 -601.50496865 746.54514602 -599.92578125 749.234375 C-592.33891129 762.03070623 -584.17719323 774.43079149 -575.9375 786.8125 C-575.39468384 787.62985626 -574.85186768 788.44721252 -574.29260254 789.28933716 C-564.00975039 804.75109727 -553.28979788 819.87984888 -542 834.625 C-541.33194336 835.49906494 -540.66388672 836.37312988 -539.97558594 837.27368164 C-527.55890521 853.44990657 -514.55230854 869.14681841 -500.66796875 884.0859375 C-498.66581929 886.27276546 -496.71702158 888.48002767 -494.78222656 890.72485352 C-491.27113294 894.74230563 -487.59433436 898.55087541 -483.81640625 902.31640625 C-483.15720688 902.97656235 -482.49800751 903.63671844 -481.8188324 904.31687927 C-480.43603165 905.70035506 -479.05198924 907.08259083 -477.66674805 908.46362305 C-475.56769657 910.55731669 -473.4740406 912.65629874 -471.38085938 914.75585938 C-470.02636214 916.10969571 -468.67155469 917.46322175 -467.31640625 918.81640625 C-466.70156876 919.43326797 -466.08673126 920.0501297 -465.45326233 920.6856842 C-461.12975562 924.9863798 -456.62429307 929.02623499 -452 933 C-450.88226482 933.97332975 -449.76498274 934.94718044 -448.6484375 935.921875 C-410.27506802 969.16526986 -366.82822592 997.52089894 -319 1015 C-318.10120117 1015.33080566 -317.20240234 1015.66161133 -316.27636719 1016.00244141 C-257.20229518 1037.46097184 -187.80448675 1041.49439937 -129.73828125 1014.61328125 C-120.35042807 1010.11549669 -111.37932085 1005.20988024 -103 999 C-102.45182617 998.59700684 -101.90365234 998.19401367 -101.33886719 997.77880859 C-69.09316126 973.89542919 -49.04970302 939.70873822 -43 900 C-37.6318955 858.37530926 -44.22932712 816.7555787 -69.9609375 782.62890625 C-70.63382812 781.76136719 -71.30671875 780.89382813 -72 780 C-72.65226562 779.14277344 -73.30453125 778.28554688 -73.9765625 777.40234375 C-83.86443969 764.82955609 -95.41458231 753.81626132 -108.24951172 744.30175781 C-110.00420227 742.99687496 -111.73901219 741.66861258 -113.47265625 740.3359375 C-167.78236239 699.02649118 -235.8940697 675.53725112 -298.60263062 650.27990723 C-316.5011252 643.07041233 -334.33762157 635.77433978 -352 628 C-353.13324707 627.5040332 -354.26649414 627.00806641 -355.43408203 626.49707031 C-408.09409594 603.40426995 -461.61822421 577.67644217 -505.20703125 539.52197266 C-507.49301543 537.58150079 -509.84243383 535.7250724 -512.18359375 533.8515625 C-518.18960385 528.95035727 -523.67018799 523.62584418 -529.125 518.125 C-530.51138672 516.75021484 -530.51138672 516.75021484 -531.92578125 515.34765625 C-538.04760358 509.20856503 -543.62218322 502.79592135 -549 496 C-549.97694785 494.79613049 -550.95467179 493.59288983 -551.93359375 492.390625 C-585.00041873 451.15480141 -603.63851956 401.22717381 -610 349 C-610.11714355 348.05366699 -610.23428711 347.10733398 -610.35498047 346.13232422 C-621.01194804 255.57185235 -595.05076773 161.46921118 -538.70703125 89.76953125 C-533.10045608 82.74633351 -527.29081886 75.95275996 -521.1796875 69.36328125 C-519.31580659 67.34240678 -517.52548793 65.2854024 -515.75 63.1875 C-507.89543604 54.15754998 -499.17150075 45.68006044 -490 38 C-489.07316406 37.195625 -488.14632812 36.39125 -487.19140625 35.5625 C-461.51314894 13.34557518 -432.61513778 -5.34392868 -402.01318359 -20.02587891 C-399.91118889 -21.04297312 -397.82489749 -22.08847273 -395.73828125 -23.13671875 C-349.94787428 -45.84720298 -297.90016546 -58.38052901 -247 -62 C-246.20835449 -62.05639648 -245.41670898 -62.11279297 -244.60107422 -62.17089844 C-159.04584678 -67.93713311 -72.54906108 -45.67527778 0 0 Z " fill="#222222" transform="translate(8514,88)"/>
<path d="M0 0 C1.38284842 -0.00702413 2.76569651 -0.01411093 4.14854431 -0.02125549 C8.54304474 -0.04064864 12.93749234 -0.04568963 17.33203125 -0.046875 C18.08100426 -0.04731686 18.82997726 -0.04775871 19.60164642 -0.04821396 C42.56880994 -0.05531869 65.33551999 0.24544784 88.14453125 3.203125 C88.82898315 3.29033813 89.51343506 3.37755127 90.21862793 3.46740723 C166.77235779 13.26484165 243.00121918 38.24285454 299.56738281 92.68896484 C300.86066215 93.93059308 302.16857697 95.15696023 303.48046875 96.37890625 C331.30482931 122.89722539 349.57788389 161.51812383 355.14453125 199.203125 C355.23879395 199.84088867 355.33305664 200.47865234 355.43017578 201.13574219 C357.8305949 219.55756335 357.4363804 240.11438036 353.14453125 258.203125 C352.95117188 259.02893066 352.7578125 259.85473633 352.55859375 260.70556641 C344.86288498 292.45630312 328.08750645 320.13493934 305.14453125 343.203125 C304.40130615 343.95239258 304.40130615 343.95239258 303.64306641 344.71679688 C289.70898089 358.57429673 273.56925504 369.25179994 256.14453125 378.203125 C255.47164062 378.55713379 254.79875 378.91114258 254.10546875 379.27587891 C226.09118473 393.90784931 196.31975377 398.52919621 165.14453125 400.203125 C159.10173102 389.62023148 153.27737718 378.92751687 147.51342773 368.19042969 C143.72764078 361.13931906 139.92057731 354.10065072 136.08203125 347.078125 C131.91956867 339.46205759 127.77483377 331.83668338 123.64453125 324.203125 C119.4917734 316.52881369 115.32673926 308.86142709 111.14453125 301.203125 C104.23022041 288.5403611 97.36508467 275.8510795 90.49902344 263.16210938 C84.72952557 252.50070808 78.95406329 241.84277505 73.14453125 231.203125 C66.23030101 218.54031677 59.36508489 205.85107992 52.49902344 193.16210938 C46.72952557 182.50070808 40.95406329 171.84277505 35.14453125 161.203125 C29.35259046 150.59569178 23.59467567 139.97000636 17.84277344 129.34082031 C14.84068193 123.79411531 11.8361977 118.24870637 8.83203125 112.703125 C7.73176081 110.67188043 6.63149942 108.64063095 5.53125 106.609375 C5.06936279 105.75666016 4.60747559 104.90394531 4.1315918 104.02539062 C3.64299683 103.12336914 3.64299683 103.12336914 3.14453125 102.203125 C-61.77937497 100.37428257 -133.00915059 130.79860254 -183.85546875 169.203125 C-184.40348145 169.6151416 -184.95149414 170.0271582 -185.51611328 170.45166016 C-196.93224869 179.05258649 -207.88618105 188.07407079 -218.34814453 197.81347656 C-219.8140193 199.16491148 -221.30129856 200.49301312 -222.7890625 201.8203125 C-233.57322931 211.4730727 -243.5090425 221.96934788 -252.53125 233.29296875 C-254.27535179 235.47676007 -256.04040069 237.62880772 -257.8359375 239.76953125 C-274.84549574 260.15522908 -289.14639848 282.79877445 -301.73681641 306.14208984 C-302.76328298 308.03327947 -303.81054901 309.91071211 -304.8671875 311.78515625 C-342.58588221 379.95423736 -358.37563654 461.05031244 -358.17352676 538.35612869 C-358.16788554 540.54795658 -358.16506539 542.73977672 -358.16244507 544.93161011 C-358.12499885 566.48355023 -357.66594488 587.80920532 -354.85546875 609.203125 C-354.68700177 610.54518495 -354.51904353 611.88730884 -354.3515625 613.22949219 C-347.93487171 663.89225281 -334.04171283 713.15635593 -311.85546875 759.203125 C-311.43797363 760.08049316 -311.02047852 760.95786133 -310.59033203 761.86181641 C-294.30402464 795.99135308 -272.27704294 826.33799309 -246.85546875 854.203125 C-245.94738375 855.21566815 -245.03985703 856.22871218 -244.1328125 857.2421875 C-239.64245589 862.23578041 -235.14095726 867.06897131 -229.98046875 871.38671875 C-227.37444237 873.61429645 -224.91057903 875.97436936 -222.41796875 878.328125 C-215.01341804 885.1969767 -206.98489983 891.22507175 -198.85546875 897.203125 C-198.15228516 897.72052246 -197.44910156 898.23791992 -196.72460938 898.77099609 C-137.83874658 941.81453879 -66.53238557 966.36668543 6.14453125 971.203125 C7.3982251 971.28771973 7.3982251 971.28771973 8.67724609 971.37402344 C73.7199657 975.54643551 140.77152654 966.3204364 201.14453125 941.203125 C202.09537598 940.80931641 203.0462207 940.41550781 204.02587891 940.00976562 C245.5588937 922.6454522 283.09288139 899.55956745 317.14453125 870.203125 C317.84964844 869.59984375 318.55476563 868.9965625 319.28125 868.375 C330.16044431 858.97829548 340.8933164 849.25398137 350.27734375 838.34765625 C352.2760677 836.05205071 354.33398354 833.818329 356.39453125 831.578125 C365.3162387 821.68534736 373.21444608 810.89405463 381.14453125 800.203125 C382.40467255 803.98354891 381.85388133 806.31262245 381.24609375 810.25390625 C381.13624649 810.96737717 381.02639923 811.68084808 380.91322327 812.41593933 C380.54283412 814.78437469 380.15812855 817.15011158 379.76953125 819.515625 C379.6364859 820.33256836 379.50344055 821.14951172 379.36636353 821.99121094 C364.34859379 913.28685147 326.08067369 1003.34239248 262.55859375 1071.578125 C260.65226078 1073.65103076 258.8106306 1075.75121134 256.9765625 1077.88671875 C252.60570928 1082.89826993 247.91797321 1087.57588758 243.20703125 1092.265625 C242.35173828 1093.12478516 241.49644531 1093.98394531 240.61523438 1094.86914062 C235.62053563 1099.85621969 230.51568634 1104.62567864 225.14453125 1109.203125 C224.1803125 1110.04875 223.21609375 1110.894375 222.22265625 1111.765625 C170.40110761 1156.42950118 108.23672672 1188.06130777 42.14453125 1205.203125 C41.09974609 1205.47463379 40.05496094 1205.74614258 38.97851562 1206.02587891 C1.82423245 1215.50174287 -36.54132404 1220.3919575 -74.85546875 1221.203125 C-76.25249023 1221.23599609 -76.25249023 1221.23599609 -77.67773438 1221.26953125 C-140.81662452 1222.55371207 -204.13413128 1212.62551806 -263.85546875 1192.203125 C-264.88865234 1191.85137207 -265.92183594 1191.49961914 -266.98632812 1191.13720703 C-321.29163785 1172.50221102 -372.83629988 1144.87987582 -417.85546875 1109.203125 C-418.69851562 1108.54183594 -419.5415625 1107.88054687 -420.41015625 1107.19921875 C-429.98319218 1099.62948586 -439.29421709 1091.7271971 -448.31518555 1083.5078125 C-449.91500625 1082.05636537 -451.52146317 1080.61216719 -453.13720703 1079.1784668 C-459.48681113 1073.53767105 -465.55129563 1067.6584436 -471.54296875 1061.640625 C-472.44080078 1060.74666016 -473.33863281 1059.85269531 -474.26367188 1058.93164062 C-478.80466365 1054.38399538 -483.21058135 1049.78124088 -487.39575195 1044.90356445 C-489.24734281 1042.74662679 -491.17685472 1040.66619137 -493.10546875 1038.578125 C-497.6534964 1033.53758674 -501.8223897 1028.25434034 -505.9765625 1022.890625 C-507.87323107 1020.44531193 -509.8009415 1018.03161395 -511.765625 1015.640625 C-519.17511549 1006.60337548 -525.84935857 997.18697295 -532.33886719 987.47070312 C-533.74397597 985.36982573 -535.16056865 983.27733243 -536.58203125 981.1875 C-542.32713642 972.71122313 -547.72443808 964.06374273 -552.85546875 955.203125 C-553.60521973 953.91680176 -553.60521973 953.91680176 -554.37011719 952.60449219 C-593.93617997 884.42220947 -618.67144546 808.47920759 -629.60546875 721.3782959 C-629.76918173 719.95388105 -629.93574063 718.52978973 -630.10546875 717.1060791 C-635.53358816 671.53518576 -635.66077489 622.72480993 -629.85546875 577.203125 C-629.67656735 575.75588291 -629.4978621 574.30861655 -629.31933594 572.86132812 C-618.18024633 483.76200324 -589.03057694 397.66380934 -490.85546875 247.203125 C-490.17355469 246.35878906 -489.49164062 245.51445312 -488.7890625 244.64453125 C-479.40481539 233.07790109 -469.69150237 221.8426609 -459.51074219 210.97167969 C-457.69732578 209.03415927 -455.88964556 207.09137145 -454.08203125 205.1484375 C-436.97985893 186.7959814 -436.97985893 186.7959814 -427.75390625 178.8828125 C-425.87576122 177.22107924 -424.11241359 175.49186975 -422.35546875 173.703125 C-418.69250249 169.99099141 -414.81312274 166.59631618 -410.85546875 163.203125 C-409.81215495 162.29596961 -408.76921496 161.38838419 -407.7265625 160.48046875 C-400.24530152 153.98832448 -392.60806071 147.75418644 -384.77294922 141.6953125 C-382.71827846 140.09636322 -380.67884905 138.47922918 -378.640625 136.859375 C-368.76747227 129.04367397 -358.64400554 121.74809607 -348.17285156 114.75585938 C-345.95096221 113.26710924 -343.74169294 111.76138178 -341.53515625 110.25 C-323.32268054 97.84295826 -304.28414668 86.59590784 -284.85546875 76.203125 C-283.8794873 75.67895996 -282.90350586 75.15479492 -281.89794922 74.61474609 C-224.16446449 43.74550826 -162.08963386 22.48650043 -97.85546875 10.203125 C-96.00791992 9.84976074 -96.00791992 9.84976074 -94.12304688 9.48925781 C-75.70532026 6.04269445 -57.21188976 3.85128716 -38.578125 2 C-37.91963562 1.93356796 -37.26114624 1.86713593 -36.58270264 1.7986908 C-24.39693571 0.62260368 -12.24077781 0.04223944 0 0 Z " fill="#222222" transform="translate(2719.85546875,23.796875)"/>
<path d="M0 0 C213.51 0 427.02 0 647 0 C647 38.61 647 77.22 647 117 C548.495 117.495 548.495 117.495 448 118 C459.01063979 143.49832372 470.02204708 168.99624557 481.04833984 194.48779297 C484.03171587 201.38513079 487.0143096 208.28280692 489.99697876 215.18045044 C491.66462203 219.03698014 493.33231339 222.89348904 495 226.75 C495.6666669 228.29166657 496.33333356 229.83333323 497 231.375 C497.33 232.138125 497.66 232.90125 498 233.6875 C531 310 564 386.3125 709.99980164 723.93704224 C710.66712859 725.48023518 711.33445647 727.02342773 712.00178528 728.56661987 C713.65835711 732.39743119 715.31491333 736.22824926 716.97143555 740.05908203 C720.09176965 747.27504448 723.21226749 754.49093601 726.33328247 761.706604 C727.80533575 765.10996016 729.2773049 768.5133527 730.74926758 771.91674805 C731.45007187 773.53704619 732.15091725 775.15732656 732.85180664 776.77758789 C733.82448605 779.02615923 734.79702298 781.27479214 735.76953125 783.5234375 C736.05319046 784.17907684 736.33684967 784.83471619 736.62910461 785.51022339 C738.42788972 789.66988239 740.21669105 793.83369123 742 798 C746.78886627 788.79275282 750.98335729 779.37471374 755.11584473 769.86032104 C757.09021082 765.31620836 759.07584707 760.77703314 761.0625 756.23828125 C761.47075012 755.30544815 761.87900024 754.37261505 762.29962158 753.41151428 C766.54756297 743.7223819 770.89304529 734.07797986 775.25 724.4375 C780.52561613 712.7578306 785.75871481 701.06289036 790.875 689.3125 C796.40193386 676.62055636 801.99795286 663.96038215 807.625 651.3125 C808.04795349 650.36178619 808.47090698 649.41107239 808.90667725 648.43154907 C811.07167526 643.56561217 813.23735122 638.69997736 815.40332031 633.83447266 C819.19142224 625.324277 822.97371555 616.81150011 826.75631714 608.29885864 C828.83607915 603.61843725 830.91604964 598.93810853 832.99609375 594.2578125 C833.40841751 593.33003494 833.82074127 592.40225739 834.24555969 591.44636536 C836.754682 585.80089377 839.26479626 580.15586435 841.77566528 574.51116943 C850.37275034 555.18392401 858.95701933 535.8512294 867.5 516.5 C876.45436168 496.21692624 885.4552006 475.95469351 894.46630859 455.69677734 C897.02678387 449.94025308 899.58585246 444.18310421 902.14453125 438.42578125 C902.5677919 437.47340576 902.99105255 436.52103027 903.42713928 435.53979492 C905.54376478 430.77707813 907.6602374 426.01429343 909.77661133 421.25146484 C913.57480733 412.70414126 917.37435912 404.15743209 921.1796875 395.61328125 C922.49508406 392.65898425 923.81017328 389.70455065 925.125 386.75 C925.44571472 386.02936371 925.76642944 385.30872742 926.09686279 384.56625366 C931.01557245 373.50959168 935.88461207 362.43168576 940.73822021 351.34631348 C941.11335754 350.48953003 941.48849487 349.63274658 941.875 348.75 C942.2499762 347.89353882 942.62495239 347.03707764 943.0112915 346.15466309 C948.96281264 332.56824621 955.01648362 319.03052947 961.1234436 305.5133667 C967.2362355 291.97847988 973.23961935 278.39842945 979.19238281 264.79248047 C984.91428078 251.71633355 990.70799577 238.67450105 996.55352783 225.65319824 C1002.07996458 213.33860165 1007.52707795 200.99096693 1012.9375 188.625 C1023.42443639 164.65952461 1034.17520854 140.81454122 1045 117 C974.71 117 904.42 117 832 117 C832 78.39 832 39.78 832 0 C986.77 0 1141.54 0 1301 0 C1301 38.61 1301 77.22 1301 117 C1243.58 117.495 1243.58 117.495 1185 118 C1180.71 127.24 1176.42 136.48 1172 146 C1169.52362732 151.26256089 1167.04714497 156.52452872 1164.55563354 161.77984619 C1158.97910736 173.5443064 1153.43397579 185.32293558 1147.9375 197.125 C1143.02240266 207.67727204 1138.08397943 218.21827491 1133.125 228.75 C1132.79236145 229.4565271 1132.4597229 230.1630542 1132.11700439 230.89099121 C1129.06042831 237.38277204 1126.00230518 243.87382342 1122.94287109 250.36425781 C1120.89873762 254.70085335 1118.85525844 259.03775658 1116.8125 263.375 C1116.47751495 264.08622009 1116.14252991 264.79744019 1115.7973938 265.5302124 C1111.35514422 274.96447301 1106.94338864 284.41206144 1102.5625 293.875 C1097.6515296 304.48098097 1092.6830023 315.058634 1087.6875 325.625 C1087.32959381 326.38206238 1086.97168762 327.13912476 1086.60293579 327.91912842 C1085.15166149 330.98870672 1083.7002474 334.05821887 1082.24867249 337.12765503 C1078.40867363 345.24842214 1074.5764412 353.37283619 1070.75 361.5 C1070.41687805 362.2074939 1070.0837561 362.91498779 1069.74053955 363.6439209 C1064.78994992 374.16162844 1059.88435515 384.69954361 1055.00073242 395.24853516 C1050.20640207 405.58890222 1045.33825707 415.89378119 1040.46414185 426.19671631 C1035.61344505 436.45097893 1030.78711396 446.71590246 1026 457 C1020.85158031 468.06028616 1015.65469979 479.09699902 1010.4375 490.125 C1005.41943523 500.73232767 1000.42737317 511.35016539 995.5 522 C990.21303517 533.42704217 984.84824385 544.8158899 979.46386719 556.19726562 C974.61326391 566.45134592 969.78702752 576.71608815 965 587 C959.85158031 598.06028616 954.65469979 609.09699902 949.4375 620.125 C944.41943523 630.73232767 939.42737317 641.35016539 934.5 652 C929.21303517 663.42704217 923.84824385 674.8158899 918.46386719 686.19726562 C913.61326391 696.45134592 908.78702752 706.71608815 904 717 C898.85158031 728.06028616 893.65469979 739.09699902 888.4375 750.125 C883.41943476 760.73232866 878.4274689 771.350209 873.5 782 C868.61091443 792.56484991 863.66332424 803.10078786 858.6875 813.625 C858.15050476 814.76086548 858.15050476 814.76086548 857.60266113 815.91967773 C856.15148098 818.98906158 854.7001694 822.05838323 853.24868774 825.12762451 C849.40868164 833.24840077 845.57644605 841.37282591 841.75 849.5 C841.41687805 850.2074939 841.0837561 850.91498779 840.74053955 851.6439209 C835.78994992 862.16162844 830.88435515 872.69954361 826.00073242 883.24853516 C821.20640207 893.58890222 816.33825707 903.89378119 811.46414185 914.19671631 C806.61344505 924.45097893 801.78711396 934.71590246 797 945 C791.85158031 956.06028616 786.65469979 967.09699902 781.4375 978.125 C776.41943523 988.73232767 771.42737317 999.35016539 766.5 1010 C761.21303517 1021.42704217 755.84824385 1032.8158899 750.46386719 1044.19726562 C745.61326391 1054.45134592 740.78702752 1064.71608815 736 1075 C730.85158031 1086.06028616 725.65469979 1097.09699902 720.4375 1108.125 C715.41943523 1118.73232767 710.42737317 1129.35016539 705.5 1140 C700.57262521 1150.6498381 695.58028926 1161.26753954 690.5625 1171.875 C678.90586318 1196.52064659 667.39880358 1221.23402642 656 1246 C653 1245 653 1245 651.39697266 1242.30151367 C650.80873847 1241.09544332 650.23193622 1239.88375844 649.6640625 1238.66796875 C649.34871552 1238.01347244 649.03336853 1237.35897614 648.70846558 1236.68464661 C647.67059489 1234.52358061 646.64773884 1232.35576312 645.625 1230.1875 C644.90243406 1228.67477587 644.17911847 1227.16240961 643.45507812 1225.65039062 C638.53075751 1215.34119846 633.71536832 1204.98135466 628.93603516 1194.60424805 C624.4086399 1184.80044503 619.70125789 1175.08993786 614.9682312 1165.38421631 C610.39863288 1156.00867282 605.9222819 1146.60040539 601.5625 1137.125 C596.32870465 1125.75231686 590.89091422 1114.48976862 585.39675903 1103.24127197 C580.11873405 1092.4297652 574.98053307 1081.56752265 569.953125 1070.63671875 C565.59397262 1061.19548525 561.0637738 1051.84362008 556.5 1042.5 C550.85181184 1030.93620947 545.33091225 1019.32933194 539.953125 1007.63671875 C535.59397262 998.19548525 531.0637738 988.84362008 526.5 979.5 C520.85181184 967.93620947 515.33091225 956.32933194 509.953125 944.63671875 C505.59397262 935.19548525 501.0637738 925.84362008 496.5 916.5 C490.85181184 904.93620947 485.33091225 893.32933194 479.953125 881.63671875 C475.59397262 872.19548525 471.0637738 862.84362008 466.5 853.5 C460.85181184 841.93620947 455.33091225 830.32933194 449.953125 818.63671875 C445.59397262 809.19548525 441.0637738 799.84362008 436.5 790.5 C430.85181184 778.93620947 425.33091225 767.32933194 419.953125 755.63671875 C415.59397262 746.19548525 411.0637738 736.84362008 406.5 727.5 C400.85181184 715.93620947 395.33091225 704.32933194 389.953125 692.63671875 C385.59397262 683.19548525 381.0637738 673.84362008 376.5 664.5 C370.85181184 652.93620947 365.33091225 641.32933194 359.953125 629.63671875 C355.59397229 620.19548455 351.06375282 610.84363092 346.5 601.5 C340.82898491 589.88922961 335.28422649 578.23534778 329.8828125 566.49609375 C325.70250283 557.44048497 321.37157679 548.46445997 317 539.5 C312.0843976 529.41994809 307.25038933 519.31350319 302.5625 509.125 C297.32870465 497.75231686 291.89091422 486.48976862 286.39675903 475.24127197 C281.11873405 464.4297652 275.98053307 453.56752265 270.953125 442.63671875 C266.59397262 433.19548525 262.0637738 423.84362008 257.5 414.5 C251.85181184 402.93620947 246.33091225 391.32933194 240.953125 379.63671875 C236.59397262 370.19548525 232.0637738 360.84362008 227.5 351.5 C221.85181184 339.93620947 216.33091225 328.32933194 210.953125 316.63671875 C206.59397262 307.19548525 202.0637738 297.84362008 197.5 288.5 C191.85181184 276.93620947 186.33091225 265.32933194 180.953125 253.63671875 C176.59397262 244.19548525 172.0637738 234.84362008 167.5 225.5 C161.85253295 213.93768583 156.33191949 202.33247169 150.95532227 190.64111328 C146.57624261 181.15593316 142.02204791 171.76215422 137.4375 162.375 C132.18017478 151.60379785 126.97632167 140.81288646 121.9375 129.9375 C121.43081787 128.84937012 120.92413574 127.76124023 120.40209961 126.64013672 C119.94843018 125.65416504 119.49476074 124.66819336 119.02734375 123.65234375 C118.63281006 122.79632568 118.23827637 121.94030762 117.83178711 121.05834961 C117 119 117 119 117 117 C78.39 117 39.78 117 0 117 C0 78.39 0 39.78 0 0 Z " fill="#222222" transform="translate(5512,51)"/>
<path d="M0 0 C0 212.19 0 424.38 0 643 C51.81 643 103.62 643 157 643 C157 681.61 157 720.22 157 760 C-47.93 760 -252.86 760 -464 760 C-464 721.39 -464 682.78 -464 643 C-411.53 643 -359.06 643 -305 643 C-304.71168483 590.35248918 -304.71168483 590.35248918 -304.57421875 537.70507812 C-304.56681699 530.60164204 -304.55841495 523.49820822 -304.54833984 516.39477539 C-304.5471188 515.5045215 -304.54589775 514.61426761 -304.54463971 513.69703633 C-304.52348967 499.33928893 -304.44591136 484.98237571 -304.34736067 470.62497476 C-304.2474208 455.88150496 -304.20842143 441.13877404 -304.22555113 426.39497107 C-304.23420751 417.30238425 -304.19579229 408.21253126 -304.09643197 399.12047269 C-304.03278299 392.87878591 -304.02853192 386.63878481 -304.07014775 380.39692012 C-304.09240985 376.79861713 -304.08929653 373.20526461 -304.01533699 369.60754395 C-303.12131113 354.0502762 -303.12131113 354.0502762 -309.40846252 340.54880333 C-312.64374765 337.64049991 -316.09968241 335.36207105 -319.88617039 333.2377342 C-323.48147122 331.13253766 -326.7063926 328.54103009 -330 326 C-331.32778374 325.01081114 -332.6570223 324.02356941 -333.98828125 323.0390625 C-338.84144715 319.39889165 -343.52448161 315.5580595 -348.21533203 311.71264648 C-353.7869749 307.15111146 -359.4663105 302.75536548 -365.19091797 298.38671875 C-368.78713858 295.6301016 -372.36139089 292.8451248 -375.9375 290.0625 C-376.7094873 289.46187744 -377.48147461 288.86125488 -378.27685547 288.24243164 C-383.42009252 284.23761216 -388.55006452 280.21631403 -393.67163086 276.18383789 C-398.43352129 272.43752622 -403.21522981 268.71702785 -408 265 C-413.90507595 260.41266751 -419.79692783 255.80942832 -425.671875 251.18359375 C-430.43374633 247.43744268 -435.21531987 243.71695789 -440 240 C-445.90507595 235.41266751 -451.79692783 230.80942832 -457.671875 226.18359375 C-462.43374679 222.43744232 -467.21537183 218.71702537 -472 215 C-479.16612544 209.43156314 -486.32028658 203.84878457 -493.44238281 198.22412109 C-494.98402009 197.01255851 -496.53494596 195.8128456 -498.0859375 194.61328125 C-499.00632812 193.89527344 -499.92671875 193.17726563 -500.875 192.4375 C-501.67679688 191.81746094 -502.47859375 191.19742188 -503.3046875 190.55859375 C-503.86414062 190.04425781 -504.42359375 189.52992188 -505 189 C-505 188.34 -505 187.68 -505 187 C-470.41763064 174.10279969 -435.83358706 161.21011411 -401.24609375 148.32666016 C-391.72910886 144.78165413 -382.21234302 141.23606014 -372.69555664 137.69052124 C-367.38037969 135.71032443 -362.06518917 133.73016402 -356.75 131.75 C-354.62499993 130.95833351 -352.49999993 130.16666684 -350.375 129.375 C-133.62500004 48.62500001 -133.62500004 48.62500001 -130.43774414 47.43759155 C-128.31192982 46.64562111 -126.18611601 45.85364927 -124.06030273 45.06167603 C-118.76026617 43.08714564 -113.46022064 41.11263931 -108.16015625 39.13818359 C-96.22687381 34.69259274 -84.29375922 30.24655215 -72.36108398 25.79933167 C-66.94293275 23.78013727 -61.52451622 21.76166105 -56.10546875 19.74487305 C-54.0286358 18.97186941 -51.95181274 18.19883919 -49.875 17.42578125 C-48.86896729 17.05130356 -47.86293457 16.67682587 -46.82641602 16.29100037 C-41.12643123 14.16809717 -35.42936664 12.03762537 -29.73547363 9.8984375 C-26.42147636 8.65373205 -23.10621368 7.41242056 -19.79077148 6.17156982 C-18.28049859 5.60519737 -16.77087838 5.03708101 -15.26196289 4.46710205 C-13.22832646 3.69897663 -11.19259098 2.93670156 -9.15625 2.17578125 C-8.03025391 1.75208252 -6.90425781 1.32838379 -5.74414062 0.8918457 C-3 0 -3 0 0 0 Z " fill="#222222" transform="translate(1972,459)"/>
<path d="M0 0 C0.7645903 -0.00979385 1.5291806 -0.01958771 2.31694031 -0.02967834 C27.51900519 -0.28567353 50.83163154 1.87790511 74.78515625 10.23828125 C75.43564941 10.46209473 76.08614258 10.6859082 76.75634766 10.91650391 C100.11128279 19.12229193 121.58537854 32.38509178 139.22021484 49.70849609 C140.81349853 51.26598683 142.43181693 52.79372615 144.0546875 54.3203125 C177.32552749 86.03851329 195.68072231 133.11611378 196.98828125 178.71875 C197.68286369 229.45423696 180.87751549 277.24298706 145.78515625 314.23828125 C145.32834473 314.7276416 144.8715332 315.21700195 144.40087891 315.72119141 C130.52254619 330.511542 114.66023306 341.74227091 96.78515625 351.23828125 C96.15464355 351.57553223 95.52413086 351.9127832 94.87451172 352.26025391 C76.87561732 361.71127743 56.83404336 367.33706644 36.78515625 370.23828125 C35.77835815 370.38970581 35.77835815 370.38970581 34.7512207 370.54418945 C5.80918238 374.35460069 -24.81512714 371.00012361 -52.21484375 361.23828125 C-53.04177734 360.944375 -53.86871094 360.65046875 -54.72070312 360.34765625 C-83.99881596 349.72561992 -112.3353901 331.47379047 -132.21484375 307.23828125 C-132.63991211 306.73619141 -133.06498047 306.23410156 -133.50292969 305.71679688 C-162.00190336 272.03441344 -177.430628 230.47711119 -177.46484375 186.42578125 C-177.46551849 185.64549561 -177.46619324 184.86520996 -177.46688843 184.0612793 C-177.45018247 171.88685238 -176.88928166 160.15742972 -174.21484375 148.23828125 C-174.04855469 147.46742188 -173.88226562 146.6965625 -173.7109375 145.90234375 C-167.05498157 115.82728363 -152.5946603 87.32398941 -132.21484375 64.23828125 C-131.77736816 63.73522461 -131.33989258 63.23216797 -130.88916016 62.71386719 C-98.77295608 25.94265543 -49.29566409 0.52574124 0 0 Z " fill="#222222" transform="translate(1793.21484375,23.76171875)"/>
</svg>
