<svg id="svg" version="1.1" xmlns="http://www.w3.org/2000/svg" xmlns:xlink="http://www.w3.org/1999/xlink" width="400" height="400" viewBox="0, 0, 400,400"><g id="svgg"><path id="path0" d="M281.800 78.763 C 280.260 78.921,278.491 79.265,277.868 79.527 C 277.246 79.790,274.296 80.179,271.314 80.392 C 267.782 80.644,265.576 80.986,264.989 81.370 C 264.493 81.695,262.852 82.173,261.344 82.432 C 259.835 82.691,257.970 83.218,257.200 83.604 C 256.430 83.989,254.864 84.432,253.720 84.587 C 252.576 84.742,251.442 85.108,251.200 85.400 C 250.958 85.691,249.829 86.153,248.690 86.426 C 247.551 86.700,246.382 87.161,246.092 87.451 C 245.802 87.741,244.813 88.181,243.896 88.428 C 242.979 88.675,241.793 89.220,241.260 89.639 C 240.728 90.057,239.991 90.400,239.624 90.400 C 239.256 90.400,238.345 90.850,237.600 91.400 C 236.855 91.950,235.933 92.400,235.553 92.400 C 235.173 92.400,234.353 92.825,233.731 93.345 C 233.109 93.865,232.177 94.423,231.661 94.585 C 231.144 94.747,230.407 95.176,230.023 95.539 C 229.387 96.141,228.643 96.624,225.617 98.400 C 224.017 99.339,219.583 102.655,217.600 104.396 C 216.610 105.265,215.043 106.591,214.119 107.341 C 213.194 108.092,212.178 108.952,211.862 109.253 C 211.546 109.554,210.523 110.430,209.590 111.200 C 208.657 111.970,207.438 113.095,206.881 113.700 C 206.324 114.305,205.628 114.800,205.334 114.800 C 205.040 114.800,204.800 115.130,204.800 115.534 C 204.800 115.938,204.305 116.731,203.700 117.296 C 202.272 118.632,200.892 120.281,200.341 121.310 C 200.100 121.761,199.204 122.835,198.351 123.697 C 197.498 124.558,196.800 125.398,196.800 125.562 C 196.800 125.726,196.350 126.283,195.800 126.800 C 195.250 127.317,194.800 127.986,194.800 128.288 C 194.800 128.590,194.395 129.242,193.900 129.737 C 193.405 130.233,192.779 131.124,192.509 131.719 C 192.238 132.314,191.842 132.800,191.627 132.800 C 191.413 132.800,190.868 133.565,190.417 134.500 C 189.966 135.435,189.068 137.100,188.421 138.200 C 187.775 139.300,187.037 140.699,186.781 141.308 C 186.525 141.918,185.991 142.591,185.594 142.803 C 185.176 143.027,184.758 143.867,184.600 144.800 C 184.443 145.728,184.024 146.573,183.611 146.794 C 183.216 147.006,182.778 147.790,182.638 148.538 C 182.498 149.285,182.027 150.308,181.592 150.810 C 181.156 151.312,180.800 152.210,180.800 152.805 C 180.800 153.401,180.351 154.550,179.802 155.358 C 179.254 156.167,178.693 157.587,178.556 158.514 C 178.419 159.441,177.988 160.761,177.598 161.447 C 177.209 162.133,176.763 163.614,176.608 164.739 C 176.454 165.864,175.988 167.216,175.573 167.744 C 175.134 168.302,174.713 169.685,174.567 171.051 C 174.428 172.343,173.990 174.120,173.594 175.000 C 173.126 176.037,172.737 178.365,172.488 181.619 C 172.228 185.017,171.874 187.082,171.393 188.014 C 170.328 190.072,170.229 216.454,171.280 218.000 C 172.088 219.189,172.341 220.827,172.554 226.257 C 172.681 229.500,172.874 230.544,173.516 231.457 C 174.017 232.170,174.410 233.566,174.561 235.170 C 174.707 236.729,175.067 238.033,175.476 238.484 C 175.852 238.900,176.276 240.298,176.435 241.646 C 176.615 243.174,177.010 244.383,177.508 244.932 C 177.941 245.409,178.412 246.568,178.554 247.506 C 178.695 248.444,179.150 249.550,179.563 249.963 C 179.977 250.377,180.438 251.444,180.589 252.335 C 180.739 253.225,181.109 254.159,181.411 254.409 C 181.712 254.659,182.174 255.525,182.436 256.332 C 182.698 257.139,183.152 257.941,183.445 258.113 C 183.737 258.286,184.171 259.150,184.409 260.034 C 184.647 260.919,185.193 261.993,185.621 262.421 C 186.049 262.849,186.400 263.578,186.400 264.040 C 186.400 264.501,186.940 265.383,187.600 266.000 C 188.260 266.617,188.800 267.492,188.800 267.946 C 188.800 268.400,189.139 268.953,189.554 269.175 C 189.969 269.397,190.422 270.034,190.562 270.589 C 190.701 271.145,191.070 271.600,191.381 271.600 C 191.692 271.600,192.055 271.944,192.189 272.365 C 192.322 272.786,192.965 273.800,193.616 274.620 C 194.267 275.439,194.800 276.336,194.800 276.612 C 194.800 276.888,195.073 277.219,195.406 277.347 C 195.739 277.475,196.185 278.034,196.396 278.590 C 196.607 279.145,196.971 279.600,197.203 279.600 C 197.629 279.600,200.400 282.189,200.400 282.587 C 200.400 282.979,205.052 287.458,205.731 287.718 C 206.099 287.859,206.400 288.251,206.400 288.587 C 206.400 288.924,206.577 289.200,206.793 289.200 C 207.009 289.200,207.684 289.642,208.293 290.183 C 210.292 291.959,215.386 295.600,215.871 295.600 C 216.132 295.600,216.456 295.947,216.591 296.372 C 216.726 296.797,217.343 297.256,217.963 297.392 C 218.583 297.528,219.474 298.081,219.942 298.620 C 220.411 299.159,221.128 299.600,221.535 299.600 C 221.943 299.600,222.599 299.956,222.993 300.392 C 223.387 300.828,224.303 301.296,225.029 301.432 C 225.754 301.568,226.660 302.024,227.041 302.446 C 227.423 302.867,228.431 303.323,229.282 303.460 C 230.133 303.596,231.065 304.043,231.353 304.454 C 231.655 304.885,232.697 305.354,233.816 305.563 C 234.883 305.763,235.966 306.213,236.222 306.563 C 236.479 306.913,237.135 307.200,237.681 307.200 C 239.054 307.200,242.470 308.266,242.799 308.798 C 242.947 309.039,244.404 309.338,246.035 309.464 C 247.893 309.607,249.517 309.987,250.384 310.483 C 253.360 312.181,284.109 312.269,286.676 310.587 C 287.245 310.214,289.053 309.742,290.693 309.538 C 292.423 309.324,294.122 308.856,294.738 308.424 C 295.322 308.015,296.605 307.563,297.590 307.421 C 298.574 307.278,299.654 306.917,299.990 306.618 C 300.325 306.319,301.404 305.860,302.386 305.599 C 303.368 305.337,304.607 304.780,305.140 304.361 C 305.672 303.943,306.430 303.600,306.823 303.600 C 307.217 303.600,308.073 303.150,308.727 302.600 C 309.381 302.050,310.191 301.600,310.527 301.600 C 310.863 301.600,311.673 301.150,312.327 300.600 C 312.981 300.050,313.690 299.600,313.903 299.600 C 314.116 299.600,314.990 299.055,315.845 298.388 C 316.700 297.722,317.919 296.777,318.554 296.288 C 319.189 295.800,320.293 294.905,321.007 294.300 C 321.721 293.695,322.488 293.200,322.710 293.200 C 322.932 293.200,323.219 292.927,323.347 292.594 C 323.475 292.261,324.034 291.815,324.590 291.604 C 325.145 291.393,325.600 290.945,325.600 290.610 C 325.600 290.274,325.775 290.000,325.989 290.000 C 326.670 290.000,332.767 283.449,333.469 281.964 C 334.067 280.700,335.140 279.312,336.500 278.046 C 337.105 277.483,337.600 276.773,337.600 276.469 C 337.600 276.164,338.050 275.381,338.600 274.727 C 339.150 274.073,339.600 273.293,339.600 272.992 C 339.600 272.691,339.942 272.206,340.360 271.913 C 340.778 271.620,341.320 270.638,341.565 269.731 C 341.809 268.824,342.267 267.983,342.583 267.862 C 342.899 267.740,343.347 266.941,343.577 266.084 C 343.808 265.228,344.357 264.201,344.798 263.802 C 345.333 263.318,345.600 262.569,345.600 261.554 C 345.600 260.512,345.871 259.779,346.457 259.233 C 347.040 258.690,347.377 257.785,347.509 256.403 C 347.633 255.111,347.954 254.195,348.391 253.886 C 348.847 253.564,349.225 252.409,349.512 250.461 C 349.753 248.829,350.242 247.196,350.611 246.787 C 351.068 246.283,351.377 244.883,351.597 242.326 C 351.928 238.462,351.574 237.042,350.659 238.561 C 350.406 238.979,349.795 239.687,349.300 240.133 C 348.805 240.579,348.400 241.092,348.400 241.272 C 348.400 241.645,343.727 246.400,343.360 246.400 C 343.229 246.400,342.626 246.895,342.021 247.500 C 339.932 249.588,338.384 250.800,337.807 250.800 C 337.489 250.800,337.035 251.160,336.800 251.600 C 336.565 252.040,336.025 252.400,335.600 252.400 C 335.175 252.400,334.627 252.775,334.382 253.234 C 334.136 253.692,333.351 254.312,332.636 254.611 C 331.921 254.909,331.104 255.434,330.819 255.777 C 330.535 256.120,329.962 256.400,329.547 256.400 C 329.132 256.400,328.480 256.765,328.098 257.211 C 327.716 257.657,326.689 258.215,325.816 258.450 C 324.943 258.685,323.818 259.199,323.318 259.593 C 322.817 259.987,321.740 260.435,320.925 260.588 C 320.110 260.741,319.030 261.191,318.525 261.588 C 318.020 261.985,316.930 262.432,316.103 262.581 C 315.277 262.730,313.880 263.184,313.000 263.589 C 312.120 263.995,309.970 264.452,308.223 264.605 C 306.378 264.766,304.624 265.159,304.041 265.541 C 302.260 266.709,281.798 266.761,279.407 265.604 C 278.305 265.070,276.473 264.653,274.611 264.512 C 272.316 264.339,271.295 264.060,270.322 263.342 C 269.452 262.701,268.502 262.400,267.345 262.400 C 266.124 262.400,265.494 262.184,265.109 261.634 C 264.814 261.213,263.859 260.746,262.986 260.597 C 262.114 260.447,260.950 260.010,260.400 259.626 C 259.850 259.241,258.764 258.717,257.987 258.461 C 257.210 258.205,256.266 257.636,255.891 257.198 C 255.515 256.759,254.920 256.400,254.567 256.400 C 253.943 256.400,252.963 255.745,250.232 253.500 C 249.497 252.895,248.714 252.400,248.493 252.400 C 248.273 252.400,247.797 251.950,247.437 251.400 C 247.076 250.850,246.528 250.400,246.218 250.400 C 245.908 250.400,245.546 250.059,245.414 249.643 C 245.282 249.227,244.806 248.790,244.357 248.673 C 243.908 248.555,243.447 248.103,243.333 247.667 C 243.219 247.231,242.769 246.781,242.333 246.667 C 241.897 246.553,241.447 246.103,241.333 245.667 C 241.219 245.231,240.784 244.784,240.365 244.675 C 239.946 244.566,239.482 244.157,239.332 243.766 C 239.182 243.376,238.281 242.290,237.330 241.352 C 236.378 240.414,235.600 239.477,235.600 239.269 C 235.600 239.062,235.150 238.597,234.600 238.237 C 234.050 237.876,233.600 237.330,233.600 237.021 C 233.600 236.713,233.150 235.927,232.600 235.273 C 232.050 234.619,231.600 233.827,231.600 233.512 C 231.600 233.197,231.150 232.517,230.600 232.000 C 230.050 231.483,229.600 230.640,229.600 230.126 C 229.600 229.613,229.235 228.880,228.789 228.498 C 228.343 228.116,227.793 227.118,227.568 226.281 C 227.342 225.443,226.831 224.431,226.432 224.032 C 226.033 223.633,225.584 222.491,225.435 221.493 C 225.285 220.496,224.834 219.301,224.433 218.838 C 224.031 218.375,223.581 217.078,223.432 215.955 C 223.283 214.833,222.818 213.439,222.397 212.858 C 221.839 212.085,221.592 210.930,221.479 208.568 C 221.359 206.065,221.131 205.072,220.470 204.168 C 219.715 203.136,219.588 202.277,219.375 196.800 C 219.243 193.390,218.854 189.384,218.512 187.897 C 217.812 184.852,217.960 176.557,218.747 174.800 C 218.993 174.250,219.349 170.964,219.537 167.498 C 219.804 162.599,220.025 161.036,220.529 160.479 C 220.929 160.036,221.318 158.500,221.547 156.459 C 221.783 154.349,222.160 152.886,222.592 152.409 C 222.964 151.998,223.357 150.883,223.466 149.931 C 223.693 147.945,224.355 146.000,224.803 146.000 C 224.971 146.000,225.233 145.177,225.383 144.171 C 225.534 143.165,225.995 142.005,226.407 141.593 C 226.818 141.182,227.276 140.200,227.424 139.413 C 227.572 138.625,227.995 137.760,228.364 137.490 C 228.732 137.221,229.259 136.235,229.533 135.300 C 229.808 134.365,230.196 133.600,230.397 133.600 C 230.598 133.600,231.142 132.835,231.605 131.900 C 233.393 128.291,234.084 127.200,234.583 127.200 C 234.867 127.200,235.203 126.705,235.328 126.100 C 235.648 124.559,245.578 113.862,249.903 110.400 C 250.589 109.850,251.607 109.009,252.163 108.531 C 252.719 108.053,253.585 107.532,254.087 107.374 C 254.589 107.215,255.235 106.751,255.523 106.343 C 255.810 105.934,256.291 105.600,256.592 105.600 C 256.893 105.600,257.660 105.162,258.296 104.626 C 258.933 104.090,259.929 103.533,260.510 103.387 C 261.092 103.241,261.776 102.870,262.030 102.564 C 262.285 102.257,263.237 101.808,264.147 101.566 C 265.056 101.324,266.070 100.887,266.400 100.596 C 266.730 100.305,268.170 99.856,269.600 99.600 C 271.030 99.344,272.523 98.844,272.918 98.489 C 274.703 96.885,286.400 96.984,286.400 98.603 C 286.400 98.881,286.828 99.388,287.351 99.731 C 287.927 100.108,288.409 100.925,288.573 101.798 C 288.722 102.592,289.103 103.341,289.418 103.462 C 289.734 103.584,290.210 104.429,290.475 105.341 C 290.740 106.254,291.372 107.396,291.879 107.881 C 292.442 108.419,292.800 109.230,292.800 109.967 C 292.800 110.738,293.071 111.317,293.553 111.575 C 293.977 111.802,294.430 112.634,294.588 113.476 C 294.742 114.299,295.206 115.209,295.618 115.498 C 296.031 115.787,296.493 116.693,296.645 117.511 C 296.797 118.330,297.254 119.235,297.660 119.522 C 298.065 119.809,298.511 120.754,298.650 121.622 C 298.797 122.543,299.124 123.200,299.435 123.200 C 299.728 123.200,300.185 123.965,300.451 124.900 C 300.717 125.835,301.247 126.870,301.628 127.200 C 302.009 127.530,302.439 128.366,302.583 129.059 C 302.727 129.751,303.192 130.630,303.615 131.013 C 304.038 131.396,304.496 132.303,304.632 133.029 C 304.768 133.754,305.211 134.648,305.617 135.015 C 306.023 135.383,306.466 136.192,306.603 136.814 C 306.740 137.436,307.109 138.158,307.423 138.419 C 307.737 138.680,308.185 139.602,308.418 140.468 C 308.651 141.334,309.193 142.393,309.621 142.821 C 310.049 143.249,310.400 143.951,310.400 144.379 C 310.400 144.808,310.839 145.632,311.375 146.211 C 311.911 146.790,312.472 147.834,312.620 148.532 C 312.768 149.229,313.149 150.096,313.468 150.457 C 313.786 150.818,314.185 151.628,314.354 152.257 L 314.661 153.400 319.031 153.400 C 322.871 153.400,323.545 153.295,324.600 152.536 C 325.260 152.061,326.639 151.557,327.665 151.417 C 328.690 151.276,329.622 150.918,329.737 150.621 C 329.851 150.324,330.632 149.855,331.472 149.579 C 332.312 149.303,333.235 148.745,333.523 148.339 C 333.810 147.932,334.254 147.600,334.509 147.600 C 334.763 147.600,335.338 147.248,335.786 146.818 C 341.221 141.594,343.600 139.034,343.600 138.410 C 343.600 138.138,344.050 137.381,344.600 136.727 C 345.150 136.073,345.600 135.127,345.600 134.623 C 345.600 134.120,346.002 133.197,346.492 132.574 C 347.157 131.728,347.451 130.665,347.645 128.403 C 347.789 126.734,348.226 124.352,348.618 123.111 C 349.300 120.946,349.300 120.777,348.615 118.984 C 348.222 117.955,347.786 115.641,347.646 113.842 C 347.453 111.361,347.183 110.305,346.529 109.473 C 346.055 108.870,345.543 107.649,345.393 106.760 C 345.243 105.872,344.877 105.051,344.579 104.937 C 344.282 104.823,343.836 104.115,343.588 103.365 C 343.341 102.614,343.011 102.000,342.857 102.000 C 342.702 102.000,341.861 101.001,340.988 99.779 C 339.122 97.170,337.095 94.986,335.988 94.394 C 335.555 94.162,335.200 93.728,335.200 93.429 C 335.200 93.131,334.766 92.778,334.235 92.645 C 333.314 92.413,332.179 91.604,330.182 89.752 C 329.679 89.285,328.798 88.786,328.223 88.642 C 327.649 88.498,326.865 88.065,326.480 87.680 C 326.096 87.296,325.041 86.759,324.138 86.489 C 323.234 86.218,322.279 85.736,322.015 85.418 C 321.751 85.100,320.737 84.720,319.763 84.573 C 318.788 84.427,317.533 83.948,316.974 83.508 C 316.375 83.037,315.000 82.595,313.629 82.433 C 312.349 82.282,310.849 81.862,310.296 81.500 C 309.624 81.059,307.660 80.699,304.373 80.414 C 301.669 80.179,298.940 79.729,298.309 79.415 C 296.953 78.738,286.179 78.313,281.800 78.763 M144.738 186.548 C 143.715 186.796,142.545 187.295,142.138 187.656 C 141.732 188.018,140.598 188.445,139.617 188.606 C 138.637 188.767,137.371 189.241,136.804 189.660 C 136.237 190.079,135.060 190.537,134.187 190.677 C 133.314 190.817,132.150 191.245,131.600 191.629 C 131.050 192.012,129.880 192.447,129.000 192.596 C 128.120 192.746,127.098 193.139,126.729 193.470 C 126.359 193.801,125.300 194.242,124.373 194.451 C 123.447 194.659,122.246 195.178,121.704 195.604 C 121.162 196.030,120.062 196.500,119.259 196.647 C 118.457 196.795,117.382 197.241,116.872 197.638 C 116.361 198.035,115.144 198.479,114.166 198.626 C 113.188 198.773,112.238 199.160,112.056 199.486 C 111.873 199.813,110.873 200.239,109.833 200.433 C 108.794 200.628,107.494 201.140,106.944 201.573 C 106.394 202.005,105.158 202.477,104.199 202.621 C 103.239 202.765,102.364 203.117,102.254 203.402 C 102.145 203.688,101.136 204.119,100.013 204.360 C 98.889 204.601,97.482 205.142,96.885 205.562 C 96.288 205.982,95.120 206.441,94.288 206.583 C 93.457 206.725,92.197 207.178,91.488 207.591 C 90.780 208.004,89.500 208.469,88.645 208.625 C 87.790 208.782,86.774 209.226,86.388 209.612 C 86.001 209.999,84.901 210.446,83.942 210.606 C 82.984 210.767,81.750 211.210,81.200 211.591 C 80.650 211.972,79.432 212.403,78.494 212.548 C 77.556 212.693,76.451 213.149,76.038 213.562 C 75.616 213.984,74.392 214.436,73.242 214.594 C 72.107 214.750,71.051 215.137,70.868 215.465 C 70.686 215.789,69.775 216.226,68.842 216.435 C 67.909 216.645,66.663 217.156,66.073 217.571 C 65.483 217.986,64.286 218.448,63.414 218.597 C 62.541 218.746,61.343 219.213,60.752 219.634 C 60.160 220.055,59.479 220.400,59.238 220.400 C 58.460 220.400,58.785 220.973,60.258 222.200 C 61.050 222.860,62.201 223.850,62.816 224.400 C 63.431 224.950,64.598 225.850,65.410 226.400 C 66.223 226.950,67.434 227.895,68.103 228.500 C 68.772 229.105,69.476 229.600,69.669 229.600 C 69.862 229.600,70.191 230.050,70.400 230.600 C 70.609 231.150,70.989 231.600,71.244 231.600 C 71.499 231.600,72.130 232.005,72.644 232.500 C 74.461 234.246,75.400 235.006,76.381 235.521 C 77.391 236.052,77.988 236.544,79.993 238.500 C 80.613 239.105,81.239 239.600,81.384 239.600 C 81.528 239.600,82.427 240.392,83.381 241.360 C 84.335 242.328,85.450 243.228,85.858 243.361 C 86.266 243.494,87.500 244.434,88.599 245.449 C 89.698 246.464,91.003 247.449,91.499 247.638 C 91.995 247.826,92.400 248.222,92.400 248.518 C 92.400 248.814,92.850 249.447,93.400 249.925 L 94.400 250.795 94.400 267.969 C 94.400 283.048,94.323 285.220,93.771 285.771 C 93.042 286.501,91.798 286.556,75.656 286.582 L 64.712 286.600 64.666 296.677 C 64.641 302.219,64.766 306.899,64.944 307.077 C 65.521 307.655,175.103 307.677,175.477 307.099 C 175.864 306.501,175.819 287.286,175.429 286.896 C 175.280 286.747,169.132 286.605,161.768 286.581 C 151.801 286.549,148.253 286.413,147.889 286.049 C 147.510 285.670,146.938 203.922,147.193 186.500 C 147.201 185.935,147.262 185.934,144.738 186.548 " stroke="none" fill="#242424" fill-rule="evenodd" data-index="0" style="opacity: 1;"></path><path id="path2" d="M132.785 79.360 C 128.238 80.055,126.579 80.645,124.848 82.183 C 124.051 82.890,122.860 83.794,122.200 84.191 C 120.621 85.141,112.412 94.521,112.404 95.384 C 112.402 95.596,111.508 97.666,110.417 99.984 C 108.328 104.426,107.608 107.478,107.603 111.926 C 107.597 116.908,106.400 117.466,101.395 114.819 C 95.958 111.943,94.129 111.533,86.406 111.461 C 77.356 111.377,74.319 112.003,70.200 114.798 C 69.320 115.396,67.966 116.091,67.190 116.343 C 65.468 116.904,60.949 121.753,59.480 124.619 C 58.921 125.708,58.009 127.206,57.455 127.947 C 56.792 128.831,56.356 130.066,56.184 131.547 C 56.040 132.786,55.647 135.055,55.309 136.589 C 54.239 141.452,55.401 149.096,57.895 153.600 C 58.566 154.810,59.316 156.443,59.564 157.228 C 59.866 158.185,60.600 159.069,61.788 159.906 C 62.763 160.594,63.925 161.869,64.369 162.739 C 65.199 164.366,67.230 166.282,69.126 167.228 C 69.717 167.523,71.280 168.510,72.600 169.422 C 73.920 170.334,76.512 171.581,78.359 172.193 C 80.207 172.805,82.663 173.802,83.816 174.408 C 85.103 175.086,86.895 175.617,88.456 175.785 C 89.855 175.936,92.688 176.338,94.750 176.677 C 103.083 178.050,136.546 177.016,138.464 175.326 C 139.298 174.592,142.993 168.593,143.797 166.669 C 144.128 165.877,144.926 164.629,145.570 163.895 C 146.214 163.161,147.527 161.040,148.487 159.181 C 150.749 154.800,152.245 152.183,153.621 150.200 C 157.424 144.718,162.880 131.991,164.167 125.600 C 164.721 122.850,165.446 119.340,165.780 117.800 C 166.558 114.205,166.565 109.202,165.796 106.249 C 165.329 104.458,164.000 97.601,164.000 96.985 C 164.000 96.925,163.386 96.141,162.636 95.243 C 161.779 94.217,161.171 92.977,161.000 91.905 C 160.649 89.699,159.146 87.400,157.502 86.549 C 155.739 85.638,154.123 84.486,152.142 82.731 C 148.602 79.593,140.500 78.182,132.785 79.360 " stroke="none" fill="#f65556" fill-rule="evenodd" data-index="2"></path><path id="path3" d="M274.305 77.981 C 273.043 78.153,271.780 78.484,271.499 78.718 C 271.217 78.952,269.402 79.272,267.466 79.429 C 265.303 79.604,263.376 80.006,262.472 80.469 C 261.663 80.885,259.830 81.393,258.400 81.600 C 256.970 81.807,255.087 82.341,254.215 82.788 C 253.344 83.235,252.200 83.600,251.674 83.600 C 251.148 83.600,249.881 84.042,248.859 84.582 C 247.837 85.122,246.518 85.663,245.928 85.783 C 245.338 85.903,244.591 86.266,244.267 86.590 C 243.944 86.913,242.924 87.348,242.001 87.555 C 241.078 87.763,239.973 88.308,239.546 88.766 C 239.118 89.225,238.335 89.600,237.805 89.600 C 237.275 89.600,236.356 90.050,235.762 90.600 C 235.169 91.150,234.270 91.600,233.764 91.600 C 233.259 91.600,232.603 91.946,232.306 92.370 C 232.010 92.793,231.009 93.443,230.083 93.813 C 229.158 94.184,228.400 94.635,228.400 94.816 C 228.400 94.998,228.034 95.262,227.587 95.404 C 227.140 95.546,226.304 96.098,225.729 96.631 C 225.154 97.164,224.454 97.600,224.175 97.600 C 223.895 97.600,222.436 98.585,220.933 99.788 C 219.430 100.991,217.770 102.296,217.244 102.688 C 216.718 103.080,215.908 103.775,215.444 104.234 C 214.980 104.693,214.308 105.233,213.952 105.434 C 211.545 106.793,200.708 117.514,199.578 119.653 C 199.303 120.174,198.701 120.989,198.239 121.465 C 197.778 121.941,197.040 122.816,196.600 123.411 C 196.160 124.005,195.397 124.966,194.905 125.546 C 192.697 128.148,191.600 129.762,191.600 130.409 C 191.600 130.793,191.150 131.403,190.600 131.763 C 190.050 132.124,189.600 132.656,189.600 132.947 C 189.600 133.238,189.250 133.793,188.823 134.179 C 188.395 134.566,187.934 135.390,187.798 136.010 C 187.662 136.630,187.111 137.610,186.575 138.189 C 186.039 138.768,185.600 139.585,185.600 140.004 C 185.600 140.424,185.173 141.180,184.651 141.684 C 184.129 142.188,183.588 143.214,183.448 143.964 C 183.309 144.715,182.860 145.563,182.451 145.850 C 182.042 146.136,181.597 147.052,181.464 147.885 C 181.320 148.782,180.890 149.605,180.410 149.903 C 179.847 150.253,179.600 150.833,179.600 151.807 C 179.600 152.706,179.317 153.450,178.812 153.882 C 178.363 154.267,177.829 155.514,177.570 156.779 C 177.321 158.000,176.832 159.322,176.483 159.715 C 176.135 160.107,175.722 161.513,175.566 162.838 C 175.398 164.261,174.986 165.573,174.559 166.045 C 174.105 166.547,173.737 167.805,173.569 169.434 C 173.401 171.056,173.032 172.323,172.583 172.819 C 172.039 173.420,171.790 174.651,171.555 177.906 C 171.374 180.407,170.958 182.868,170.558 183.800 C 168.850 187.786,169.164 220.879,170.932 223.130 C 171.160 223.421,171.449 225.608,171.574 227.989 C 171.755 231.466,171.949 232.483,172.558 233.155 C 173.080 233.730,173.399 234.883,173.578 236.843 C 173.759 238.820,174.045 239.843,174.509 240.183 C 174.929 240.490,175.279 241.534,175.451 242.992 C 175.653 244.710,175.967 245.524,176.662 246.128 C 177.324 246.704,177.600 247.372,177.600 248.394 C 177.600 249.313,177.966 250.341,178.600 251.200 C 179.165 251.966,179.600 253.100,179.600 253.808 C 179.600 254.627,179.946 255.386,180.600 256.000 C 181.150 256.517,181.600 257.349,181.600 257.849 C 181.600 258.349,182.050 259.244,182.600 259.838 C 183.150 260.431,183.600 261.331,183.600 261.838 C 183.600 262.344,184.050 263.244,184.600 263.838 C 185.150 264.431,185.600 265.133,185.600 265.396 C 185.600 265.660,185.950 266.193,186.377 266.579 C 186.805 266.966,187.270 267.810,187.412 268.455 C 187.554 269.100,188.104 269.912,188.635 270.260 C 189.166 270.607,189.600 271.131,189.600 271.423 C 189.600 271.716,189.947 272.198,190.372 272.495 C 190.796 272.793,191.262 273.507,191.406 274.082 C 191.551 274.658,193.093 276.606,194.834 278.411 C 196.575 280.216,198.000 281.852,198.000 282.047 C 198.000 282.241,198.270 282.400,198.600 282.400 C 198.930 282.400,199.200 282.589,199.200 282.820 C 199.200 283.390,204.024 288.221,204.900 288.529 C 205.285 288.664,205.600 289.051,205.600 289.387 C 205.600 289.724,205.790 290.000,206.023 290.000 C 206.255 290.000,206.930 290.511,207.523 291.136 C 209.575 293.300,213.645 296.400,214.433 296.400 C 214.869 296.400,215.330 296.674,215.459 297.009 C 215.757 297.787,219.672 300.400,220.538 300.400 C 220.898 300.400,221.420 300.765,221.697 301.210 C 221.973 301.656,222.884 302.205,223.721 302.431 C 224.558 302.657,225.593 303.193,226.021 303.621 C 226.449 304.049,227.308 304.400,227.928 304.400 C 228.632 304.400,229.382 304.775,229.925 305.400 C 230.467 306.024,231.218 306.400,231.920 306.400 C 232.538 306.400,233.655 306.850,234.400 307.400 C 235.351 308.102,236.269 308.400,237.478 308.400 C 238.696 308.400,239.447 308.647,240.043 309.243 C 240.641 309.841,241.705 310.188,243.712 310.441 C 245.266 310.636,247.272 311.137,248.169 311.555 C 249.319 312.091,251.107 312.382,254.229 312.544 C 256.665 312.670,259.718 313.049,261.013 313.387 C 264.181 314.212,274.163 314.226,277.296 313.410 C 278.541 313.086,281.643 312.654,284.188 312.451 C 287.147 312.214,289.159 311.857,289.764 311.460 C 290.286 311.119,291.677 310.723,292.856 310.581 C 294.035 310.439,295.492 309.977,296.093 309.555 C 296.694 309.132,297.997 308.676,298.988 308.540 C 299.979 308.404,301.367 307.867,302.073 307.346 C 302.778 306.826,303.672 306.400,304.059 306.400 C 304.951 306.400,306.800 305.569,306.800 305.168 C 306.800 305.000,307.348 304.743,308.018 304.596 C 308.688 304.449,309.704 303.895,310.276 303.364 C 310.849 302.834,311.641 302.400,312.038 302.400 C 312.434 302.400,313.244 301.950,313.838 301.400 C 314.431 300.850,315.150 300.400,315.436 300.400 C 315.721 300.400,316.190 300.066,316.477 299.657 C 316.765 299.249,317.414 298.784,317.920 298.624 C 318.427 298.464,319.349 297.853,319.970 297.267 C 320.591 296.680,321.969 295.480,323.034 294.600 C 325.200 292.808,332.061 285.994,333.600 284.106 C 334.150 283.431,335.019 282.366,335.531 281.739 C 338.069 278.632,338.399 278.158,338.400 277.614 C 338.400 277.292,338.765 276.662,339.211 276.214 C 340.251 275.172,342.383 271.929,342.393 271.378 C 342.397 271.145,342.850 270.345,343.400 269.600 C 343.950 268.855,344.400 267.955,344.400 267.600 C 344.400 267.245,344.832 266.370,345.360 265.654 C 345.888 264.939,346.443 263.698,346.593 262.898 C 346.743 262.097,347.211 261.004,347.633 260.467 C 348.055 259.931,348.400 258.911,348.400 258.200 C 348.400 257.477,348.785 256.418,349.275 255.796 C 349.781 255.152,350.274 253.766,350.445 252.506 C 350.608 251.308,351.025 250.014,351.373 249.629 C 351.745 249.219,352.178 247.557,352.423 245.607 C 352.652 243.779,353.103 241.775,353.425 241.152 C 354.245 239.566,354.613 235.545,354.036 234.467 C 353.457 233.386,352.561 233.352,352.005 234.391 C 351.772 234.826,351.181 235.605,350.691 236.121 C 349.494 237.383,348.599 238.519,347.734 239.874 C 346.824 241.300,342.974 244.977,340.498 246.786 C 338.225 248.445,337.492 249.052,336.007 250.500 C 335.387 251.105,334.694 251.600,334.468 251.600 C 334.242 251.600,333.810 251.847,333.509 252.148 C 333.208 252.450,332.340 253.016,331.580 253.408 C 330.821 253.799,329.965 254.452,329.677 254.860 C 329.390 255.267,328.724 255.600,328.198 255.600 C 327.672 255.600,326.756 256.050,326.162 256.600 C 325.543 257.174,324.604 257.600,323.958 257.600 C 323.296 257.600,322.455 257.992,321.916 258.551 C 321.337 259.152,320.363 259.582,319.269 259.717 C 318.317 259.836,317.222 260.218,316.836 260.567 C 316.450 260.917,315.069 261.396,313.767 261.632 C 312.465 261.868,311.003 262.316,310.518 262.628 C 310.029 262.943,307.273 263.446,304.318 263.760 C 301.393 264.071,298.493 264.522,297.874 264.763 C 296.182 265.420,286.870 265.312,284.153 264.604 C 282.895 264.277,279.871 263.811,277.433 263.569 C 274.690 263.297,272.754 262.910,272.355 262.553 C 272.001 262.236,270.690 261.810,269.442 261.607 C 268.195 261.404,266.706 260.869,266.133 260.419 C 265.561 259.968,264.583 259.600,263.962 259.600 C 263.340 259.600,262.509 259.259,262.116 258.842 C 261.722 258.424,260.745 257.904,259.945 257.686 C 259.144 257.468,258.109 256.909,257.645 256.445 C 257.180 255.980,256.359 255.600,255.820 255.600 C 255.281 255.600,254.695 255.342,254.519 255.027 C 254.142 254.354,252.000 252.763,249.949 251.633 C 249.151 251.194,248.392 250.556,248.262 250.217 C 248.132 249.878,247.840 249.600,247.615 249.600 C 247.192 249.600,238.753 241.206,237.496 239.535 C 237.110 239.021,236.370 238.060,235.853 237.400 C 235.336 236.740,234.613 235.615,234.246 234.900 C 233.879 234.185,233.431 233.600,233.250 233.600 C 233.069 233.600,232.619 232.925,232.248 232.100 C 231.878 231.275,231.052 229.700,230.412 228.600 C 228.966 226.114,228.400 224.892,228.400 224.252 C 228.400 223.979,227.950 223.145,227.400 222.400 C 226.829 221.625,226.400 220.501,226.400 219.776 C 226.400 219.079,226.032 218.039,225.581 217.467 C 225.131 216.894,224.596 215.405,224.393 214.158 C 224.190 212.910,223.714 211.547,223.336 211.129 C 222.837 210.578,222.581 209.345,222.402 206.634 C 222.228 203.980,221.940 202.568,221.408 201.757 C 219.927 199.495,219.850 166.877,221.320 164.117 C 221.696 163.411,222.174 161.185,222.382 159.170 C 222.623 156.841,222.992 155.251,223.394 154.806 C 223.742 154.422,224.212 152.960,224.438 151.558 C 224.663 150.157,225.129 148.699,225.473 148.319 C 225.817 147.940,226.252 146.803,226.441 145.794 C 226.629 144.785,227.052 143.690,227.381 143.362 C 227.710 143.033,228.180 142.007,228.427 141.082 C 228.673 140.157,229.125 139.118,229.432 138.774 C 229.739 138.430,230.200 137.530,230.456 136.774 C 230.712 136.018,231.176 135.130,231.486 134.800 C 232.067 134.184,233.049 132.464,234.223 130.007 C 234.589 129.240,235.229 128.375,235.644 128.084 C 236.060 127.793,236.400 127.386,236.400 127.181 C 236.400 126.975,237.004 126.015,237.743 125.048 C 239.725 122.451,240.092 122.012,241.300 120.791 C 241.905 120.179,242.400 119.571,242.400 119.440 C 242.400 119.137,247.122 114.400,247.423 114.400 C 247.546 114.400,248.406 113.635,249.335 112.700 C 250.263 111.765,251.693 110.688,252.512 110.306 C 253.330 109.925,254.000 109.452,254.000 109.255 C 254.000 109.058,254.540 108.673,255.200 108.400 C 255.860 108.127,256.400 107.738,256.400 107.537 C 256.400 107.336,257.210 106.824,258.200 106.400 C 259.190 105.976,260.000 105.449,260.000 105.230 C 260.000 105.010,260.765 104.626,261.700 104.377 C 262.635 104.127,263.722 103.580,264.116 103.161 C 264.509 102.743,265.286 102.400,265.842 102.400 C 266.871 102.400,268.424 101.748,268.817 101.150 C 268.937 100.969,270.256 100.647,271.748 100.436 C 273.241 100.225,274.927 99.747,275.495 99.375 C 276.240 98.887,277.737 98.640,280.865 98.492 L 285.202 98.287 285.629 99.511 C 285.864 100.185,286.303 100.831,286.606 100.947 C 286.908 101.063,287.277 101.802,287.424 102.589 C 287.572 103.376,288.008 104.240,288.393 104.510 C 288.778 104.779,289.226 105.630,289.389 106.400 C 289.553 107.170,290.005 108.160,290.394 108.600 C 290.783 109.040,291.312 110.059,291.570 110.865 C 291.828 111.670,292.290 112.426,292.597 112.544 C 292.904 112.661,293.277 113.402,293.424 114.189 C 293.572 114.976,294.023 115.851,294.427 116.134 C 294.831 116.417,295.338 117.434,295.554 118.393 C 295.770 119.353,296.221 120.292,296.557 120.480 C 296.893 120.668,297.286 121.451,297.430 122.221 C 297.575 122.990,298.014 123.845,298.407 124.120 C 298.799 124.395,299.325 125.377,299.574 126.303 C 299.823 127.229,300.381 128.176,300.814 128.407 C 301.325 128.681,301.600 129.244,301.600 130.017 C 301.600 130.786,301.953 131.512,302.600 132.075 C 303.270 132.657,303.600 133.359,303.600 134.200 C 303.600 135.041,303.930 135.743,304.600 136.325 C 305.150 136.803,305.600 137.613,305.600 138.125 C 305.600 138.637,306.050 139.447,306.600 139.925 C 307.227 140.470,307.600 141.218,307.600 141.928 C 307.600 142.619,307.990 143.427,308.600 144.000 C 309.150 144.517,309.600 145.349,309.600 145.849 C 309.600 146.349,310.050 147.244,310.600 147.838 C 311.150 148.431,311.600 149.327,311.600 149.828 C 311.600 150.329,312.019 151.247,312.532 151.869 C 313.044 152.491,313.579 153.315,313.720 153.701 C 314.172 154.939,316.611 155.827,318.107 155.299 C 318.818 155.048,320.570 154.729,322.000 154.591 C 324.794 154.320,326.800 153.719,326.800 153.151 C 326.800 152.958,327.025 152.799,327.300 152.798 C 328.335 152.793,330.794 151.949,331.328 151.415 C 331.634 151.109,332.540 150.585,333.342 150.250 C 334.144 149.915,334.800 149.452,334.800 149.220 C 334.800 148.989,335.028 148.800,335.307 148.800 C 336.623 148.800,344.378 140.923,344.393 139.572 C 344.397 139.227,344.832 138.569,345.360 138.110 C 345.888 137.650,346.442 136.718,346.592 136.037 C 346.741 135.357,347.007 134.800,347.183 134.800 C 347.627 134.800,348.299 132.943,348.626 130.809 C 348.777 129.824,349.191 128.575,349.545 128.035 C 350.494 126.587,350.482 116.789,349.529 114.800 C 349.160 114.030,348.744 112.590,348.605 111.600 C 348.301 109.442,347.634 107.600,347.156 107.600 C 346.965 107.600,346.697 106.894,346.559 106.032 C 346.411 105.111,345.914 104.122,345.354 103.635 C 344.829 103.179,344.400 102.451,344.400 102.019 C 344.400 101.586,343.905 100.687,343.300 100.020 C 341.641 98.191,334.996 91.484,334.165 90.800 C 332.437 89.378,329.768 87.600,329.360 87.600 C 329.116 87.600,328.431 87.150,327.838 86.600 C 327.244 86.050,326.346 85.600,325.841 85.600 C 325.336 85.600,324.507 85.239,323.998 84.798 C 323.490 84.358,322.337 83.801,321.437 83.561 C 320.537 83.322,319.504 82.861,319.142 82.539 C 318.780 82.216,317.257 81.778,315.759 81.566 C 314.261 81.353,312.937 81.031,312.817 80.850 C 312.336 80.119,310.846 79.693,307.854 79.433 C 305.985 79.270,304.288 78.883,303.672 78.479 C 302.525 77.727,279.093 77.329,274.305 77.981 M132.986 78.345 C 130.102 79.102,130.110 79.634,133.000 79.312 C 141.544 78.360,148.690 79.645,152.142 82.754 C 154.054 84.476,157.536 86.806,158.169 86.787 C 158.406 86.780,158.240 86.508,157.800 86.181 C 157.360 85.855,156.240 84.933,155.312 84.133 C 149.983 79.540,139.145 76.730,132.986 78.345 M301.000 78.995 C 302.320 79.340,305.001 79.799,306.957 80.014 C 309.100 80.250,311.008 80.702,311.757 81.151 C 312.441 81.561,313.847 82.006,314.883 82.138 C 315.918 82.271,317.446 82.744,318.277 83.190 C 319.108 83.635,320.034 84.000,320.335 84.000 C 320.636 84.000,321.719 84.448,322.741 84.996 C 323.763 85.544,325.230 86.271,326.000 86.612 C 330.383 88.550,337.846 94.394,340.613 98.054 C 340.840 98.354,341.695 99.481,342.513 100.558 C 343.331 101.634,344.000 102.731,344.000 102.996 C 344.000 103.260,344.356 103.799,344.792 104.193 C 345.228 104.587,345.698 105.517,345.837 106.258 C 345.976 107.000,346.448 108.061,346.884 108.616 C 347.371 109.236,347.810 110.664,348.018 112.313 C 348.206 113.791,348.638 115.788,348.979 116.750 C 349.824 119.133,349.759 122.856,348.809 126.427 C 348.375 128.062,348.015 129.813,348.009 130.317 C 348.004 130.821,347.460 132.388,346.800 133.800 C 346.140 135.212,345.600 136.545,345.600 136.763 C 345.600 136.982,345.354 137.304,345.054 137.480 C 344.754 137.656,344.228 138.340,343.886 139.000 C 342.464 141.741,333.701 150.000,332.214 150.000 C 331.936 150.000,331.264 150.349,330.722 150.775 C 330.180 151.202,329.211 151.665,328.568 151.805 C 327.926 151.946,326.500 152.483,325.400 152.999 C 323.882 153.710,322.370 154.001,319.129 154.205 L 314.858 154.473 314.181 153.137 C 313.808 152.401,313.279 151.530,313.005 151.200 C 312.732 150.870,312.391 150.110,312.249 149.510 C 312.106 148.911,311.542 147.761,310.995 146.955 C 310.448 146.148,310.000 145.268,310.000 144.998 C 310.000 144.728,309.666 144.079,309.258 143.554 C 308.850 143.029,308.301 141.939,308.038 141.132 C 307.774 140.325,307.310 139.457,307.005 139.204 C 306.701 138.952,306.340 138.236,306.203 137.614 C 306.066 136.992,305.623 136.183,305.217 135.815 C 304.811 135.448,304.368 134.554,304.232 133.829 C 304.096 133.103,303.631 132.190,303.200 131.800 C 302.769 131.410,302.304 130.497,302.168 129.771 C 302.032 129.046,301.589 128.152,301.183 127.785 C 300.777 127.417,300.322 126.551,300.171 125.859 C 300.020 125.166,299.470 124.091,298.948 123.469 C 298.427 122.847,298.000 121.991,298.000 121.565 C 298.000 121.140,297.641 120.485,297.202 120.109 C 296.763 119.733,296.287 118.790,296.144 118.013 C 296.001 117.236,295.461 116.091,294.942 115.469 C 294.424 114.847,294.000 114.063,294.000 113.727 C 294.000 113.391,293.550 112.581,293.000 111.927 C 292.450 111.273,292.000 110.373,292.000 109.927 C 292.000 109.481,291.550 108.581,291.000 107.927 C 290.450 107.273,290.000 106.373,290.000 105.927 C 290.000 105.481,289.550 104.581,289.000 103.927 C 288.450 103.273,288.000 102.403,288.000 101.993 C 288.000 101.583,287.813 101.131,287.584 100.990 C 287.355 100.849,286.725 100.032,286.185 99.176 L 285.202 97.619 280.701 97.857 C 277.679 98.018,275.638 98.337,274.491 98.829 C 273.552 99.233,271.772 99.750,270.537 99.978 C 269.301 100.206,268.068 100.578,267.797 100.803 C 267.525 101.028,266.401 101.480,265.299 101.808 C 264.197 102.135,263.087 102.654,262.832 102.962 C 262.576 103.270,261.900 103.639,261.329 103.782 C 260.758 103.925,259.730 104.462,259.045 104.975 C 258.360 105.488,257.395 106.030,256.900 106.181 C 256.405 106.331,256.000 106.591,256.000 106.760 C 256.000 107.021,254.304 108.188,251.000 110.200 C 249.183 111.307,240.341 120.425,237.388 124.236 C 234.973 127.354,231.193 133.326,230.195 135.600 C 229.857 136.370,229.401 137.270,229.182 137.600 C 228.963 137.930,228.517 138.830,228.191 139.600 C 227.865 140.370,227.261 141.630,226.849 142.400 C 226.437 143.170,225.977 144.367,225.827 145.061 C 225.677 145.754,225.204 147.008,224.777 147.846 C 224.350 148.684,223.998 149.826,223.996 150.385 C 223.994 150.943,223.550 152.300,223.009 153.400 C 222.451 154.534,222.020 156.127,222.013 157.079 C 222.006 158.003,221.569 160.163,221.041 161.879 C 218.941 168.717,218.900 199.180,220.985 203.182 C 221.404 203.986,221.811 205.919,221.957 207.807 C 222.114 209.825,222.469 211.445,222.896 212.097 C 223.273 212.673,223.699 213.921,223.842 214.872 C 223.985 215.822,224.415 217.140,224.797 217.800 C 225.180 218.460,225.707 219.884,225.968 220.965 C 226.230 222.046,226.794 223.375,227.222 223.919 C 227.650 224.463,228.000 225.219,228.000 225.600 C 228.000 225.981,228.340 226.724,228.756 227.253 C 229.171 227.781,229.811 228.840,230.177 229.607 C 231.206 231.759,232.143 233.348,233.113 234.581 C 233.601 235.201,234.000 235.878,234.000 236.086 C 234.000 237.877,248.036 251.726,252.650 254.489 C 253.282 254.867,254.160 255.403,254.600 255.679 C 257.625 257.575,258.309 257.952,259.200 258.212 C 259.750 258.373,260.650 258.815,261.200 259.193 C 261.750 259.572,262.800 259.996,263.532 260.137 C 264.265 260.278,265.325 260.755,265.886 261.196 C 266.448 261.638,267.470 262.000,268.157 262.000 C 268.844 262.000,270.252 262.450,271.285 263.000 C 272.461 263.626,273.815 264.000,274.906 264.000 C 275.865 264.000,278.078 264.395,279.825 264.877 C 284.567 266.186,297.194 266.199,303.077 264.900 C 305.319 264.405,307.749 263.996,308.477 263.991 C 309.205 263.986,310.522 263.655,311.404 263.254 C 312.286 262.853,313.681 262.399,314.503 262.245 C 315.325 262.090,316.943 261.524,318.099 260.986 C 319.255 260.448,320.491 260.006,320.846 260.004 C 321.201 260.002,321.936 259.651,322.478 259.225 C 323.020 258.798,323.977 258.321,324.605 258.163 C 325.233 258.005,326.369 257.454,327.129 256.938 C 327.889 256.422,328.729 256.000,328.994 256.000 C 329.259 256.000,329.802 255.640,330.200 255.200 C 330.598 254.760,331.137 254.400,331.398 254.400 C 331.856 254.400,333.158 253.510,336.370 251.000 C 337.215 250.340,338.418 249.440,339.044 249.000 C 341.589 247.210,345.911 243.201,347.908 240.777 C 349.076 239.360,350.518 237.660,351.112 237.000 C 351.707 236.340,352.328 235.473,352.493 235.074 C 352.658 234.675,352.975 234.461,353.197 234.598 C 353.785 234.962,353.690 237.288,353.020 238.890 C 352.701 239.653,352.262 241.702,352.043 243.444 C 351.825 245.185,351.280 247.417,350.832 248.405 C 350.384 249.392,350.014 250.798,350.009 251.529 C 350.004 252.260,349.567 253.610,349.038 254.529 C 348.510 255.448,347.955 256.955,347.807 257.877 C 347.659 258.799,347.293 259.757,346.994 260.005 C 346.696 260.252,346.326 261.025,346.173 261.722 C 345.865 263.125,343.827 267.269,342.715 268.754 C 342.322 269.279,342.000 270.030,342.000 270.423 C 342.000 270.817,341.550 271.673,341.000 272.327 C 340.450 272.981,340.000 273.690,340.000 273.903 C 340.000 274.116,339.505 274.939,338.900 275.733 C 338.295 276.526,336.900 278.455,335.800 280.019 C 332.659 284.486,328.886 288.584,324.600 292.182 C 323.060 293.475,321.710 294.662,321.600 294.818 C 321.383 295.127,318.507 297.323,316.640 298.604 C 313.870 300.506,313.312 300.847,311.753 301.598 C 310.847 302.034,309.881 302.662,309.605 302.994 C 309.330 303.325,308.404 303.806,307.548 304.063 C 306.691 304.320,305.791 304.770,305.546 305.065 C 305.302 305.359,304.809 305.601,304.451 305.602 C 304.093 305.602,302.720 306.142,301.400 306.800 C 300.080 307.458,298.571 307.998,298.047 307.998 C 297.523 307.999,296.529 308.350,295.838 308.777 C 295.147 309.204,293.505 309.730,292.191 309.946 C 290.876 310.162,289.146 310.617,288.346 310.956 C 287.540 311.297,284.506 311.761,281.546 311.995 C 278.606 312.228,274.850 312.583,273.200 312.784 C 271.361 313.008,268.575 313.003,266.000 312.771 C 263.690 312.563,259.247 312.225,256.128 312.021 C 252.247 311.767,250.051 311.440,249.175 310.987 C 248.470 310.623,246.703 310.156,245.247 309.950 C 243.791 309.744,241.919 309.221,241.088 308.788 C 240.256 308.355,238.996 307.999,238.288 307.997 C 237.579 307.996,236.460 307.634,235.800 307.194 C 235.140 306.753,233.886 306.197,233.014 305.958 C 232.142 305.719,231.008 305.193,230.495 304.789 C 229.982 304.386,228.986 303.933,228.281 303.784 C 227.577 303.636,226.640 303.197,226.200 302.809 C 225.760 302.422,224.860 301.977,224.200 301.821 C 223.540 301.665,222.697 301.265,222.328 300.932 C 221.617 300.291,219.848 299.252,217.714 298.222 C 217.007 297.881,216.243 297.253,216.015 296.828 C 215.787 296.402,215.235 295.938,214.789 295.796 C 211.420 294.727,192.000 275.769,192.000 273.549 C 192.000 273.338,191.100 272.083,190.000 270.762 C 188.900 269.440,188.000 268.002,188.000 267.567 C 188.000 267.131,187.712 266.665,187.361 266.530 C 187.010 266.395,186.382 265.545,185.966 264.642 C 185.550 263.739,185.037 262.730,184.826 262.400 C 184.393 261.724,183.695 260.348,182.266 257.351 C 181.729 256.224,181.105 255.188,180.879 255.049 C 180.654 254.910,180.351 254.094,180.206 253.237 C 180.061 252.379,179.506 251.085,178.971 250.361 C 178.437 249.637,178.000 248.506,178.000 247.848 C 178.000 247.190,177.635 246.263,177.188 245.788 C 176.683 245.250,176.281 244.108,176.123 242.762 C 175.984 241.573,175.529 240.138,175.113 239.573 C 174.670 238.971,174.264 237.563,174.132 236.173 C 174.009 234.868,173.544 233.170,173.099 232.400 C 172.490 231.344,172.214 229.869,171.978 226.400 C 171.782 223.524,171.390 221.125,170.932 220.000 C 169.840 217.316,169.851 188.785,170.945 186.000 C 171.340 184.996,171.805 182.254,171.996 179.800 C 172.229 176.819,172.605 174.820,173.161 173.600 C 173.613 172.610,173.986 171.152,173.991 170.360 C 173.996 169.567,174.437 168.098,174.970 167.094 C 175.504 166.091,176.065 164.399,176.217 163.335 C 176.370 162.271,176.810 160.860,177.195 160.200 C 177.581 159.540,177.993 158.357,178.111 157.572 C 178.230 156.787,178.793 155.457,179.363 154.616 C 179.933 153.776,180.400 152.596,180.400 151.993 C 180.400 151.391,180.661 150.682,180.980 150.417 C 181.298 150.152,181.770 149.275,182.029 148.468 C 182.287 147.661,182.817 146.640,183.206 146.200 C 183.595 145.760,184.035 144.827,184.183 144.128 C 184.330 143.428,184.712 142.639,185.030 142.375 C 185.349 142.111,185.973 141.153,186.417 140.247 C 186.861 139.341,187.663 137.880,188.198 137.000 C 188.732 136.120,189.547 134.770,190.007 134.000 C 192.457 129.899,194.605 126.958,197.457 123.800 C 198.252 122.920,199.327 121.570,199.847 120.800 C 202.236 117.262,207.334 111.957,212.149 108.000 C 213.621 106.790,215.675 105.038,216.713 104.107 C 217.751 103.176,218.712 102.411,218.849 102.407 C 218.986 102.403,220.306 101.410,221.782 100.200 C 223.258 98.990,224.648 98.000,224.870 98.000 C 225.092 98.000,225.752 97.630,226.337 97.177 C 228.155 95.770,230.979 94.015,231.438 94.007 C 231.679 94.003,232.193 93.650,232.579 93.223 C 232.966 92.795,233.796 92.333,234.423 92.195 C 235.050 92.057,235.976 91.623,236.481 91.231 C 236.987 90.838,238.061 90.301,238.868 90.038 C 239.675 89.774,240.543 89.310,240.796 89.005 C 241.048 88.701,241.828 88.328,242.528 88.177 C 243.227 88.026,244.536 87.475,245.435 86.952 C 246.334 86.428,247.327 86.000,247.641 86.000 C 247.955 86.000,248.839 85.664,249.606 85.254 C 250.373 84.843,251.978 84.298,253.173 84.042 C 254.368 83.787,255.562 83.398,255.826 83.178 C 256.091 82.959,257.683 82.516,259.364 82.194 C 261.046 81.873,262.949 81.337,263.593 81.004 C 264.238 80.670,266.438 80.224,268.482 80.011 C 270.527 79.798,273.640 79.356,275.400 79.029 C 280.298 78.118,281.185 78.070,290.200 78.224 C 296.143 78.325,299.302 78.551,301.000 78.995 M122.593 83.304 C 120.822 84.731,116.337 89.582,114.857 91.670 L 113.915 93.000 115.163 91.600 C 115.849 90.830,117.443 89.008,118.705 87.550 C 119.967 86.093,121.652 84.519,122.448 84.054 C 123.950 83.176,125.158 81.997,124.549 82.004 C 124.357 82.006,123.477 82.591,122.593 83.304 M160.980 91.783 C 161.295 93.141,161.962 94.506,162.743 95.397 C 163.435 96.184,164.000 96.888,164.000 96.962 C 164.000 97.596,165.320 104.421,165.796 106.249 C 166.128 107.524,166.427 109.925,166.460 111.584 C 166.511 114.139,166.557 114.325,166.760 112.800 C 166.892 111.810,166.865 109.920,166.701 108.600 C 166.536 107.280,166.242 104.910,166.049 103.334 C 165.700 100.502,163.953 95.163,162.993 94.000 C 162.721 93.670,162.127 92.545,161.672 91.500 C 160.585 89.003,160.355 89.097,160.980 91.783 M110.938 97.724 C 110.474 98.426,109.984 99.540,109.849 100.200 C 109.677 101.044,109.968 100.705,110.829 99.060 C 112.186 96.466,112.245 95.750,110.938 97.724 M108.830 102.164 C 108.572 102.475,108.276 103.420,108.172 104.264 L 107.984 105.800 108.533 104.158 C 108.835 103.254,109.209 102.309,109.364 102.058 C 109.763 101.413,109.391 101.487,108.830 102.164 M107.337 111.800 C 107.339 113.560,107.409 114.230,107.493 113.289 C 107.578 112.349,107.577 110.909,107.491 110.089 C 107.405 109.270,107.336 110.040,107.337 111.800 M79.708 110.901 C 78.596 111.330,79.427 111.405,85.673 111.433 C 93.819 111.470,94.080 110.916,86.065 110.600 C 82.539 110.462,80.607 110.553,79.708 110.901 M70.052 114.030 C 69.530 114.239,68.540 114.884,67.852 115.463 C 66.225 116.833,67.747 116.444,70.095 114.890 C 72.101 113.562,72.084 113.217,70.052 114.030 M165.874 117.100 C 165.563 119.109,163.349 129.690,162.993 130.866 C 162.788 131.542,162.833 131.684,163.154 131.381 C 163.397 131.151,163.786 129.891,164.016 128.581 C 164.247 127.272,164.766 125.390,165.169 124.400 C 165.572 123.410,166.024 121.025,166.172 119.100 C 166.449 115.510,166.287 114.426,165.874 117.100 M61.833 120.700 C 60.590 122.185,59.218 123.820,58.786 124.334 C 58.354 124.848,58.000 125.488,58.000 125.756 C 58.000 126.025,57.550 126.855,57.000 127.600 C 56.405 128.407,56.017 129.450,56.041 130.178 L 56.082 131.400 56.379 130.154 C 56.543 129.469,57.134 128.299,57.694 127.554 C 58.253 126.809,59.165 125.300,59.720 124.200 C 60.275 123.100,61.389 121.570,62.197 120.800 C 63.547 119.513,64.662 118.000,64.261 118.000 C 64.169 118.000,63.076 119.215,61.833 120.700 M55.094 134.054 C 53.911 138.322,53.724 144.260,54.702 146.472 C 55.149 147.481,55.642 149.093,55.799 150.054 C 55.956 151.014,56.403 152.160,56.793 152.600 C 57.183 153.040,57.713 154.061,57.971 154.868 C 58.230 155.675,58.707 156.557,59.033 156.828 C 59.820 157.481,59.187 155.748,57.722 153.238 C 55.361 149.193,54.271 141.320,55.382 136.335 C 56.269 132.351,56.050 130.607,55.094 134.054 M160.973 135.819 C 160.548 136.909,159.255 139.640,158.100 141.889 C 155.811 146.346,155.635 146.855,156.723 145.870 C 157.812 144.884,162.175 135.126,161.898 134.295 C 161.815 134.044,161.398 134.730,160.973 135.819 M154.999 148.138 C 154.047 149.432,152.443 151.949,151.391 153.800 C 147.417 160.794,146.712 162.427,148.800 159.800 C 149.460 158.969,150.000 157.956,150.000 157.548 C 150.000 157.141,150.640 155.968,151.423 154.943 C 152.205 153.918,153.216 152.342,153.669 151.440 C 154.122 150.538,154.761 149.495,155.088 149.123 C 155.415 148.751,155.618 148.255,155.540 148.021 C 155.452 147.757,155.248 147.801,154.999 148.138 M61.135 160.160 C 61.869 161.011,63.473 162.719,64.699 163.954 C 65.925 165.189,66.359 165.519,65.664 164.686 C 64.969 163.853,64.400 163.010,64.400 162.811 C 64.400 162.273,62.371 160.213,61.000 159.359 L 59.800 158.611 61.135 160.160 M146.046 163.245 C 145.301 164.142,144.255 165.780,143.722 166.886 C 140.742 173.062,138.443 175.885,136.105 176.235 C 135.070 176.390,134.522 176.628,134.802 176.801 C 135.445 177.199,95.280 177.066,94.000 176.666 C 93.134 176.396,93.161 176.451,94.200 177.077 C 95.771 178.024,136.801 178.440,137.565 177.517 C 140.019 174.556,141.541 172.375,141.918 171.281 C 142.167 170.556,142.738 169.497,143.186 168.927 C 143.634 168.358,144.000 167.660,144.000 167.377 C 144.000 167.093,144.417 166.353,144.926 165.731 C 145.895 164.548,147.762 161.595,147.533 161.607 C 147.460 161.611,146.791 162.348,146.046 163.245 M68.400 167.153 C 68.400 167.524,71.853 169.765,73.000 170.138 C 73.591 170.331,73.501 170.151,72.659 169.452 C 71.226 168.262,68.400 166.737,68.400 167.153 M74.925 171.300 C 75.345 171.685,75.974 172.000,76.323 172.000 C 76.672 172.000,77.624 172.462,78.438 173.027 C 79.537 173.788,80.317 174.020,81.460 173.927 C 82.889 173.809,82.711 173.702,79.000 172.447 C 76.800 171.702,74.812 170.982,74.581 170.847 C 74.351 170.711,74.506 170.915,74.925 171.300 M84.976 175.370 C 85.404 175.717,86.394 175.980,87.176 175.956 L 88.600 175.912 86.894 175.576 C 85.955 175.391,84.965 175.127,84.694 174.990 C 84.422 174.853,84.549 175.024,84.976 175.370 M145.976 184.595 C 145.649 184.923,144.550 185.346,143.535 185.535 C 142.519 185.725,141.083 186.244,140.344 186.688 C 139.605 187.133,138.303 187.602,137.450 187.731 C 136.598 187.860,135.594 188.243,135.220 188.582 C 134.845 188.921,133.715 189.352,132.707 189.540 C 131.700 189.729,130.384 190.269,129.784 190.741 C 129.183 191.214,128.201 191.600,127.600 191.600 C 126.999 191.600,126.058 191.954,125.509 192.386 C 124.959 192.818,123.633 193.369,122.561 193.609 C 121.490 193.849,120.302 194.327,119.921 194.672 C 119.540 195.016,118.381 195.456,117.345 195.650 C 116.309 195.843,115.145 196.288,114.759 196.637 C 114.373 196.986,113.312 197.440,112.401 197.644 C 111.491 197.849,110.263 198.356,109.673 198.771 C 109.083 199.186,107.930 199.639,107.111 199.779 C 106.292 199.918,105.482 200.275,105.311 200.571 C 105.140 200.867,103.967 201.323,102.705 201.582 C 101.442 201.842,100.255 202.331,100.066 202.668 C 99.878 203.005,98.854 203.443,97.792 203.641 C 96.730 203.839,95.577 204.251,95.230 204.556 C 94.884 204.861,93.617 205.316,92.416 205.569 C 91.215 205.821,89.955 206.275,89.616 206.577 C 89.277 206.878,88.196 207.340,87.214 207.601 C 86.232 207.863,84.993 208.420,84.460 208.839 C 83.928 209.257,82.911 209.600,82.200 209.600 C 81.489 209.600,80.458 209.954,79.908 210.387 C 79.358 210.819,78.168 211.292,77.265 211.436 C 76.361 211.581,75.042 212.127,74.333 212.649 C 73.615 213.179,72.483 213.600,71.776 213.600 C 71.079 213.600,70.072 213.943,69.540 214.361 C 69.007 214.780,67.775 215.338,66.800 215.600 C 65.825 215.862,64.593 216.420,64.060 216.839 C 63.528 217.257,62.513 217.600,61.805 217.600 C 59.279 217.600,56.436 220.527,57.824 221.697 C 58.152 221.974,59.703 223.425,61.270 224.922 C 62.836 226.419,64.790 227.987,65.610 228.405 C 66.430 228.824,67.208 229.444,67.338 229.783 C 67.468 230.122,67.846 230.400,68.178 230.400 C 68.510 230.400,69.076 230.850,69.437 231.400 C 69.797 231.950,70.254 232.400,70.452 232.400 C 70.649 232.400,71.664 233.211,72.706 234.203 C 75.357 236.725,77.991 238.800,78.542 238.800 C 78.798 238.800,79.232 239.160,79.507 239.600 C 79.782 240.040,80.193 240.400,80.421 240.400 C 80.649 240.400,81.785 241.345,82.945 242.500 C 86.321 245.859,89.335 248.403,90.212 248.631 C 92.084 249.119,92.200 250.250,92.200 268.067 C 92.200 277.234,92.050 284.884,91.867 285.067 C 91.684 285.250,85.294 285.490,77.667 285.600 L 63.800 285.800 63.693 296.551 C 63.618 304.148,63.720 307.463,64.042 307.851 C 64.777 308.736,175.846 308.663,177.111 307.777 C 178.401 306.874,178.511 288.320,177.236 286.744 L 176.472 285.800 162.869 285.600 C 155.387 285.490,149.116 285.250,148.933 285.067 C 148.750 284.883,148.559 262.317,148.509 234.919 C 148.442 198.206,148.298 184.959,147.960 184.552 C 147.368 183.838,146.719 183.852,145.976 184.595 M148.000 235.596 C 148.000 273.519,148.112 285.152,148.480 285.520 C 148.834 285.874,152.392 286.000,162.004 286.000 C 172.631 286.000,175.191 286.105,175.824 286.567 C 176.550 287.098,176.608 287.772,176.719 297.094 L 176.838 307.054 175.800 307.527 C 174.286 308.217,65.170 308.210,64.480 307.520 C 63.797 306.837,63.797 287.163,64.480 286.480 C 64.834 286.126,68.478 286.000,78.391 286.000 C 89.900 286.000,91.949 285.911,92.711 285.377 L 93.600 284.755 93.600 268.256 L 93.600 251.757 92.409 249.878 C 91.754 248.845,91.028 248.000,90.797 248.000 C 90.238 248.000,84.574 243.312,79.891 238.975 C 79.401 238.521,77.954 237.448,76.675 236.591 C 75.396 235.734,73.578 234.305,72.633 233.416 C 69.233 230.215,66.658 228.000,66.338 228.000 C 66.007 228.000,62.302 224.926,59.451 222.287 L 57.902 220.853 59.010 219.826 C 59.619 219.261,60.856 218.616,61.759 218.392 C 62.661 218.168,64.318 217.538,65.440 216.992 C 66.562 216.447,67.711 216.000,67.993 216.000 C 68.275 216.000,69.067 215.659,69.753 215.243 C 70.439 214.827,71.630 214.355,72.400 214.195 C 73.170 214.034,74.536 213.475,75.435 212.952 C 76.334 212.428,77.525 212.000,78.081 212.000 C 78.637 212.000,79.550 211.640,80.109 211.200 C 80.669 210.760,81.552 210.400,82.073 210.400 C 82.594 210.400,84.096 209.866,85.410 209.213 C 86.725 208.559,88.075 208.019,88.411 208.013 C 88.747 208.006,89.394 207.740,89.848 207.422 C 90.302 207.104,91.557 206.629,92.637 206.368 C 93.716 206.106,95.230 205.569,96.000 205.173 C 96.770 204.777,98.045 204.258,98.833 204.018 C 99.621 203.778,100.964 203.226,101.817 202.791 C 102.671 202.356,103.757 202.000,104.231 202.000 C 104.704 202.000,105.521 201.663,106.046 201.252 C 106.571 200.841,107.630 200.369,108.400 200.204 C 109.170 200.038,110.536 199.475,111.435 198.952 C 112.334 198.428,113.393 198.000,113.788 198.000 C 114.183 198.000,115.067 197.659,115.753 197.243 C 116.439 196.827,117.630 196.355,118.400 196.193 C 119.170 196.032,120.280 195.561,120.866 195.147 C 121.453 194.733,122.533 194.275,123.266 194.129 C 124.000 193.984,125.392 193.445,126.360 192.932 C 127.327 192.420,128.386 192.000,128.712 192.000 C 129.039 192.000,129.867 191.659,130.553 191.243 C 131.239 190.827,132.430 190.357,133.200 190.200 C 133.970 190.043,135.140 189.588,135.800 189.190 C 136.460 188.793,137.720 188.345,138.600 188.196 C 139.480 188.047,140.695 187.577,141.300 187.150 C 141.905 186.724,143.226 186.222,144.235 186.033 C 145.244 185.844,146.277 185.483,146.530 185.230 C 147.972 183.788,148.000 184.735,148.000 235.596 " stroke="none" fill="#919090" fill-rule="evenodd" data-index="3"></path><path id="path4" d="M280.200 78.257 C 279.320 78.355,277.160 78.702,275.400 79.029 C 273.640 79.356,270.527 79.798,268.482 80.011 C 266.438 80.224,264.238 80.670,263.593 81.004 C 262.949 81.337,261.046 81.873,259.364 82.194 C 257.683 82.516,256.091 82.959,255.826 83.178 C 255.562 83.398,254.368 83.787,253.173 84.042 C 251.978 84.298,250.373 84.843,249.606 85.254 C 248.839 85.664,247.955 86.000,247.641 86.000 C 247.327 86.000,246.334 86.428,245.435 86.952 C 244.536 87.475,243.227 88.026,242.528 88.177 C 241.828 88.328,241.048 88.701,240.796 89.005 C 240.543 89.310,239.675 89.774,238.868 90.038 C 238.061 90.301,236.987 90.838,236.481 91.231 C 235.976 91.623,235.050 92.057,234.423 92.195 C 233.796 92.333,232.966 92.795,232.579 93.223 C 232.193 93.650,231.679 94.003,231.438 94.007 C 230.979 94.015,228.155 95.770,226.337 97.177 C 225.752 97.630,225.092 98.000,224.870 98.000 C 224.648 98.000,223.258 98.990,221.782 100.200 C 220.306 101.410,218.986 102.403,218.849 102.407 C 218.712 102.411,217.751 103.176,216.713 104.107 C 215.675 105.038,213.621 106.790,212.149 108.000 C 207.334 111.957,202.236 117.262,199.847 120.800 C 199.327 121.570,198.252 122.920,197.457 123.800 C 194.605 126.958,192.457 129.899,190.007 134.000 C 189.547 134.770,188.732 136.120,188.198 137.000 C 187.663 137.880,186.861 139.341,186.417 140.247 C 185.973 141.153,185.349 142.111,185.030 142.375 C 184.712 142.639,184.330 143.428,184.183 144.128 C 184.035 144.827,183.595 145.760,183.206 146.200 C 182.817 146.640,182.287 147.661,182.029 148.468 C 181.770 149.275,181.298 150.152,180.980 150.417 C 180.661 150.682,180.400 151.391,180.400 151.993 C 180.400 152.596,179.933 153.776,179.363 154.616 C 178.793 155.457,178.230 156.787,178.111 157.572 C 177.993 158.357,177.581 159.540,177.195 160.200 C 176.810 160.860,176.370 162.271,176.217 163.335 C 176.065 164.399,175.504 166.091,174.970 167.094 C 174.437 168.098,173.996 169.567,173.991 170.360 C 173.986 171.152,173.613 172.610,173.161 173.600 C 172.605 174.820,172.229 176.819,171.996 179.800 C 171.805 182.254,171.340 184.996,170.945 186.000 C 169.851 188.785,169.840 217.316,170.932 220.000 C 171.390 221.125,171.782 223.524,171.978 226.400 C 172.214 229.869,172.490 231.344,173.099 232.400 C 173.544 233.170,174.009 234.868,174.132 236.173 C 174.264 237.563,174.670 238.971,175.113 239.573 C 175.529 240.138,175.984 241.573,176.123 242.762 C 176.281 244.108,176.683 245.250,177.188 245.788 C 177.635 246.263,178.000 247.190,178.000 247.848 C 178.000 248.506,178.437 249.637,178.971 250.361 C 179.506 251.085,180.061 252.379,180.206 253.237 C 180.351 254.094,180.654 254.910,180.879 255.049 C 181.105 255.188,181.729 256.224,182.266 257.351 C 183.695 260.348,184.393 261.724,184.826 262.400 C 185.037 262.730,185.550 263.739,185.966 264.642 C 186.382 265.545,187.010 266.395,187.361 266.530 C 187.712 266.665,188.000 267.131,188.000 267.567 C 188.000 268.002,188.900 269.440,190.000 270.762 C 191.100 272.083,192.000 273.338,192.000 273.549 C 192.000 275.769,211.420 294.727,214.789 295.796 C 215.235 295.938,215.787 296.402,216.015 296.828 C 216.243 297.253,217.007 297.881,217.714 298.222 C 219.848 299.252,221.617 300.291,222.328 300.932 C 222.697 301.265,223.540 301.665,224.200 301.821 C 224.860 301.977,225.760 302.422,226.200 302.809 C 226.640 303.197,227.577 303.636,228.281 303.784 C 228.986 303.933,229.982 304.386,230.495 304.789 C 231.008 305.193,232.142 305.719,233.014 305.958 C 233.886 306.197,235.140 306.753,235.800 307.194 C 236.460 307.634,237.579 307.996,238.288 307.997 C 238.996 307.999,240.256 308.355,241.088 308.788 C 241.919 309.221,243.791 309.744,245.247 309.950 C 246.703 310.156,248.470 310.623,249.175 310.987 C 250.051 311.440,252.247 311.767,256.128 312.021 C 259.247 312.225,263.690 312.563,266.000 312.771 C 268.575 313.003,271.361 313.008,273.200 312.784 C 274.850 312.583,278.606 312.228,281.546 311.995 C 284.506 311.761,287.540 311.297,288.346 310.956 C 289.146 310.617,290.876 310.162,292.191 309.946 C 293.505 309.730,295.147 309.204,295.838 308.777 C 296.529 308.350,297.523 307.999,298.047 307.998 C 298.571 307.998,300.080 307.458,301.400 306.800 C 302.720 306.142,304.093 305.602,304.451 305.602 C 304.809 305.601,305.302 305.359,305.546 305.065 C 305.791 304.770,306.691 304.320,307.548 304.063 C 308.404 303.806,309.330 303.325,309.605 302.994 C 309.881 302.662,310.847 302.034,311.753 301.598 C 313.312 300.847,313.870 300.506,316.640 298.604 C 318.507 297.323,321.383 295.127,321.600 294.818 C 321.710 294.662,323.060 293.475,324.600 292.182 C 328.886 288.584,332.659 284.486,335.800 280.019 C 336.900 278.455,338.295 276.526,338.900 275.733 C 339.505 274.939,340.000 274.116,340.000 273.903 C 340.000 273.690,340.450 272.981,341.000 272.327 C 341.550 271.673,342.000 270.817,342.000 270.423 C 342.000 270.030,342.322 269.279,342.715 268.754 C 343.827 267.269,345.865 263.125,346.173 261.722 C 346.326 261.025,346.696 260.252,346.994 260.005 C 347.293 259.757,347.659 258.799,347.807 257.877 C 347.955 256.955,348.510 255.448,349.038 254.529 C 349.567 253.610,350.004 252.260,350.009 251.529 C 350.014 250.798,350.384 249.392,350.832 248.405 C 351.280 247.417,351.825 245.185,352.043 243.444 C 352.262 241.702,352.701 239.653,353.020 238.890 C 353.690 237.288,353.785 234.962,353.197 234.598 C 352.975 234.461,352.658 234.675,352.493 235.074 C 352.328 235.473,351.707 236.340,351.112 237.000 C 350.518 237.660,349.076 239.360,347.908 240.777 C 345.911 243.201,341.589 247.210,339.044 249.000 C 338.418 249.440,337.215 250.340,336.370 251.000 C 333.158 253.510,331.856 254.400,331.398 254.400 C 331.137 254.400,330.598 254.760,330.200 255.200 C 329.802 255.640,329.259 256.000,328.994 256.000 C 328.729 256.000,327.889 256.422,327.129 256.938 C 326.369 257.454,325.233 258.005,324.605 258.163 C 323.977 258.321,323.020 258.798,322.478 259.225 C 321.936 259.651,321.201 260.002,320.846 260.004 C 320.491 260.006,319.255 260.448,318.099 260.986 C 316.943 261.524,315.325 262.090,314.503 262.245 C 313.681 262.399,312.286 262.853,311.404 263.254 C 310.522 263.655,309.205 263.986,308.477 263.991 C 307.749 263.996,305.319 264.405,303.077 264.900 C 297.194 266.199,284.567 266.186,279.825 264.877 C 278.078 264.395,275.865 264.000,274.906 264.000 C 273.815 264.000,272.461 263.626,271.285 263.000 C 270.252 262.450,268.844 262.000,268.157 262.000 C 267.470 262.000,266.448 261.638,265.886 261.196 C 265.325 260.755,264.265 260.278,263.532 260.137 C 262.800 259.996,261.750 259.572,261.200 259.193 C 260.650 258.815,259.750 258.373,259.200 258.212 C 258.309 257.952,257.625 257.575,254.600 255.679 C 254.160 255.403,253.282 254.867,252.650 254.489 C 248.036 251.726,234.000 237.877,234.000 236.086 C 234.000 235.878,233.601 235.201,233.113 234.581 C 232.143 233.348,231.206 231.759,230.177 229.607 C 229.811 228.840,229.171 227.781,228.756 227.253 C 228.340 226.724,228.000 225.981,228.000 225.600 C 228.000 225.219,227.650 224.463,227.222 223.919 C 226.794 223.375,226.230 222.046,225.968 220.965 C 225.707 219.884,225.180 218.460,224.797 217.800 C 224.415 217.140,223.985 215.822,223.842 214.872 C 223.699 213.921,223.273 212.673,222.896 212.097 C 222.469 211.445,222.114 209.825,221.957 207.807 C 221.811 205.919,221.404 203.986,220.985 203.182 C 218.900 199.180,218.941 168.717,221.041 161.879 C 221.569 160.163,222.006 158.003,222.013 157.079 C 222.020 156.127,222.451 154.534,223.009 153.400 C 223.550 152.300,223.994 150.943,223.996 150.385 C 223.998 149.826,224.350 148.684,224.777 147.846 C 225.204 147.008,225.677 145.754,225.827 145.061 C 225.977 144.367,226.437 143.170,226.849 142.400 C 227.261 141.630,227.865 140.370,228.191 139.600 C 228.517 138.830,228.963 137.930,229.182 137.600 C 229.401 137.270,229.857 136.370,230.195 135.600 C 231.193 133.326,234.973 127.354,237.388 124.236 C 240.341 120.425,249.183 111.307,251.000 110.200 C 254.304 108.188,256.000 107.021,256.000 106.760 C 256.000 106.591,256.405 106.331,256.900 106.181 C 257.395 106.030,258.360 105.488,259.045 104.975 C 259.730 104.462,260.758 103.925,261.329 103.782 C 261.900 103.639,262.576 103.270,262.832 102.962 C 263.087 102.654,264.197 102.135,265.299 101.808 C 266.401 101.480,267.525 101.028,267.797 100.803 C 268.068 100.578,269.301 100.206,270.537 99.978 C 271.772 99.750,273.552 99.233,274.491 98.829 C 275.638 98.337,277.679 98.018,280.701 97.857 L 285.202 97.619 286.185 99.176 C 286.725 100.032,287.355 100.849,287.584 100.990 C 287.813 101.131,288.000 101.583,288.000 101.993 C 288.000 102.403,288.450 103.273,289.000 103.927 C 289.550 104.581,290.000 105.481,290.000 105.927 C 290.000 106.373,290.450 107.273,291.000 107.927 C 291.550 108.581,292.000 109.481,292.000 109.927 C 292.000 110.373,292.450 111.273,293.000 111.927 C 293.550 112.581,294.000 113.391,294.000 113.727 C 294.000 114.063,294.424 114.847,294.942 115.469 C 295.461 116.091,296.001 117.236,296.144 118.013 C 296.287 118.790,296.763 119.733,297.202 120.109 C 297.641 120.485,298.000 121.140,298.000 121.565 C 298.000 121.991,298.427 122.847,298.948 123.469 C 299.470 124.091,300.020 125.166,300.171 125.859 C 300.322 126.551,300.777 127.417,301.183 127.785 C 301.589 128.152,302.032 129.046,302.168 129.771 C 302.304 130.497,302.769 131.410,303.200 131.800 C 303.631 132.190,304.096 133.103,304.232 133.829 C 304.368 134.554,304.811 135.448,305.217 135.815 C 305.623 136.183,306.066 136.992,306.203 137.614 C 306.340 138.236,306.701 138.952,307.005 139.204 C 307.310 139.457,307.774 140.325,308.038 141.132 C 308.301 141.939,308.850 143.029,309.258 143.554 C 309.666 144.079,310.000 144.728,310.000 144.998 C 310.000 145.268,310.448 146.148,310.995 146.955 C 311.542 147.761,312.106 148.911,312.249 149.510 C 312.391 150.110,312.732 150.870,313.005 151.200 C 313.279 151.530,313.808 152.401,314.181 153.137 L 314.858 154.473 319.129 154.205 C 322.370 154.001,323.882 153.710,325.400 152.999 C 326.500 152.483,327.926 151.946,328.568 151.805 C 329.211 151.665,330.180 151.202,330.722 150.775 C 331.264 150.349,331.936 150.000,332.214 150.000 C 333.701 150.000,342.464 141.741,343.886 139.000 C 344.228 138.340,344.754 137.656,345.054 137.480 C 345.354 137.304,345.600 136.982,345.600 136.763 C 345.600 136.545,346.140 135.212,346.800 133.800 C 347.460 132.388,348.004 130.821,348.009 130.317 C 348.015 129.813,348.375 128.062,348.809 126.427 C 349.759 122.856,349.824 119.133,348.979 116.750 C 348.638 115.788,348.206 113.791,348.018 112.313 C 347.810 110.664,347.371 109.236,346.884 108.616 C 346.448 108.061,345.976 107.000,345.837 106.258 C 345.698 105.517,345.228 104.587,344.792 104.193 C 344.356 103.799,344.000 103.260,344.000 102.996 C 344.000 102.731,343.331 101.634,342.513 100.558 C 341.695 99.481,340.840 98.354,340.613 98.054 C 337.846 94.394,330.383 88.550,326.000 86.612 C 325.230 86.271,323.763 85.544,322.741 84.996 C 321.719 84.448,320.636 84.000,320.335 84.000 C 320.034 84.000,319.108 83.635,318.277 83.190 C 317.446 82.744,315.918 82.271,314.883 82.138 C 313.847 82.006,312.441 81.561,311.757 81.151 C 311.008 80.702,309.100 80.250,306.957 80.014 C 305.001 79.799,302.320 79.340,301.000 78.995 C 298.612 78.370,283.901 77.849,280.200 78.257 M298.309 79.415 C 298.940 79.729,301.669 80.179,304.373 80.414 C 307.660 80.699,309.624 81.059,310.296 81.500 C 310.849 81.862,312.349 82.282,313.629 82.433 C 315.000 82.595,316.375 83.037,316.974 83.508 C 317.533 83.948,318.788 84.427,319.763 84.573 C 320.737 84.720,321.751 85.100,322.015 85.418 C 322.279 85.736,323.234 86.218,324.138 86.489 C 325.041 86.759,326.096 87.296,326.480 87.680 C 326.865 88.065,327.649 88.498,328.223 88.642 C 328.798 88.786,329.679 89.285,330.182 89.752 C 332.179 91.604,333.314 92.413,334.235 92.645 C 334.766 92.778,335.200 93.131,335.200 93.429 C 335.200 93.728,335.555 94.162,335.988 94.394 C 337.095 94.986,339.122 97.170,340.988 99.779 C 341.861 101.001,342.702 102.000,342.857 102.000 C 343.011 102.000,343.341 102.614,343.588 103.365 C 343.836 104.115,344.282 104.823,344.579 104.937 C 344.877 105.051,345.243 105.872,345.393 106.760 C 345.543 107.649,346.055 108.870,346.529 109.473 C 347.183 110.305,347.453 111.361,347.646 113.842 C 347.786 115.641,348.222 117.955,348.615 118.984 C 349.300 120.777,349.300 120.946,348.618 123.111 C 348.226 124.352,347.789 126.734,347.645 128.403 C 347.451 130.665,347.157 131.728,346.492 132.574 C 346.002 133.197,345.600 134.120,345.600 134.623 C 345.600 135.127,345.150 136.073,344.600 136.727 C 344.050 137.381,343.600 138.138,343.600 138.410 C 343.600 139.034,341.221 141.594,335.786 146.818 C 335.338 147.248,334.763 147.600,334.509 147.600 C 334.254 147.600,333.810 147.932,333.523 148.339 C 333.235 148.745,332.312 149.303,331.472 149.579 C 330.632 149.855,329.851 150.324,329.737 150.621 C 329.622 150.918,328.690 151.276,327.665 151.417 C 326.639 151.557,325.260 152.061,324.600 152.536 C 323.545 153.295,322.871 153.400,319.031 153.400 L 314.661 153.400 314.354 152.257 C 314.185 151.628,313.786 150.818,313.468 150.457 C 313.149 150.096,312.768 149.229,312.620 148.532 C 312.472 147.834,311.911 146.790,311.375 146.211 C 310.839 145.632,310.400 144.808,310.400 144.379 C 310.400 143.951,310.049 143.249,309.621 142.821 C 309.193 142.393,308.651 141.334,308.418 140.468 C 308.185 139.602,307.737 138.680,307.423 138.419 C 307.109 138.158,306.740 137.436,306.603 136.814 C 306.466 136.192,306.023 135.383,305.617 135.015 C 305.211 134.648,304.768 133.754,304.632 133.029 C 304.496 132.303,304.038 131.396,303.615 131.013 C 303.192 130.630,302.727 129.751,302.583 129.059 C 302.439 128.366,302.009 127.530,301.628 127.200 C 301.247 126.870,300.717 125.835,300.451 124.900 C 300.185 123.965,299.728 123.200,299.435 123.200 C 299.124 123.200,298.797 122.543,298.650 121.622 C 298.511 120.754,298.065 119.809,297.660 119.522 C 297.254 119.235,296.797 118.330,296.645 117.511 C 296.493 116.693,296.031 115.787,295.618 115.498 C 295.206 115.209,294.742 114.299,294.588 113.476 C 294.430 112.634,293.977 111.802,293.553 111.575 C 293.071 111.317,292.800 110.738,292.800 109.967 C 292.800 109.230,292.442 108.419,291.879 107.881 C 291.372 107.396,290.740 106.254,290.475 105.341 C 290.210 104.429,289.734 103.584,289.418 103.462 C 289.103 103.341,288.722 102.592,288.573 101.798 C 288.409 100.925,287.927 100.108,287.351 99.731 C 286.828 99.388,286.400 98.881,286.400 98.603 C 286.400 96.984,274.703 96.885,272.918 98.489 C 272.523 98.844,271.030 99.344,269.600 99.600 C 268.170 99.856,266.730 100.305,266.400 100.596 C 266.070 100.887,265.056 101.324,264.147 101.566 C 263.237 101.808,262.285 102.257,262.030 102.564 C 261.776 102.870,261.092 103.241,260.510 103.387 C 259.929 103.533,258.933 104.090,258.296 104.626 C 257.660 105.162,256.893 105.600,256.592 105.600 C 256.291 105.600,255.810 105.934,255.523 106.343 C 255.235 106.751,254.589 107.215,254.087 107.374 C 253.585 107.532,252.719 108.053,252.163 108.531 C 251.607 109.009,250.589 109.850,249.903 110.400 C 245.578 113.862,235.648 124.559,235.328 126.100 C 235.203 126.705,234.867 127.200,234.583 127.200 C 234.084 127.200,233.393 128.291,231.605 131.900 C 231.142 132.835,230.598 133.600,230.397 133.600 C 230.196 133.600,229.808 134.365,229.533 135.300 C 229.259 136.235,228.732 137.221,228.364 137.490 C 227.995 137.760,227.572 138.625,227.424 139.413 C 227.276 140.200,226.818 141.182,226.407 141.593 C 225.995 142.005,225.534 143.165,225.383 144.171 C 225.233 145.177,224.971 146.000,224.803 146.000 C 224.355 146.000,223.693 147.945,223.466 149.931 C 223.357 150.883,222.964 151.998,222.592 152.409 C 222.160 152.886,221.783 154.349,221.547 156.459 C 221.318 158.500,220.929 160.036,220.529 160.479 C 220.025 161.036,219.804 162.599,219.537 167.498 C 219.349 170.964,218.993 174.250,218.747 174.800 C 217.960 176.557,217.812 184.852,218.512 187.897 C 218.854 189.384,219.243 193.390,219.375 196.800 C 219.588 202.277,219.715 203.136,220.470 204.168 C 221.131 205.072,221.359 206.065,221.479 208.568 C 221.592 210.930,221.839 212.085,222.397 212.858 C 222.818 213.439,223.283 214.833,223.432 215.955 C 223.581 217.078,224.031 218.375,224.433 218.838 C 224.834 219.301,225.285 220.496,225.435 221.493 C 225.584 222.491,226.033 223.633,226.432 224.032 C 226.831 224.431,227.342 225.443,227.568 226.281 C 227.793 227.118,228.343 228.116,228.789 228.498 C 229.235 228.880,229.600 229.613,229.600 230.126 C 229.600 230.640,230.050 231.483,230.600 232.000 C 231.150 232.517,231.600 233.197,231.600 233.512 C 231.600 233.827,232.050 234.619,232.600 235.273 C 233.150 235.927,233.600 236.713,233.600 237.021 C 233.600 237.330,234.050 237.876,234.600 238.237 C 235.150 238.597,235.600 239.062,235.600 239.269 C 235.600 239.477,236.378 240.414,237.330 241.352 C 238.281 242.290,239.182 243.376,239.332 243.766 C 239.482 244.157,239.946 244.566,240.365 244.675 C 240.784 244.784,241.219 245.231,241.333 245.667 C 241.447 246.103,241.897 246.553,242.333 246.667 C 242.769 246.781,243.219 247.231,243.333 247.667 C 243.447 248.103,243.908 248.555,244.357 248.673 C 244.806 248.790,245.282 249.227,245.414 249.643 C 245.546 250.059,245.908 250.400,246.218 250.400 C 246.528 250.400,247.076 250.850,247.437 251.400 C 247.797 251.950,248.273 252.400,248.493 252.400 C 248.714 252.400,249.497 252.895,250.232 253.500 C 252.963 255.745,253.943 256.400,254.567 256.400 C 254.920 256.400,255.515 256.759,255.891 257.198 C 256.266 257.636,257.210 258.205,257.987 258.461 C 258.764 258.717,259.850 259.241,260.400 259.626 C 260.950 260.010,262.114 260.447,262.986 260.597 C 263.859 260.746,264.814 261.213,265.109 261.634 C 265.494 262.184,266.124 262.400,267.345 262.400 C 268.502 262.400,269.452 262.701,270.322 263.342 C 271.295 264.060,272.316 264.339,274.611 264.512 C 276.473 264.653,278.305 265.070,279.407 265.604 C 281.798 266.761,302.260 266.709,304.041 265.541 C 304.624 265.159,306.378 264.766,308.223 264.605 C 309.970 264.452,312.120 263.995,313.000 263.589 C 313.880 263.184,315.277 262.730,316.103 262.581 C 316.930 262.432,318.020 261.985,318.525 261.588 C 319.030 261.191,320.110 260.741,320.925 260.588 C 321.740 260.435,322.817 259.987,323.318 259.593 C 323.818 259.199,324.943 258.685,325.816 258.450 C 326.689 258.215,327.716 257.657,328.098 257.211 C 328.480 256.765,329.132 256.400,329.547 256.400 C 329.962 256.400,330.535 256.120,330.819 255.777 C 331.104 255.434,331.921 254.909,332.636 254.611 C 333.351 254.312,334.136 253.692,334.382 253.234 C 334.627 252.775,335.175 252.400,335.600 252.400 C 336.025 252.400,336.565 252.040,336.800 251.600 C 337.035 251.160,337.489 250.800,337.807 250.800 C 338.384 250.800,339.932 249.588,342.021 247.500 C 342.626 246.895,343.229 246.400,343.360 246.400 C 343.727 246.400,348.400 241.645,348.400 241.272 C 348.400 241.092,348.805 240.579,349.300 240.133 C 349.795 239.687,350.406 238.979,350.659 238.561 C 351.574 237.042,351.928 238.462,351.597 242.326 C 351.377 244.883,351.068 246.283,350.611 246.787 C 350.242 247.196,349.753 248.829,349.512 250.461 C 349.225 252.409,348.847 253.564,348.391 253.886 C 347.954 254.195,347.633 255.111,347.509 256.403 C 347.377 257.785,347.040 258.690,346.457 259.233 C 345.871 259.779,345.600 260.512,345.600 261.554 C 345.600 262.569,345.333 263.318,344.798 263.802 C 344.357 264.201,343.808 265.228,343.577 266.084 C 343.347 266.941,342.899 267.740,342.583 267.862 C 342.267 267.983,341.809 268.824,341.565 269.731 C 341.320 270.638,340.778 271.620,340.360 271.913 C 339.942 272.206,339.600 272.691,339.600 272.992 C 339.600 273.293,339.150 274.073,338.600 274.727 C 338.050 275.381,337.600 276.164,337.600 276.469 C 337.600 276.773,337.105 277.483,336.500 278.046 C 335.140 279.312,334.067 280.700,333.469 281.964 C 332.767 283.449,326.670 290.000,325.989 290.000 C 325.775 290.000,325.600 290.274,325.600 290.610 C 325.600 290.945,325.145 291.393,324.590 291.604 C 324.034 291.815,323.475 292.261,323.347 292.594 C 323.219 292.927,322.932 293.200,322.710 293.200 C 322.488 293.200,321.721 293.695,321.007 294.300 C 320.293 294.905,319.189 295.800,318.554 296.288 C 317.919 296.777,316.700 297.722,315.845 298.388 C 314.990 299.055,314.116 299.600,313.903 299.600 C 313.690 299.600,312.981 300.050,312.327 300.600 C 311.673 301.150,310.863 301.600,310.527 301.600 C 310.191 301.600,309.381 302.050,308.727 302.600 C 308.073 303.150,307.217 303.600,306.823 303.600 C 306.430 303.600,305.672 303.943,305.140 304.361 C 304.607 304.780,303.368 305.337,302.386 305.599 C 301.404 305.860,300.325 306.319,299.990 306.618 C 299.654 306.917,298.574 307.278,297.590 307.421 C 296.605 307.563,295.322 308.015,294.738 308.424 C 294.122 308.856,292.423 309.324,290.693 309.538 C 289.053 309.742,287.245 310.214,286.676 310.587 C 284.109 312.269,253.360 312.181,250.384 310.483 C 249.517 309.987,247.893 309.607,246.035 309.464 C 244.404 309.338,242.947 309.039,242.799 308.798 C 242.470 308.266,239.054 307.200,237.681 307.200 C 237.135 307.200,236.479 306.913,236.222 306.563 C 235.966 306.213,234.883 305.763,233.816 305.563 C 232.697 305.354,231.655 304.885,231.353 304.454 C 231.065 304.043,230.133 303.596,229.282 303.460 C 228.431 303.323,227.423 302.867,227.041 302.446 C 226.660 302.024,225.754 301.568,225.029 301.432 C 224.303 301.296,223.387 300.828,222.993 300.392 C 222.599 299.956,221.943 299.600,221.535 299.600 C 221.128 299.600,220.411 299.159,219.942 298.620 C 219.474 298.081,218.583 297.528,217.963 297.392 C 217.343 297.256,216.726 296.797,216.591 296.372 C 216.456 295.947,216.132 295.600,215.871 295.600 C 215.386 295.600,210.292 291.959,208.293 290.183 C 207.684 289.642,207.009 289.200,206.793 289.200 C 206.577 289.200,206.400 288.924,206.400 288.587 C 206.400 288.251,206.099 287.859,205.731 287.718 C 205.052 287.458,200.400 282.979,200.400 282.587 C 200.400 282.189,197.629 279.600,197.203 279.600 C 196.971 279.600,196.607 279.145,196.396 278.590 C 196.185 278.034,195.739 277.475,195.406 277.347 C 195.073 277.219,194.800 276.888,194.800 276.612 C 194.800 276.336,194.267 275.439,193.616 274.620 C 192.965 273.800,192.322 272.786,192.189 272.365 C 192.055 271.944,191.692 271.600,191.381 271.600 C 191.070 271.600,190.701 271.145,190.562 270.589 C 190.422 270.034,189.969 269.397,189.554 269.175 C 189.139 268.953,188.800 268.400,188.800 267.946 C 188.800 267.492,188.260 266.617,187.600 266.000 C 186.940 265.383,186.400 264.501,186.400 264.040 C 186.400 263.578,186.049 262.849,185.621 262.421 C 185.193 261.993,184.647 260.919,184.409 260.034 C 184.171 259.150,183.737 258.286,183.445 258.113 C 183.152 257.941,182.698 257.139,182.436 256.332 C 182.174 255.525,181.712 254.659,181.411 254.409 C 181.109 254.159,180.739 253.225,180.589 252.335 C 180.438 251.444,179.977 250.377,179.563 249.963 C 179.150 249.550,178.695 248.444,178.554 247.506 C 178.412 246.568,177.941 245.409,177.508 244.932 C 177.010 244.383,176.615 243.174,176.435 241.646 C 176.276 240.298,175.852 238.900,175.476 238.484 C 175.067 238.033,174.707 236.729,174.561 235.170 C 174.410 233.566,174.017 232.170,173.516 231.457 C 172.874 230.544,172.681 229.500,172.554 226.257 C 172.341 220.827,172.088 219.189,171.280 218.000 C 170.229 216.454,170.328 190.072,171.393 188.014 C 171.874 187.082,172.228 185.017,172.488 181.619 C 172.737 178.365,173.126 176.037,173.594 175.000 C 173.990 174.120,174.428 172.343,174.567 171.051 C 174.713 169.685,175.134 168.302,175.573 167.744 C 175.988 167.216,176.454 165.864,176.608 164.739 C 176.763 163.614,177.209 162.133,177.598 161.447 C 177.988 160.761,178.419 159.441,178.556 158.514 C 178.693 157.587,179.254 156.167,179.802 155.358 C 180.351 154.550,180.800 153.401,180.800 152.805 C 180.800 152.210,181.156 151.312,181.592 150.810 C 182.027 150.308,182.498 149.285,182.638 148.538 C 182.778 147.790,183.216 147.006,183.611 146.794 C 184.024 146.573,184.443 145.728,184.600 144.800 C 184.758 143.867,185.176 143.027,185.594 142.803 C 185.991 142.591,186.525 141.918,186.781 141.308 C 187.037 140.699,187.775 139.300,188.421 138.200 C 189.068 137.100,189.966 135.435,190.417 134.500 C 190.868 133.565,191.413 132.800,191.627 132.800 C 191.842 132.800,192.238 132.314,192.509 131.719 C 192.779 131.124,193.405 130.233,193.900 129.737 C 194.395 129.242,194.800 128.590,194.800 128.288 C 194.800 127.986,195.250 127.317,195.800 126.800 C 196.350 126.283,196.800 125.726,196.800 125.562 C 196.800 125.398,197.498 124.558,198.351 123.697 C 199.204 122.835,200.100 121.761,200.341 121.310 C 200.892 120.281,202.272 118.632,203.700 117.296 C 204.305 116.731,204.800 115.938,204.800 115.534 C 204.800 115.130,205.040 114.800,205.334 114.800 C 205.628 114.800,206.324 114.305,206.881 113.700 C 207.438 113.095,208.657 111.970,209.590 111.200 C 210.523 110.430,211.546 109.554,211.862 109.253 C 212.178 108.952,213.194 108.092,214.119 107.341 C 215.043 106.591,216.610 105.265,217.600 104.396 C 219.583 102.655,224.017 99.339,225.617 98.400 C 228.643 96.624,229.387 96.141,230.023 95.539 C 230.407 95.176,231.144 94.747,231.661 94.585 C 232.177 94.423,233.109 93.865,233.731 93.345 C 234.353 92.825,235.173 92.400,235.553 92.400 C 235.933 92.400,236.855 91.950,237.600 91.400 C 238.345 90.850,239.256 90.400,239.624 90.400 C 239.991 90.400,240.728 90.057,241.260 89.639 C 241.793 89.220,242.979 88.675,243.896 88.428 C 244.813 88.181,245.802 87.741,246.092 87.451 C 246.382 87.161,247.551 86.700,248.690 86.426 C 249.829 86.153,250.958 85.691,251.200 85.400 C 251.442 85.108,252.576 84.742,253.720 84.587 C 254.864 84.432,256.430 83.989,257.200 83.604 C 257.970 83.218,259.835 82.691,261.344 82.432 C 262.852 82.173,264.493 81.695,264.989 81.370 C 265.576 80.986,267.782 80.644,271.314 80.392 C 274.296 80.179,277.246 79.790,277.868 79.527 C 280.696 78.335,295.977 78.251,298.309 79.415 M133.300 177.076 C 133.685 177.176,134.315 177.176,134.700 177.076 C 135.085 176.975,134.770 176.893,134.000 176.893 C 133.230 176.893,132.915 176.975,133.300 177.076 M146.530 185.230 C 146.277 185.483,145.244 185.844,144.235 186.033 C 143.226 186.222,141.905 186.724,141.300 187.150 C 140.695 187.577,139.480 188.047,138.600 188.196 C 137.720 188.345,136.460 188.793,135.800 189.190 C 135.140 189.588,133.970 190.043,133.200 190.200 C 132.430 190.357,131.239 190.827,130.553 191.243 C 129.867 191.659,129.039 192.000,128.712 192.000 C 128.386 192.000,127.327 192.420,126.360 192.932 C 125.392 193.445,124.000 193.984,123.266 194.129 C 122.533 194.275,121.453 194.733,120.866 195.147 C 120.280 195.561,119.170 196.032,118.400 196.193 C 117.630 196.355,116.439 196.827,115.753 197.243 C 115.067 197.659,114.183 198.000,113.788 198.000 C 113.393 198.000,112.334 198.428,111.435 198.952 C 110.536 199.475,109.170 200.038,108.400 200.204 C 107.630 200.369,106.571 200.841,106.046 201.252 C 105.521 201.663,104.704 202.000,104.231 202.000 C 103.757 202.000,102.671 202.356,101.817 202.791 C 100.964 203.226,99.621 203.778,98.833 204.018 C 98.045 204.258,96.770 204.777,96.000 205.173 C 95.230 205.569,93.716 206.106,92.637 206.368 C 91.557 206.629,90.302 207.104,89.848 207.422 C 89.394 207.740,88.747 208.006,88.411 208.013 C 88.075 208.019,86.725 208.559,85.410 209.213 C 84.096 209.866,82.594 210.400,82.073 210.400 C 81.552 210.400,80.669 210.760,80.109 211.200 C 79.550 211.640,78.637 212.000,78.081 212.000 C 77.525 212.000,76.334 212.428,75.435 212.952 C 74.536 213.475,73.170 214.034,72.400 214.195 C 71.630 214.355,70.439 214.827,69.753 215.243 C 69.067 215.659,68.275 216.000,67.993 216.000 C 67.711 216.000,66.562 216.447,65.440 216.992 C 64.318 217.538,62.661 218.168,61.759 218.392 C 60.856 218.616,59.619 219.261,59.010 219.826 L 57.902 220.853 59.451 222.287 C 62.302 224.926,66.007 228.000,66.338 228.000 C 66.658 228.000,69.233 230.215,72.633 233.416 C 73.578 234.305,75.396 235.734,76.675 236.591 C 77.954 237.448,79.401 238.521,79.891 238.975 C 84.574 243.312,90.238 248.000,90.797 248.000 C 91.028 248.000,91.754 248.845,92.409 249.878 L 93.600 251.757 93.600 268.256 L 93.600 284.755 92.711 285.377 C 91.949 285.911,89.900 286.000,78.391 286.000 C 68.478 286.000,64.834 286.126,64.480 286.480 C 63.797 287.163,63.797 306.837,64.480 307.520 C 65.170 308.210,174.286 308.217,175.800 307.527 L 176.838 307.054 176.719 297.094 C 176.608 287.772,176.550 287.098,175.824 286.567 C 175.191 286.105,172.631 286.000,162.004 286.000 C 152.392 286.000,148.834 285.874,148.480 285.520 C 148.112 285.152,148.000 273.519,148.000 235.596 C 148.000 184.735,147.972 183.788,146.530 185.230 M147.193 186.500 C 146.938 203.922,147.510 285.670,147.889 286.049 C 148.253 286.413,151.801 286.549,161.768 286.581 C 169.132 286.605,175.280 286.747,175.429 286.896 C 175.819 287.286,175.864 306.501,175.477 307.099 C 175.103 307.677,65.521 307.655,64.944 307.077 C 64.766 306.899,64.641 302.219,64.666 296.677 L 64.712 286.600 75.656 286.582 C 91.798 286.556,93.042 286.501,93.771 285.771 C 94.323 285.220,94.400 283.048,94.400 267.969 L 94.400 250.795 93.400 249.925 C 92.850 249.447,92.400 248.814,92.400 248.518 C 92.400 248.222,91.995 247.826,91.499 247.638 C 91.003 247.449,89.698 246.464,88.599 245.449 C 87.500 244.434,86.266 243.494,85.858 243.361 C 85.450 243.228,84.335 242.328,83.381 241.360 C 82.427 240.392,81.528 239.600,81.384 239.600 C 81.239 239.600,80.613 239.105,79.993 238.500 C 77.988 236.544,77.391 236.052,76.381 235.521 C 75.400 235.006,74.461 234.246,72.644 232.500 C 72.130 232.005,71.499 231.600,71.244 231.600 C 70.989 231.600,70.609 231.150,70.400 230.600 C 70.191 230.050,69.862 229.600,69.669 229.600 C 69.476 229.600,68.772 229.105,68.103 228.500 C 67.434 227.895,66.223 226.950,65.410 226.400 C 64.598 225.850,63.431 224.950,62.816 224.400 C 62.201 223.850,61.050 222.860,60.258 222.200 C 58.785 220.973,58.460 220.400,59.238 220.400 C 59.479 220.400,60.160 220.055,60.752 219.634 C 61.343 219.213,62.541 218.746,63.414 218.597 C 64.286 218.448,65.483 217.986,66.073 217.571 C 66.663 217.156,67.909 216.645,68.842 216.435 C 69.775 216.226,70.686 215.789,70.868 215.465 C 71.051 215.137,72.107 214.750,73.242 214.594 C 74.392 214.436,75.616 213.984,76.038 213.562 C 76.451 213.149,77.556 212.693,78.494 212.548 C 79.432 212.403,80.650 211.972,81.200 211.591 C 81.750 211.210,82.984 210.767,83.942 210.606 C 84.901 210.446,86.001 209.999,86.388 209.612 C 86.774 209.226,87.790 208.782,88.645 208.625 C 89.500 208.469,90.780 208.004,91.488 207.591 C 92.197 207.178,93.457 206.725,94.288 206.583 C 95.120 206.441,96.288 205.982,96.885 205.562 C 97.482 205.142,98.889 204.601,100.013 204.360 C 101.136 204.119,102.145 203.688,102.254 203.402 C 102.364 203.117,103.239 202.765,104.199 202.621 C 105.158 202.477,106.394 202.005,106.944 201.573 C 107.494 201.140,108.794 200.628,109.833 200.433 C 110.873 200.239,111.873 199.813,112.056 199.486 C 112.238 199.160,113.188 198.773,114.166 198.626 C 115.144 198.479,116.361 198.035,116.872 197.638 C 117.382 197.241,118.457 196.795,119.259 196.647 C 120.062 196.500,121.162 196.030,121.704 195.604 C 122.246 195.178,123.447 194.659,124.373 194.451 C 125.300 194.242,126.359 193.801,126.729 193.470 C 127.098 193.139,128.120 192.746,129.000 192.596 C 129.880 192.447,131.050 192.012,131.600 191.629 C 132.150 191.245,133.314 190.817,134.187 190.677 C 135.060 190.537,136.237 190.079,136.804 189.660 C 137.371 189.241,138.637 188.767,139.617 188.606 C 140.598 188.445,141.732 188.018,142.138 187.656 C 142.545 187.295,143.715 186.796,144.738 186.548 C 147.262 185.934,147.201 185.935,147.193 186.500 " stroke="none" fill="#747474" fill-rule="evenodd" data-index="4" style="opacity: 1;"></path></g></svg>